<?xml version="1.0" encoding="utf-8" standalone="no"?>
<!DOCTYPE svg PUBLIC "-//W3C//DTD SVG 1.1//EN"
  "http://www.w3.org/Graphics/SVG/1.1/DTD/svg11.dtd">
<svg height="297.809391pt" version="1.1" viewBox="0 0 368.925 297.809391" width="368.925pt" xmlns="http://www.w3.org/2000/svg" xmlns:xlink="http://www.w3.org/1999/xlink">
 <metadata>
  <rdf:RDF xmlns:cc="http://creativecommons.org/ns#" xmlns:dc="http://purl.org/dc/elements/1.1/" xmlns:rdf="http://www.w3.org/1999/02/22-rdf-syntax-ns#">
   <cc:Work>
    <dc:type rdf:resource="http://purl.org/dc/dcmitype/StillImage"/>
    <dc:date>2021-09-08T23:43:20.687159</dc:date>
    <dc:format>image/svg+xml</dc:format>
    <dc:creator>
     <cc:Agent>
      <dc:title>Matplotlib v3.4.1, https://matplotlib.org/</dc:title>
     </cc:Agent>
    </dc:creator>
   </cc:Work>
  </rdf:RDF>
 </metadata>
 <defs>
  <style type="text/css">*{stroke-linecap:butt;stroke-linejoin:round;}</style>
 </defs>
 <g id="figure_1">
  <g id="patch_1">
   <path d="M -0 297.809391 
L 368.925 297.809391 
L 368.925 0 
L -0 0 
z
" style="fill:#ffffff;"/>
  </g>
  <g id="axes_1">
   <g id="patch_2">
    <path d="M 26.925 224.64 
L 361.725 224.64 
L 361.725 7.2 
L 26.925 7.2 
z
" style="fill:#ffffff;"/>
   </g>
   <g id="matplotlib.axis_1">
    <g id="xtick_1">
     <g id="line2d_1">
      <defs>
       <path d="M 0 0 
L 0 3.5 
" id="meeddc0d53f" style="stroke:#000000;stroke-width:0.8;"/>
      </defs>
      <g>
       <use style="stroke:#000000;stroke-width:0.8;" x="85.151087" xlink:href="#meeddc0d53f" y="224.64"/>
      </g>
     </g>
     <g id="text_1">
      <!-- 1er juillet -->
      <g transform="translate(57.057956 270.478945)rotate(-45)scale(0.1 -0.1)">
       <defs>
        <path d="M 794 531 
L 1825 531 
L 1825 4091 
L 703 3866 
L 703 4441 
L 1819 4666 
L 2450 4666 
L 2450 531 
L 3481 531 
L 3481 0 
L 794 0 
L 794 531 
z
" id="DejaVuSans-31" transform="scale(0.015625)"/>
        <path d="M 3597 1894 
L 3597 1613 
L 953 1613 
Q 991 1019 1311 708 
Q 1631 397 2203 397 
Q 2534 397 2845 478 
Q 3156 559 3463 722 
L 3463 178 
Q 3153 47 2828 -22 
Q 2503 -91 2169 -91 
Q 1331 -91 842 396 
Q 353 884 353 1716 
Q 353 2575 817 3079 
Q 1281 3584 2069 3584 
Q 2775 3584 3186 3129 
Q 3597 2675 3597 1894 
z
M 3022 2063 
Q 3016 2534 2758 2815 
Q 2500 3097 2075 3097 
Q 1594 3097 1305 2825 
Q 1016 2553 972 2059 
L 3022 2063 
z
" id="DejaVuSans-65" transform="scale(0.015625)"/>
        <path d="M 2631 2963 
Q 2534 3019 2420 3045 
Q 2306 3072 2169 3072 
Q 1681 3072 1420 2755 
Q 1159 2438 1159 1844 
L 1159 0 
L 581 0 
L 581 3500 
L 1159 3500 
L 1159 2956 
Q 1341 3275 1631 3429 
Q 1922 3584 2338 3584 
Q 2397 3584 2469 3576 
Q 2541 3569 2628 3553 
L 2631 2963 
z
" id="DejaVuSans-72" transform="scale(0.015625)"/>
        <path id="DejaVuSans-20" transform="scale(0.015625)"/>
        <path d="M 603 3500 
L 1178 3500 
L 1178 -63 
Q 1178 -731 923 -1031 
Q 669 -1331 103 -1331 
L -116 -1331 
L -116 -844 
L 38 -844 
Q 366 -844 484 -692 
Q 603 -541 603 -63 
L 603 3500 
z
M 603 4863 
L 1178 4863 
L 1178 4134 
L 603 4134 
L 603 4863 
z
" id="DejaVuSans-6a" transform="scale(0.015625)"/>
        <path d="M 544 1381 
L 544 3500 
L 1119 3500 
L 1119 1403 
Q 1119 906 1312 657 
Q 1506 409 1894 409 
Q 2359 409 2629 706 
Q 2900 1003 2900 1516 
L 2900 3500 
L 3475 3500 
L 3475 0 
L 2900 0 
L 2900 538 
Q 2691 219 2414 64 
Q 2138 -91 1772 -91 
Q 1169 -91 856 284 
Q 544 659 544 1381 
z
M 1991 3584 
L 1991 3584 
z
" id="DejaVuSans-75" transform="scale(0.015625)"/>
        <path d="M 603 3500 
L 1178 3500 
L 1178 0 
L 603 0 
L 603 3500 
z
M 603 4863 
L 1178 4863 
L 1178 4134 
L 603 4134 
L 603 4863 
z
" id="DejaVuSans-69" transform="scale(0.015625)"/>
        <path d="M 603 4863 
L 1178 4863 
L 1178 0 
L 603 0 
L 603 4863 
z
" id="DejaVuSans-6c" transform="scale(0.015625)"/>
        <path d="M 1172 4494 
L 1172 3500 
L 2356 3500 
L 2356 3053 
L 1172 3053 
L 1172 1153 
Q 1172 725 1289 603 
Q 1406 481 1766 481 
L 2356 481 
L 2356 0 
L 1766 0 
Q 1100 0 847 248 
Q 594 497 594 1153 
L 594 3053 
L 172 3053 
L 172 3500 
L 594 3500 
L 594 4494 
L 1172 4494 
z
" id="DejaVuSans-74" transform="scale(0.015625)"/>
       </defs>
       <use xlink:href="#DejaVuSans-31"/>
       <use x="63.623047" xlink:href="#DejaVuSans-65"/>
       <use x="125.146484" xlink:href="#DejaVuSans-72"/>
       <use x="166.259766" xlink:href="#DejaVuSans-20"/>
       <use x="198.046875" xlink:href="#DejaVuSans-6a"/>
       <use x="225.830078" xlink:href="#DejaVuSans-75"/>
       <use x="289.208984" xlink:href="#DejaVuSans-69"/>
       <use x="316.992188" xlink:href="#DejaVuSans-6c"/>
       <use x="344.775391" xlink:href="#DejaVuSans-6c"/>
       <use x="372.558594" xlink:href="#DejaVuSans-65"/>
       <use x="434.082031" xlink:href="#DejaVuSans-74"/>
      </g>
     </g>
    </g>
    <g id="xtick_2">
     <g id="line2d_2">
      <g>
       <use style="stroke:#000000;stroke-width:0.8;" x="197.96413" xlink:href="#meeddc0d53f" y="224.64"/>
      </g>
     </g>
     <g id="text_2">
      <!-- 1er août -->
      <g transform="translate(173.419791 266.930153)rotate(-45)scale(0.1 -0.1)">
       <defs>
        <path d="M 2194 1759 
Q 1497 1759 1228 1600 
Q 959 1441 959 1056 
Q 959 750 1161 570 
Q 1363 391 1709 391 
Q 2188 391 2477 730 
Q 2766 1069 2766 1631 
L 2766 1759 
L 2194 1759 
z
M 3341 1997 
L 3341 0 
L 2766 0 
L 2766 531 
Q 2569 213 2275 61 
Q 1981 -91 1556 -91 
Q 1019 -91 701 211 
Q 384 513 384 1019 
Q 384 1609 779 1909 
Q 1175 2209 1959 2209 
L 2766 2209 
L 2766 2266 
Q 2766 2663 2505 2880 
Q 2244 3097 1772 3097 
Q 1472 3097 1187 3025 
Q 903 2953 641 2809 
L 641 3341 
Q 956 3463 1253 3523 
Q 1550 3584 1831 3584 
Q 2591 3584 2966 3190 
Q 3341 2797 3341 1997 
z
" id="DejaVuSans-61" transform="scale(0.015625)"/>
        <path d="M 1959 3097 
Q 1497 3097 1228 2736 
Q 959 2375 959 1747 
Q 959 1119 1226 758 
Q 1494 397 1959 397 
Q 2419 397 2687 759 
Q 2956 1122 2956 1747 
Q 2956 2369 2687 2733 
Q 2419 3097 1959 3097 
z
M 1959 3584 
Q 2709 3584 3137 3096 
Q 3566 2609 3566 1747 
Q 3566 888 3137 398 
Q 2709 -91 1959 -91 
Q 1206 -91 779 398 
Q 353 888 353 1747 
Q 353 2609 779 3096 
Q 1206 3584 1959 3584 
z
" id="DejaVuSans-6f" transform="scale(0.015625)"/>
        <path d="M 544 1381 
L 544 3500 
L 1119 3500 
L 1119 1403 
Q 1119 906 1312 657 
Q 1506 409 1894 409 
Q 2359 409 2629 706 
Q 2900 1003 2900 1516 
L 2900 3500 
L 3475 3500 
L 3475 0 
L 2900 0 
L 2900 538 
Q 2691 219 2414 64 
Q 2138 -91 1772 -91 
Q 1169 -91 856 284 
Q 544 659 544 1381 
z
M 1991 3584 
L 1991 3584 
z
M 1753 5119 
L 2215 5119 
L 2981 3944 
L 2547 3944 
L 1984 4709 
L 1422 3944 
L 987 3944 
L 1753 5119 
z
" id="DejaVuSans-fb" transform="scale(0.015625)"/>
       </defs>
       <use xlink:href="#DejaVuSans-31"/>
       <use x="63.623047" xlink:href="#DejaVuSans-65"/>
       <use x="125.146484" xlink:href="#DejaVuSans-72"/>
       <use x="166.259766" xlink:href="#DejaVuSans-20"/>
       <use x="198.046875" xlink:href="#DejaVuSans-61"/>
       <use x="259.326172" xlink:href="#DejaVuSans-6f"/>
       <use x="320.507812" xlink:href="#DejaVuSans-fb"/>
       <use x="383.886719" xlink:href="#DejaVuSans-74"/>
      </g>
     </g>
    </g>
    <g id="xtick_3">
     <g id="line2d_3">
      <g>
       <use style="stroke:#000000;stroke-width:0.8;" x="310.777174" xlink:href="#meeddc0d53f" y="224.64"/>
      </g>
     </g>
     <g id="text_3">
      <!-- 1er septembre -->
      <g transform="translate(264.024157 289.13883)rotate(-45)scale(0.1 -0.1)">
       <defs>
        <path d="M 2834 3397 
L 2834 2853 
Q 2591 2978 2328 3040 
Q 2066 3103 1784 3103 
Q 1356 3103 1142 2972 
Q 928 2841 928 2578 
Q 928 2378 1081 2264 
Q 1234 2150 1697 2047 
L 1894 2003 
Q 2506 1872 2764 1633 
Q 3022 1394 3022 966 
Q 3022 478 2636 193 
Q 2250 -91 1575 -91 
Q 1294 -91 989 -36 
Q 684 19 347 128 
L 347 722 
Q 666 556 975 473 
Q 1284 391 1588 391 
Q 1994 391 2212 530 
Q 2431 669 2431 922 
Q 2431 1156 2273 1281 
Q 2116 1406 1581 1522 
L 1381 1569 
Q 847 1681 609 1914 
Q 372 2147 372 2553 
Q 372 3047 722 3315 
Q 1072 3584 1716 3584 
Q 2034 3584 2315 3537 
Q 2597 3491 2834 3397 
z
" id="DejaVuSans-73" transform="scale(0.015625)"/>
        <path d="M 1159 525 
L 1159 -1331 
L 581 -1331 
L 581 3500 
L 1159 3500 
L 1159 2969 
Q 1341 3281 1617 3432 
Q 1894 3584 2278 3584 
Q 2916 3584 3314 3078 
Q 3713 2572 3713 1747 
Q 3713 922 3314 415 
Q 2916 -91 2278 -91 
Q 1894 -91 1617 61 
Q 1341 213 1159 525 
z
M 3116 1747 
Q 3116 2381 2855 2742 
Q 2594 3103 2138 3103 
Q 1681 3103 1420 2742 
Q 1159 2381 1159 1747 
Q 1159 1113 1420 752 
Q 1681 391 2138 391 
Q 2594 391 2855 752 
Q 3116 1113 3116 1747 
z
" id="DejaVuSans-70" transform="scale(0.015625)"/>
        <path d="M 3328 2828 
Q 3544 3216 3844 3400 
Q 4144 3584 4550 3584 
Q 5097 3584 5394 3201 
Q 5691 2819 5691 2113 
L 5691 0 
L 5113 0 
L 5113 2094 
Q 5113 2597 4934 2840 
Q 4756 3084 4391 3084 
Q 3944 3084 3684 2787 
Q 3425 2491 3425 1978 
L 3425 0 
L 2847 0 
L 2847 2094 
Q 2847 2600 2669 2842 
Q 2491 3084 2119 3084 
Q 1678 3084 1418 2786 
Q 1159 2488 1159 1978 
L 1159 0 
L 581 0 
L 581 3500 
L 1159 3500 
L 1159 2956 
Q 1356 3278 1631 3431 
Q 1906 3584 2284 3584 
Q 2666 3584 2933 3390 
Q 3200 3197 3328 2828 
z
" id="DejaVuSans-6d" transform="scale(0.015625)"/>
        <path d="M 3116 1747 
Q 3116 2381 2855 2742 
Q 2594 3103 2138 3103 
Q 1681 3103 1420 2742 
Q 1159 2381 1159 1747 
Q 1159 1113 1420 752 
Q 1681 391 2138 391 
Q 2594 391 2855 752 
Q 3116 1113 3116 1747 
z
M 1159 2969 
Q 1341 3281 1617 3432 
Q 1894 3584 2278 3584 
Q 2916 3584 3314 3078 
Q 3713 2572 3713 1747 
Q 3713 922 3314 415 
Q 2916 -91 2278 -91 
Q 1894 -91 1617 61 
Q 1341 213 1159 525 
L 1159 0 
L 581 0 
L 581 4863 
L 1159 4863 
L 1159 2969 
z
" id="DejaVuSans-62" transform="scale(0.015625)"/>
       </defs>
       <use xlink:href="#DejaVuSans-31"/>
       <use x="63.623047" xlink:href="#DejaVuSans-65"/>
       <use x="125.146484" xlink:href="#DejaVuSans-72"/>
       <use x="166.259766" xlink:href="#DejaVuSans-20"/>
       <use x="198.046875" xlink:href="#DejaVuSans-73"/>
       <use x="250.146484" xlink:href="#DejaVuSans-65"/>
       <use x="311.669922" xlink:href="#DejaVuSans-70"/>
       <use x="375.146484" xlink:href="#DejaVuSans-74"/>
       <use x="414.355469" xlink:href="#DejaVuSans-65"/>
       <use x="475.878906" xlink:href="#DejaVuSans-6d"/>
       <use x="573.291016" xlink:href="#DejaVuSans-62"/>
       <use x="636.767578" xlink:href="#DejaVuSans-72"/>
       <use x="675.630859" xlink:href="#DejaVuSans-65"/>
      </g>
     </g>
    </g>
   </g>
   <g id="matplotlib.axis_2">
    <g id="ytick_1">
     <g id="line2d_4">
      <defs>
       <path d="M 0 0 
L -3.5 0 
" id="m9b425a68e9" style="stroke:#000000;stroke-width:0.8;"/>
      </defs>
      <g>
       <use style="stroke:#000000;stroke-width:0.8;" x="26.925" xlink:href="#m9b425a68e9" y="214.756364"/>
      </g>
     </g>
     <g id="text_4">
      <!-- 0 -->
      <g transform="translate(13.5625 218.555582)scale(0.1 -0.1)">
       <defs>
        <path d="M 2034 4250 
Q 1547 4250 1301 3770 
Q 1056 3291 1056 2328 
Q 1056 1369 1301 889 
Q 1547 409 2034 409 
Q 2525 409 2770 889 
Q 3016 1369 3016 2328 
Q 3016 3291 2770 3770 
Q 2525 4250 2034 4250 
z
M 2034 4750 
Q 2819 4750 3233 4129 
Q 3647 3509 3647 2328 
Q 3647 1150 3233 529 
Q 2819 -91 2034 -91 
Q 1250 -91 836 529 
Q 422 1150 422 2328 
Q 422 3509 836 4129 
Q 1250 4750 2034 4750 
z
" id="DejaVuSans-30" transform="scale(0.015625)"/>
       </defs>
       <use xlink:href="#DejaVuSans-30"/>
      </g>
     </g>
    </g>
    <g id="ytick_2">
     <g id="line2d_5">
      <g>
       <use style="stroke:#000000;stroke-width:0.8;" x="26.925" xlink:href="#m9b425a68e9" y="187.323808"/>
      </g>
     </g>
     <g id="text_5">
      <!-- 10 -->
      <g transform="translate(7.2 191.123027)scale(0.1 -0.1)">
       <use xlink:href="#DejaVuSans-31"/>
       <use x="63.623047" xlink:href="#DejaVuSans-30"/>
      </g>
     </g>
    </g>
    <g id="ytick_3">
     <g id="line2d_6">
      <g>
       <use style="stroke:#000000;stroke-width:0.8;" x="26.925" xlink:href="#m9b425a68e9" y="159.891253"/>
      </g>
     </g>
     <g id="text_6">
      <!-- 20 -->
      <g transform="translate(7.2 163.690472)scale(0.1 -0.1)">
       <defs>
        <path d="M 1228 531 
L 3431 531 
L 3431 0 
L 469 0 
L 469 531 
Q 828 903 1448 1529 
Q 2069 2156 2228 2338 
Q 2531 2678 2651 2914 
Q 2772 3150 2772 3378 
Q 2772 3750 2511 3984 
Q 2250 4219 1831 4219 
Q 1534 4219 1204 4116 
Q 875 4013 500 3803 
L 500 4441 
Q 881 4594 1212 4672 
Q 1544 4750 1819 4750 
Q 2544 4750 2975 4387 
Q 3406 4025 3406 3419 
Q 3406 3131 3298 2873 
Q 3191 2616 2906 2266 
Q 2828 2175 2409 1742 
Q 1991 1309 1228 531 
z
" id="DejaVuSans-32" transform="scale(0.015625)"/>
       </defs>
       <use xlink:href="#DejaVuSans-32"/>
       <use x="63.623047" xlink:href="#DejaVuSans-30"/>
      </g>
     </g>
    </g>
    <g id="ytick_4">
     <g id="line2d_7">
      <g>
       <use style="stroke:#000000;stroke-width:0.8;" x="26.925" xlink:href="#m9b425a68e9" y="132.458698"/>
      </g>
     </g>
     <g id="text_7">
      <!-- 30 -->
      <g transform="translate(7.2 136.257917)scale(0.1 -0.1)">
       <defs>
        <path d="M 2597 2516 
Q 3050 2419 3304 2112 
Q 3559 1806 3559 1356 
Q 3559 666 3084 287 
Q 2609 -91 1734 -91 
Q 1441 -91 1130 -33 
Q 819 25 488 141 
L 488 750 
Q 750 597 1062 519 
Q 1375 441 1716 441 
Q 2309 441 2620 675 
Q 2931 909 2931 1356 
Q 2931 1769 2642 2001 
Q 2353 2234 1838 2234 
L 1294 2234 
L 1294 2753 
L 1863 2753 
Q 2328 2753 2575 2939 
Q 2822 3125 2822 3475 
Q 2822 3834 2567 4026 
Q 2313 4219 1838 4219 
Q 1578 4219 1281 4162 
Q 984 4106 628 3988 
L 628 4550 
Q 988 4650 1302 4700 
Q 1616 4750 1894 4750 
Q 2613 4750 3031 4423 
Q 3450 4097 3450 3541 
Q 3450 3153 3228 2886 
Q 3006 2619 2597 2516 
z
" id="DejaVuSans-33" transform="scale(0.015625)"/>
       </defs>
       <use xlink:href="#DejaVuSans-33"/>
       <use x="63.623047" xlink:href="#DejaVuSans-30"/>
      </g>
     </g>
    </g>
    <g id="ytick_5">
     <g id="line2d_8">
      <g>
       <use style="stroke:#000000;stroke-width:0.8;" x="26.925" xlink:href="#m9b425a68e9" y="105.026143"/>
      </g>
     </g>
     <g id="text_8">
      <!-- 40 -->
      <g transform="translate(7.2 108.825362)scale(0.1 -0.1)">
       <defs>
        <path d="M 2419 4116 
L 825 1625 
L 2419 1625 
L 2419 4116 
z
M 2253 4666 
L 3047 4666 
L 3047 1625 
L 3713 1625 
L 3713 1100 
L 3047 1100 
L 3047 0 
L 2419 0 
L 2419 1100 
L 313 1100 
L 313 1709 
L 2253 4666 
z
" id="DejaVuSans-34" transform="scale(0.015625)"/>
       </defs>
       <use xlink:href="#DejaVuSans-34"/>
       <use x="63.623047" xlink:href="#DejaVuSans-30"/>
      </g>
     </g>
    </g>
    <g id="ytick_6">
     <g id="line2d_9">
      <g>
       <use style="stroke:#000000;stroke-width:0.8;" x="26.925" xlink:href="#m9b425a68e9" y="77.593588"/>
      </g>
     </g>
     <g id="text_9">
      <!-- 50 -->
      <g transform="translate(7.2 81.392807)scale(0.1 -0.1)">
       <defs>
        <path d="M 691 4666 
L 3169 4666 
L 3169 4134 
L 1269 4134 
L 1269 2991 
Q 1406 3038 1543 3061 
Q 1681 3084 1819 3084 
Q 2600 3084 3056 2656 
Q 3513 2228 3513 1497 
Q 3513 744 3044 326 
Q 2575 -91 1722 -91 
Q 1428 -91 1123 -41 
Q 819 9 494 109 
L 494 744 
Q 775 591 1075 516 
Q 1375 441 1709 441 
Q 2250 441 2565 725 
Q 2881 1009 2881 1497 
Q 2881 1984 2565 2268 
Q 2250 2553 1709 2553 
Q 1456 2553 1204 2497 
Q 953 2441 691 2322 
L 691 4666 
z
" id="DejaVuSans-35" transform="scale(0.015625)"/>
       </defs>
       <use xlink:href="#DejaVuSans-35"/>
       <use x="63.623047" xlink:href="#DejaVuSans-30"/>
      </g>
     </g>
    </g>
    <g id="ytick_7">
     <g id="line2d_10">
      <g>
       <use style="stroke:#000000;stroke-width:0.8;" x="26.925" xlink:href="#m9b425a68e9" y="50.161033"/>
      </g>
     </g>
     <g id="text_10">
      <!-- 60 -->
      <g transform="translate(7.2 53.960251)scale(0.1 -0.1)">
       <defs>
        <path d="M 2113 2584 
Q 1688 2584 1439 2293 
Q 1191 2003 1191 1497 
Q 1191 994 1439 701 
Q 1688 409 2113 409 
Q 2538 409 2786 701 
Q 3034 994 3034 1497 
Q 3034 2003 2786 2293 
Q 2538 2584 2113 2584 
z
M 3366 4563 
L 3366 3988 
Q 3128 4100 2886 4159 
Q 2644 4219 2406 4219 
Q 1781 4219 1451 3797 
Q 1122 3375 1075 2522 
Q 1259 2794 1537 2939 
Q 1816 3084 2150 3084 
Q 2853 3084 3261 2657 
Q 3669 2231 3669 1497 
Q 3669 778 3244 343 
Q 2819 -91 2113 -91 
Q 1303 -91 875 529 
Q 447 1150 447 2328 
Q 447 3434 972 4092 
Q 1497 4750 2381 4750 
Q 2619 4750 2861 4703 
Q 3103 4656 3366 4563 
z
" id="DejaVuSans-36" transform="scale(0.015625)"/>
       </defs>
       <use xlink:href="#DejaVuSans-36"/>
       <use x="63.623047" xlink:href="#DejaVuSans-30"/>
      </g>
     </g>
    </g>
    <g id="ytick_8">
     <g id="line2d_11">
      <g>
       <use style="stroke:#000000;stroke-width:0.8;" x="26.925" xlink:href="#m9b425a68e9" y="22.728478"/>
      </g>
     </g>
     <g id="text_11">
      <!-- 70 -->
      <g transform="translate(7.2 26.527696)scale(0.1 -0.1)">
       <defs>
        <path d="M 525 4666 
L 3525 4666 
L 3525 4397 
L 1831 0 
L 1172 0 
L 2766 4134 
L 525 4134 
L 525 4666 
z
" id="DejaVuSans-37" transform="scale(0.015625)"/>
       </defs>
       <use xlink:href="#DejaVuSans-37"/>
       <use x="63.623047" xlink:href="#DejaVuSans-30"/>
      </g>
     </g>
    </g>
   </g>
   <g id="line2d_12">
    <path clip-path="url(#pa59b8366eb)" d="M -1 170.265341 
L 1.451087 173.113112 
L 5.090217 184.902118 
L 8.729348 180.442753 
L 12.368478 184.216035 
L 16.007609 181.183216 
L 19.646739 193.70276 
L 23.28587 185.027349 
L 26.925 189.730904 
L 30.56413 186.592139 
L 34.203261 185.56456 
L 37.842391 194.849047 
L 41.481522 193.211844 
L 45.120652 205.816309 
L 48.759783 188.511937 
L 52.398913 195.097327 
L 56.038043 199.503917 
L 59.677174 194.753883 
L 63.316304 199.231372 
L 66.955435 201.476588 
L 70.594565 203.01482 
L 74.233696 197.440332 
L 77.872826 199.706651 
L 81.511957 198.011223 
L 85.151087 202.712059 
L 88.790217 200.207946 
L 92.429348 202.578413 
L 96.068478 204.184972 
L 99.707609 198.419019 
L 103.346739 194.224652 
L 106.98587 195.753046 
L 110.625 199.784804 
L 114.26413 192.985482 
L 117.903261 193.733305 
L 121.542391 198.751564 
L 125.181522 189.358813 
L 128.820652 193.465757 
L 132.459783 195.042572 
L 136.098913 186.26966 
L 139.738043 189.545056 
L 143.377174 185.060704 
L 147.016304 182.379625 
L 150.655435 175.171582 
L 154.294565 173.922007 
L 157.933696 160.293718 
L 161.572826 166.001847 
L 165.211957 156.253646 
L 168.851087 157.593663 
L 172.490217 150.907 
L 176.129348 149.362902 
L 179.768478 140.009502 
L 183.407609 132.275315 
L 187.046739 99.834728 
L 190.68587 94.085223 
L 194.325 117.826402 
L 197.96413 109.373096 
L 201.603261 82.628601 
L 205.242391 83.455485 
L 208.881522 83.289661 
L 212.520652 51.876789 
L 216.159783 33.672613 
L 219.798913 63.613788 
L 223.438043 74.036904 
L 227.077174 40.773769 
L 230.716304 58.514604 
L 234.355435 37.521048 
L 237.994565 41.870736 
L 241.633696 60.732648 
L 245.272826 36.431725 
L 248.911957 76.968217 
L 252.551087 17.99527 
L 256.190217 36.40897 
L 259.829348 27.926216 
L 263.468478 34.533955 
L 267.107609 17.083636 
L 270.746739 48.08484 
L 274.38587 47.798998 
" style="fill:none;stroke:#e9967a;stroke-linecap:square;stroke-width:3;"/>
   </g>
   <g id="line2d_13">
    <path clip-path="url(#pa59b8366eb)" d="M -1 206.325749 
L 1.451087 211.203069 
L 5.090217 205.975196 
L 8.729348 206.082211 
L 12.368478 209.597885 
L 16.007609 209.637082 
L 19.646739 206.270023 
L 23.28587 208.013548 
L 26.925 211.405911 
L 30.56413 208.098142 
L 34.203261 204.82466 
L 37.842391 208.14169 
L 41.481522 213.108443 
L 45.120652 214.756364 
L 48.759783 214.756364 
L 52.398913 209.795923 
L 56.038043 209.793346 
L 59.677174 213.100501 
L 63.316304 211.425737 
L 66.955435 213.08891 
L 70.594565 211.418683 
L 74.233696 211.378683 
L 77.872826 214.756364 
L 81.511957 211.29792 
L 85.151087 213.006585 
L 88.790217 209.416114 
L 92.429348 211.160044 
L 96.068478 214.756364 
L 99.707609 212.917503 
L 103.346739 212.875949 
L 106.98587 214.756364 
L 110.625 212.80788 
L 114.26413 210.761094 
L 117.903261 212.719822 
L 121.542391 214.756364 
L 125.181522 214.756364 
L 128.820652 210.433178 
L 132.459783 214.756364 
L 136.098913 212.490197 
L 139.738043 212.425959 
L 143.377174 209.995806 
L 147.016304 214.756364 
L 150.655435 197.544565 
L 154.294565 209.738853 
L 157.933696 209.601081 
L 161.572826 204.327116 
L 165.211957 206.799382 
L 168.851087 212.07528 
L 172.490217 201.336797 
L 176.129348 201.038282 
L 179.768478 203.574512 
L 183.407609 206.536636 
L 187.046739 189.835263 
L 190.68587 200.766677 
L 194.325 206.30885 
L 197.96413 186.595796 
L 201.603261 189.118339 
L 205.242391 171.832885 
L 208.881522 194.776434 
L 212.520652 194.840625 
L 216.159783 183.328259 
L 219.798913 209.022799 
L 223.438043 168.943459 
L 227.077174 185.973002 
L 230.716304 185.977287 
L 234.355435 183.150693 
L 237.994565 188.904917 
L 241.633696 188.812859 
L 245.272826 188.737462 
L 248.911957 194.525465 
L 252.551087 179.927458 
L 256.190217 171.123989 
L 259.829348 194.377672 
L 263.468478 188.444804 
L 267.107609 188.160995 
L 270.746739 190.905939 
L 274.38587 199.784476 
" style="fill:none;stroke:#000000;stroke-linecap:square;stroke-width:1.5;"/>
   </g>
   <g id="line2d_14">
    <path clip-path="url(#pa59b8366eb)" d="M -1 204.75253 
L 1.451087 204.892101 
L 5.090217 207.509482 
L 8.729348 207.674643 
L 12.368478 205.559142 
L 16.007609 207.960808 
L 19.646739 203.471782 
L 23.28587 210.323872 
L 26.925 212.590402 
L 30.56413 206.276439 
L 34.203261 212.685221 
L 37.842391 212.741037 
L 41.481522 212.773509 
L 45.120652 210.807349 
L 48.759783 208.957658 
L 52.398913 209.094564 
L 56.038043 205.522119 
L 59.677174 214.756364 
L 63.316304 209.479002 
L 66.955435 214.756364 
L 70.594565 213.033607 
L 74.233696 213.074497 
L 77.872826 209.839453 
L 81.511957 211.555384 
L 85.151087 208.509252 
L 88.790217 210.198336 
L 92.429348 210.274339 
L 96.068478 213.271401 
L 99.707609 208.952488 
L 103.346739 213.343481 
L 106.98587 211.998839 
L 110.625 213.408109 
L 114.26413 213.444632 
L 117.903261 213.469362 
L 121.542391 212.201926 
L 125.181522 209.759121 
L 128.820652 212.31838 
L 132.459783 208.798505 
L 136.098913 211.257779 
L 139.738043 210.199575 
L 143.377174 212.514542 
L 147.016304 209.185871 
L 150.655435 212.567463 
L 154.294565 211.537798 
L 157.933696 210.542349 
L 161.572826 212.686125 
L 165.211957 212.728388 
L 168.851087 208.753914 
L 172.490217 205.791684 
L 176.129348 206.930665 
L 179.768478 210.919712 
L 183.407609 204.275776 
L 187.046739 204.468994 
L 190.68587 202.816398 
L 194.325 203.860567 
L 197.96413 207.521319 
L 201.603261 200.499437 
L 205.242391 200.727375 
L 208.881522 200.915965 
L 212.520652 207.080544 
L 216.159783 206.356466 
L 219.798913 202.276609 
L 223.438043 206.460688 
L 227.077174 198.347886 
L 230.716304 196.100826 
L 234.355435 201.111618 
L 237.994565 193.307069 
L 241.633696 199.042455 
L 245.272826 206.171664 
L 248.911957 201.5148 
L 252.551087 196.987598 
L 256.190217 195.614008 
L 259.829348 201.080494 
L 263.468478 196.673569 
L 267.107609 203.560065 
L 270.746739 196.207584 
L 274.38587 204.390502 
" style="fill:none;stroke:#b22222;stroke-linecap:square;"/>
   </g>
   <g id="patch_3">
    <path d="M 26.925 224.64 
L 26.925 7.2 
" style="fill:none;stroke:#000000;stroke-linecap:square;stroke-linejoin:miter;stroke-width:0.8;"/>
   </g>
   <g id="patch_4">
    <path d="M 361.725 224.64 
L 361.725 7.2 
" style="fill:none;stroke:#000000;stroke-linecap:square;stroke-linejoin:miter;stroke-width:0.8;"/>
   </g>
   <g id="patch_5">
    <path d="M 26.925 224.64 
L 361.725 224.64 
" style="fill:none;stroke:#000000;stroke-linecap:square;stroke-linejoin:miter;stroke-width:0.8;"/>
   </g>
   <g id="patch_6">
    <path d="M 26.925 7.2 
L 361.725 7.2 
" style="fill:none;stroke:#000000;stroke-linecap:square;stroke-linejoin:miter;stroke-width:0.8;"/>
   </g>
   <g id="legend_1">
    <g id="patch_7">
     <path d="M 33.925 74.7125 
L 190.025 74.7125 
Q 192.025 74.7125 192.025 72.7125 
L 192.025 14.2 
Q 192.025 12.2 190.025 12.2 
L 33.925 12.2 
Q 31.925 12.2 31.925 14.2 
L 31.925 72.7125 
Q 31.925 74.7125 33.925 74.7125 
z
" style="fill:#ffffff;opacity:0.8;stroke:#cccccc;stroke-linejoin:miter;"/>
    </g>
    <g id="text_12">
     <!-- En réanimation (pour 10M) -->
     <g transform="translate(44.690625 24.198437)scale(0.1 -0.1)">
      <defs>
       <path d="M 628 4666 
L 3578 4666 
L 3578 4134 
L 1259 4134 
L 1259 2753 
L 3481 2753 
L 3481 2222 
L 1259 2222 
L 1259 531 
L 3634 531 
L 3634 0 
L 628 0 
L 628 4666 
z
" id="DejaVuSans-45" transform="scale(0.015625)"/>
       <path d="M 3513 2113 
L 3513 0 
L 2938 0 
L 2938 2094 
Q 2938 2591 2744 2837 
Q 2550 3084 2163 3084 
Q 1697 3084 1428 2787 
Q 1159 2491 1159 1978 
L 1159 0 
L 581 0 
L 581 3500 
L 1159 3500 
L 1159 2956 
Q 1366 3272 1645 3428 
Q 1925 3584 2291 3584 
Q 2894 3584 3203 3211 
Q 3513 2838 3513 2113 
z
" id="DejaVuSans-6e" transform="scale(0.015625)"/>
       <path d="M 3597 1894 
L 3597 1613 
L 953 1613 
Q 991 1019 1311 708 
Q 1631 397 2203 397 
Q 2534 397 2845 478 
Q 3156 559 3463 722 
L 3463 178 
Q 3153 47 2828 -22 
Q 2503 -91 2169 -91 
Q 1331 -91 842 396 
Q 353 884 353 1716 
Q 353 2575 817 3079 
Q 1281 3584 2069 3584 
Q 2775 3584 3186 3129 
Q 3597 2675 3597 1894 
z
M 3022 2063 
Q 3016 2534 2758 2815 
Q 2500 3097 2075 3097 
Q 1594 3097 1305 2825 
Q 1016 2553 972 2059 
L 3022 2063 
z
M 2466 5119 
L 3088 5119 
L 2070 3944 
L 1591 3944 
L 2466 5119 
z
" id="DejaVuSans-e9" transform="scale(0.015625)"/>
       <path d="M 1984 4856 
Q 1566 4138 1362 3434 
Q 1159 2731 1159 2009 
Q 1159 1288 1364 580 
Q 1569 -128 1984 -844 
L 1484 -844 
Q 1016 -109 783 600 
Q 550 1309 550 2009 
Q 550 2706 781 3412 
Q 1013 4119 1484 4856 
L 1984 4856 
z
" id="DejaVuSans-28" transform="scale(0.015625)"/>
       <path d="M 628 4666 
L 1569 4666 
L 2759 1491 
L 3956 4666 
L 4897 4666 
L 4897 0 
L 4281 0 
L 4281 4097 
L 3078 897 
L 2444 897 
L 1241 4097 
L 1241 0 
L 628 0 
L 628 4666 
z
" id="DejaVuSans-4d" transform="scale(0.015625)"/>
       <path d="M 513 4856 
L 1013 4856 
Q 1481 4119 1714 3412 
Q 1947 2706 1947 2009 
Q 1947 1309 1714 600 
Q 1481 -109 1013 -844 
L 513 -844 
Q 928 -128 1133 580 
Q 1338 1288 1338 2009 
Q 1338 2731 1133 3434 
Q 928 4138 513 4856 
z
" id="DejaVuSans-29" transform="scale(0.015625)"/>
      </defs>
      <use xlink:href="#DejaVuSans-45"/>
      <use x="63.183594" xlink:href="#DejaVuSans-6e"/>
      <use x="126.5625" xlink:href="#DejaVuSans-20"/>
      <use x="158.349609" xlink:href="#DejaVuSans-72"/>
      <use x="197.212891" xlink:href="#DejaVuSans-e9"/>
      <use x="258.736328" xlink:href="#DejaVuSans-61"/>
      <use x="320.015625" xlink:href="#DejaVuSans-6e"/>
      <use x="383.394531" xlink:href="#DejaVuSans-69"/>
      <use x="411.177734" xlink:href="#DejaVuSans-6d"/>
      <use x="508.589844" xlink:href="#DejaVuSans-61"/>
      <use x="569.869141" xlink:href="#DejaVuSans-74"/>
      <use x="609.078125" xlink:href="#DejaVuSans-69"/>
      <use x="636.861328" xlink:href="#DejaVuSans-6f"/>
      <use x="698.042969" xlink:href="#DejaVuSans-6e"/>
      <use x="761.421875" xlink:href="#DejaVuSans-20"/>
      <use x="793.208984" xlink:href="#DejaVuSans-28"/>
      <use x="832.222656" xlink:href="#DejaVuSans-70"/>
      <use x="895.699219" xlink:href="#DejaVuSans-6f"/>
      <use x="956.880859" xlink:href="#DejaVuSans-75"/>
      <use x="1020.259766" xlink:href="#DejaVuSans-72"/>
      <use x="1061.373047" xlink:href="#DejaVuSans-20"/>
      <use x="1093.160156" xlink:href="#DejaVuSans-31"/>
      <use x="1156.783203" xlink:href="#DejaVuSans-30"/>
      <use x="1220.40625" xlink:href="#DejaVuSans-4d"/>
      <use x="1306.685547" xlink:href="#DejaVuSans-29"/>
     </g>
    </g>
    <g id="line2d_15">
     <path d="M 35.925 35.376562 
L 55.925 35.376562 
" style="fill:none;stroke:#e9967a;stroke-linecap:square;stroke-width:3;"/>
    </g>
    <g id="line2d_16"/>
    <g id="text_13">
     <!-- Non-vaccinés -->
     <g transform="translate(63.925 38.876562)scale(0.1 -0.1)">
      <defs>
       <path d="M 628 4666 
L 1478 4666 
L 3547 763 
L 3547 4666 
L 4159 4666 
L 4159 0 
L 3309 0 
L 1241 3903 
L 1241 0 
L 628 0 
L 628 4666 
z
" id="DejaVuSans-4e" transform="scale(0.015625)"/>
       <path d="M 313 2009 
L 1997 2009 
L 1997 1497 
L 313 1497 
L 313 2009 
z
" id="DejaVuSans-2d" transform="scale(0.015625)"/>
       <path d="M 191 3500 
L 800 3500 
L 1894 563 
L 2988 3500 
L 3597 3500 
L 2284 0 
L 1503 0 
L 191 3500 
z
" id="DejaVuSans-76" transform="scale(0.015625)"/>
       <path d="M 3122 3366 
L 3122 2828 
Q 2878 2963 2633 3030 
Q 2388 3097 2138 3097 
Q 1578 3097 1268 2742 
Q 959 2388 959 1747 
Q 959 1106 1268 751 
Q 1578 397 2138 397 
Q 2388 397 2633 464 
Q 2878 531 3122 666 
L 3122 134 
Q 2881 22 2623 -34 
Q 2366 -91 2075 -91 
Q 1284 -91 818 406 
Q 353 903 353 1747 
Q 353 2603 823 3093 
Q 1294 3584 2113 3584 
Q 2378 3584 2631 3529 
Q 2884 3475 3122 3366 
z
" id="DejaVuSans-63" transform="scale(0.015625)"/>
      </defs>
      <use xlink:href="#DejaVuSans-4e"/>
      <use x="74.804688" xlink:href="#DejaVuSans-6f"/>
      <use x="135.986328" xlink:href="#DejaVuSans-6e"/>
      <use x="199.365234" xlink:href="#DejaVuSans-2d"/>
      <use x="232.824219" xlink:href="#DejaVuSans-76"/>
      <use x="292.003906" xlink:href="#DejaVuSans-61"/>
      <use x="353.283203" xlink:href="#DejaVuSans-63"/>
      <use x="408.263672" xlink:href="#DejaVuSans-63"/>
      <use x="463.244141" xlink:href="#DejaVuSans-69"/>
      <use x="491.027344" xlink:href="#DejaVuSans-6e"/>
      <use x="554.40625" xlink:href="#DejaVuSans-e9"/>
      <use x="615.929688" xlink:href="#DejaVuSans-73"/>
     </g>
    </g>
    <g id="line2d_17">
     <path d="M 35.925 50.054687 
L 55.925 50.054687 
" style="fill:none;stroke:#000000;stroke-linecap:square;stroke-width:1.5;"/>
    </g>
    <g id="line2d_18"/>
    <g id="text_14">
     <!-- Somme des primo-doses -->
     <g transform="translate(63.925 53.554687)scale(0.1 -0.1)">
      <defs>
       <path d="M 3425 4513 
L 3425 3897 
Q 3066 4069 2747 4153 
Q 2428 4238 2131 4238 
Q 1616 4238 1336 4038 
Q 1056 3838 1056 3469 
Q 1056 3159 1242 3001 
Q 1428 2844 1947 2747 
L 2328 2669 
Q 3034 2534 3370 2195 
Q 3706 1856 3706 1288 
Q 3706 609 3251 259 
Q 2797 -91 1919 -91 
Q 1588 -91 1214 -16 
Q 841 59 441 206 
L 441 856 
Q 825 641 1194 531 
Q 1563 422 1919 422 
Q 2459 422 2753 634 
Q 3047 847 3047 1241 
Q 3047 1584 2836 1778 
Q 2625 1972 2144 2069 
L 1759 2144 
Q 1053 2284 737 2584 
Q 422 2884 422 3419 
Q 422 4038 858 4394 
Q 1294 4750 2059 4750 
Q 2388 4750 2728 4690 
Q 3069 4631 3425 4513 
z
" id="DejaVuSans-53" transform="scale(0.015625)"/>
       <path d="M 2906 2969 
L 2906 4863 
L 3481 4863 
L 3481 0 
L 2906 0 
L 2906 525 
Q 2725 213 2448 61 
Q 2172 -91 1784 -91 
Q 1150 -91 751 415 
Q 353 922 353 1747 
Q 353 2572 751 3078 
Q 1150 3584 1784 3584 
Q 2172 3584 2448 3432 
Q 2725 3281 2906 2969 
z
M 947 1747 
Q 947 1113 1208 752 
Q 1469 391 1925 391 
Q 2381 391 2643 752 
Q 2906 1113 2906 1747 
Q 2906 2381 2643 2742 
Q 2381 3103 1925 3103 
Q 1469 3103 1208 2742 
Q 947 2381 947 1747 
z
" id="DejaVuSans-64" transform="scale(0.015625)"/>
      </defs>
      <use xlink:href="#DejaVuSans-53"/>
      <use x="63.476562" xlink:href="#DejaVuSans-6f"/>
      <use x="124.658203" xlink:href="#DejaVuSans-6d"/>
      <use x="222.070312" xlink:href="#DejaVuSans-6d"/>
      <use x="319.482422" xlink:href="#DejaVuSans-65"/>
      <use x="381.005859" xlink:href="#DejaVuSans-20"/>
      <use x="412.792969" xlink:href="#DejaVuSans-64"/>
      <use x="476.269531" xlink:href="#DejaVuSans-65"/>
      <use x="537.792969" xlink:href="#DejaVuSans-73"/>
      <use x="589.892578" xlink:href="#DejaVuSans-20"/>
      <use x="621.679688" xlink:href="#DejaVuSans-70"/>
      <use x="685.15625" xlink:href="#DejaVuSans-72"/>
      <use x="726.269531" xlink:href="#DejaVuSans-69"/>
      <use x="754.052734" xlink:href="#DejaVuSans-6d"/>
      <use x="851.464844" xlink:href="#DejaVuSans-6f"/>
      <use x="914.521484" xlink:href="#DejaVuSans-2d"/>
      <use x="950.605469" xlink:href="#DejaVuSans-64"/>
      <use x="1014.082031" xlink:href="#DejaVuSans-6f"/>
      <use x="1075.263672" xlink:href="#DejaVuSans-73"/>
      <use x="1127.363281" xlink:href="#DejaVuSans-65"/>
      <use x="1188.886719" xlink:href="#DejaVuSans-73"/>
     </g>
    </g>
    <g id="line2d_19">
     <path d="M 35.925 65.132812 
L 55.925 65.132812 
" style="fill:none;stroke:#b22222;stroke-linecap:square;"/>
    </g>
    <g id="line2d_20"/>
    <g id="text_15">
     <!-- Vaccination complète -->
     <g transform="translate(63.925 68.632812)scale(0.1 -0.1)">
      <defs>
       <path d="M 1831 0 
L 50 4666 
L 709 4666 
L 2188 738 
L 3669 4666 
L 4325 4666 
L 2547 0 
L 1831 0 
z
" id="DejaVuSans-56" transform="scale(0.015625)"/>
       <path d="M 3597 1894 
L 3597 1613 
L 953 1613 
Q 991 1019 1311 708 
Q 1631 397 2203 397 
Q 2534 397 2845 478 
Q 3156 559 3463 722 
L 3463 178 
Q 3153 47 2828 -22 
Q 2503 -91 2169 -91 
Q 1331 -91 842 396 
Q 353 884 353 1716 
Q 353 2575 817 3079 
Q 1281 3584 2069 3584 
Q 2775 3584 3186 3129 
Q 3597 2675 3597 1894 
z
M 3022 2063 
Q 3016 2534 2758 2815 
Q 2500 3097 2075 3097 
Q 1594 3097 1305 2825 
Q 1016 2553 972 2059 
L 3022 2063 
z
M 1579 5119 
L 2460 3950 
L 1982 3950 
L 963 5119 
L 1579 5119 
z
" id="DejaVuSans-e8" transform="scale(0.015625)"/>
      </defs>
      <use xlink:href="#DejaVuSans-56"/>
      <use x="60.658203" xlink:href="#DejaVuSans-61"/>
      <use x="121.9375" xlink:href="#DejaVuSans-63"/>
      <use x="176.917969" xlink:href="#DejaVuSans-63"/>
      <use x="231.898438" xlink:href="#DejaVuSans-69"/>
      <use x="259.681641" xlink:href="#DejaVuSans-6e"/>
      <use x="323.060547" xlink:href="#DejaVuSans-61"/>
      <use x="384.339844" xlink:href="#DejaVuSans-74"/>
      <use x="423.548828" xlink:href="#DejaVuSans-69"/>
      <use x="451.332031" xlink:href="#DejaVuSans-6f"/>
      <use x="512.513672" xlink:href="#DejaVuSans-6e"/>
      <use x="575.892578" xlink:href="#DejaVuSans-20"/>
      <use x="607.679688" xlink:href="#DejaVuSans-63"/>
      <use x="662.660156" xlink:href="#DejaVuSans-6f"/>
      <use x="723.841797" xlink:href="#DejaVuSans-6d"/>
      <use x="821.253906" xlink:href="#DejaVuSans-70"/>
      <use x="884.730469" xlink:href="#DejaVuSans-6c"/>
      <use x="912.513672" xlink:href="#DejaVuSans-e8"/>
      <use x="974.037109" xlink:href="#DejaVuSans-74"/>
      <use x="1013.246094" xlink:href="#DejaVuSans-65"/>
     </g>
    </g>
   </g>
  </g>
 </g>
 <defs>
  <clipPath id="pa59b8366eb">
   <rect height="217.44" width="334.8" x="26.925" y="7.2"/>
  </clipPath>
 </defs>
</svg>
