<?xml version="1.0" encoding="utf-8" standalone="no"?>
<!DOCTYPE svg PUBLIC "-//W3C//DTD SVG 1.1//EN"
  "http://www.w3.org/Graphics/SVG/1.1/DTD/svg11.dtd">
<svg height="297.809391pt" version="1.1" viewBox="0 0 375.2875 297.809391" width="375.2875pt" xmlns="http://www.w3.org/2000/svg" xmlns:xlink="http://www.w3.org/1999/xlink">
 <metadata>
  <rdf:RDF xmlns:cc="http://creativecommons.org/ns#" xmlns:dc="http://purl.org/dc/elements/1.1/" xmlns:rdf="http://www.w3.org/1999/02/22-rdf-syntax-ns#">
   <cc:Work>
    <dc:type rdf:resource="http://purl.org/dc/dcmitype/StillImage"/>
    <dc:date>2021-09-08T23:43:20.561213</dc:date>
    <dc:format>image/svg+xml</dc:format>
    <dc:creator>
     <cc:Agent>
      <dc:title>Matplotlib v3.4.1, https://matplotlib.org/</dc:title>
     </cc:Agent>
    </dc:creator>
   </cc:Work>
  </rdf:RDF>
 </metadata>
 <defs>
  <style type="text/css">*{stroke-linecap:butt;stroke-linejoin:round;}</style>
 </defs>
 <g id="figure_1">
  <g id="patch_1">
   <path d="M 0 297.809391 
L 375.2875 297.809391 
L 375.2875 0 
L 0 0 
z
" style="fill:#ffffff;"/>
  </g>
  <g id="axes_1">
   <g id="patch_2">
    <path d="M 33.2875 224.64 
L 368.0875 224.64 
L 368.0875 7.2 
L 33.2875 7.2 
z
" style="fill:#ffffff;"/>
   </g>
   <g id="matplotlib.axis_1">
    <g id="xtick_1">
     <g id="line2d_1">
      <defs>
       <path d="M 0 0 
L 0 3.5 
" id="m9afb5819df" style="stroke:#000000;stroke-width:0.8;"/>
      </defs>
      <g>
       <use style="stroke:#000000;stroke-width:0.8;" x="91.513587" xlink:href="#m9afb5819df" y="224.64"/>
      </g>
     </g>
     <g id="text_1">
      <!-- 1er juillet -->
      <g transform="translate(63.420456 270.478945)rotate(-45)scale(0.1 -0.1)">
       <defs>
        <path d="M 794 531 
L 1825 531 
L 1825 4091 
L 703 3866 
L 703 4441 
L 1819 4666 
L 2450 4666 
L 2450 531 
L 3481 531 
L 3481 0 
L 794 0 
L 794 531 
z
" id="DejaVuSans-31" transform="scale(0.015625)"/>
        <path d="M 3597 1894 
L 3597 1613 
L 953 1613 
Q 991 1019 1311 708 
Q 1631 397 2203 397 
Q 2534 397 2845 478 
Q 3156 559 3463 722 
L 3463 178 
Q 3153 47 2828 -22 
Q 2503 -91 2169 -91 
Q 1331 -91 842 396 
Q 353 884 353 1716 
Q 353 2575 817 3079 
Q 1281 3584 2069 3584 
Q 2775 3584 3186 3129 
Q 3597 2675 3597 1894 
z
M 3022 2063 
Q 3016 2534 2758 2815 
Q 2500 3097 2075 3097 
Q 1594 3097 1305 2825 
Q 1016 2553 972 2059 
L 3022 2063 
z
" id="DejaVuSans-65" transform="scale(0.015625)"/>
        <path d="M 2631 2963 
Q 2534 3019 2420 3045 
Q 2306 3072 2169 3072 
Q 1681 3072 1420 2755 
Q 1159 2438 1159 1844 
L 1159 0 
L 581 0 
L 581 3500 
L 1159 3500 
L 1159 2956 
Q 1341 3275 1631 3429 
Q 1922 3584 2338 3584 
Q 2397 3584 2469 3576 
Q 2541 3569 2628 3553 
L 2631 2963 
z
" id="DejaVuSans-72" transform="scale(0.015625)"/>
        <path id="DejaVuSans-20" transform="scale(0.015625)"/>
        <path d="M 603 3500 
L 1178 3500 
L 1178 -63 
Q 1178 -731 923 -1031 
Q 669 -1331 103 -1331 
L -116 -1331 
L -116 -844 
L 38 -844 
Q 366 -844 484 -692 
Q 603 -541 603 -63 
L 603 3500 
z
M 603 4863 
L 1178 4863 
L 1178 4134 
L 603 4134 
L 603 4863 
z
" id="DejaVuSans-6a" transform="scale(0.015625)"/>
        <path d="M 544 1381 
L 544 3500 
L 1119 3500 
L 1119 1403 
Q 1119 906 1312 657 
Q 1506 409 1894 409 
Q 2359 409 2629 706 
Q 2900 1003 2900 1516 
L 2900 3500 
L 3475 3500 
L 3475 0 
L 2900 0 
L 2900 538 
Q 2691 219 2414 64 
Q 2138 -91 1772 -91 
Q 1169 -91 856 284 
Q 544 659 544 1381 
z
M 1991 3584 
L 1991 3584 
z
" id="DejaVuSans-75" transform="scale(0.015625)"/>
        <path d="M 603 3500 
L 1178 3500 
L 1178 0 
L 603 0 
L 603 3500 
z
M 603 4863 
L 1178 4863 
L 1178 4134 
L 603 4134 
L 603 4863 
z
" id="DejaVuSans-69" transform="scale(0.015625)"/>
        <path d="M 603 4863 
L 1178 4863 
L 1178 0 
L 603 0 
L 603 4863 
z
" id="DejaVuSans-6c" transform="scale(0.015625)"/>
        <path d="M 1172 4494 
L 1172 3500 
L 2356 3500 
L 2356 3053 
L 1172 3053 
L 1172 1153 
Q 1172 725 1289 603 
Q 1406 481 1766 481 
L 2356 481 
L 2356 0 
L 1766 0 
Q 1100 0 847 248 
Q 594 497 594 1153 
L 594 3053 
L 172 3053 
L 172 3500 
L 594 3500 
L 594 4494 
L 1172 4494 
z
" id="DejaVuSans-74" transform="scale(0.015625)"/>
       </defs>
       <use xlink:href="#DejaVuSans-31"/>
       <use x="63.623047" xlink:href="#DejaVuSans-65"/>
       <use x="125.146484" xlink:href="#DejaVuSans-72"/>
       <use x="166.259766" xlink:href="#DejaVuSans-20"/>
       <use x="198.046875" xlink:href="#DejaVuSans-6a"/>
       <use x="225.830078" xlink:href="#DejaVuSans-75"/>
       <use x="289.208984" xlink:href="#DejaVuSans-69"/>
       <use x="316.992188" xlink:href="#DejaVuSans-6c"/>
       <use x="344.775391" xlink:href="#DejaVuSans-6c"/>
       <use x="372.558594" xlink:href="#DejaVuSans-65"/>
       <use x="434.082031" xlink:href="#DejaVuSans-74"/>
      </g>
     </g>
    </g>
    <g id="xtick_2">
     <g id="line2d_2">
      <g>
       <use style="stroke:#000000;stroke-width:0.8;" x="204.32663" xlink:href="#m9afb5819df" y="224.64"/>
      </g>
     </g>
     <g id="text_2">
      <!-- 1er août -->
      <g transform="translate(179.782291 266.930153)rotate(-45)scale(0.1 -0.1)">
       <defs>
        <path d="M 2194 1759 
Q 1497 1759 1228 1600 
Q 959 1441 959 1056 
Q 959 750 1161 570 
Q 1363 391 1709 391 
Q 2188 391 2477 730 
Q 2766 1069 2766 1631 
L 2766 1759 
L 2194 1759 
z
M 3341 1997 
L 3341 0 
L 2766 0 
L 2766 531 
Q 2569 213 2275 61 
Q 1981 -91 1556 -91 
Q 1019 -91 701 211 
Q 384 513 384 1019 
Q 384 1609 779 1909 
Q 1175 2209 1959 2209 
L 2766 2209 
L 2766 2266 
Q 2766 2663 2505 2880 
Q 2244 3097 1772 3097 
Q 1472 3097 1187 3025 
Q 903 2953 641 2809 
L 641 3341 
Q 956 3463 1253 3523 
Q 1550 3584 1831 3584 
Q 2591 3584 2966 3190 
Q 3341 2797 3341 1997 
z
" id="DejaVuSans-61" transform="scale(0.015625)"/>
        <path d="M 1959 3097 
Q 1497 3097 1228 2736 
Q 959 2375 959 1747 
Q 959 1119 1226 758 
Q 1494 397 1959 397 
Q 2419 397 2687 759 
Q 2956 1122 2956 1747 
Q 2956 2369 2687 2733 
Q 2419 3097 1959 3097 
z
M 1959 3584 
Q 2709 3584 3137 3096 
Q 3566 2609 3566 1747 
Q 3566 888 3137 398 
Q 2709 -91 1959 -91 
Q 1206 -91 779 398 
Q 353 888 353 1747 
Q 353 2609 779 3096 
Q 1206 3584 1959 3584 
z
" id="DejaVuSans-6f" transform="scale(0.015625)"/>
        <path d="M 544 1381 
L 544 3500 
L 1119 3500 
L 1119 1403 
Q 1119 906 1312 657 
Q 1506 409 1894 409 
Q 2359 409 2629 706 
Q 2900 1003 2900 1516 
L 2900 3500 
L 3475 3500 
L 3475 0 
L 2900 0 
L 2900 538 
Q 2691 219 2414 64 
Q 2138 -91 1772 -91 
Q 1169 -91 856 284 
Q 544 659 544 1381 
z
M 1991 3584 
L 1991 3584 
z
M 1753 5119 
L 2215 5119 
L 2981 3944 
L 2547 3944 
L 1984 4709 
L 1422 3944 
L 987 3944 
L 1753 5119 
z
" id="DejaVuSans-fb" transform="scale(0.015625)"/>
       </defs>
       <use xlink:href="#DejaVuSans-31"/>
       <use x="63.623047" xlink:href="#DejaVuSans-65"/>
       <use x="125.146484" xlink:href="#DejaVuSans-72"/>
       <use x="166.259766" xlink:href="#DejaVuSans-20"/>
       <use x="198.046875" xlink:href="#DejaVuSans-61"/>
       <use x="259.326172" xlink:href="#DejaVuSans-6f"/>
       <use x="320.507812" xlink:href="#DejaVuSans-fb"/>
       <use x="383.886719" xlink:href="#DejaVuSans-74"/>
      </g>
     </g>
    </g>
    <g id="xtick_3">
     <g id="line2d_3">
      <g>
       <use style="stroke:#000000;stroke-width:0.8;" x="317.139674" xlink:href="#m9afb5819df" y="224.64"/>
      </g>
     </g>
     <g id="text_3">
      <!-- 1er septembre -->
      <g transform="translate(270.386657 289.13883)rotate(-45)scale(0.1 -0.1)">
       <defs>
        <path d="M 2834 3397 
L 2834 2853 
Q 2591 2978 2328 3040 
Q 2066 3103 1784 3103 
Q 1356 3103 1142 2972 
Q 928 2841 928 2578 
Q 928 2378 1081 2264 
Q 1234 2150 1697 2047 
L 1894 2003 
Q 2506 1872 2764 1633 
Q 3022 1394 3022 966 
Q 3022 478 2636 193 
Q 2250 -91 1575 -91 
Q 1294 -91 989 -36 
Q 684 19 347 128 
L 347 722 
Q 666 556 975 473 
Q 1284 391 1588 391 
Q 1994 391 2212 530 
Q 2431 669 2431 922 
Q 2431 1156 2273 1281 
Q 2116 1406 1581 1522 
L 1381 1569 
Q 847 1681 609 1914 
Q 372 2147 372 2553 
Q 372 3047 722 3315 
Q 1072 3584 1716 3584 
Q 2034 3584 2315 3537 
Q 2597 3491 2834 3397 
z
" id="DejaVuSans-73" transform="scale(0.015625)"/>
        <path d="M 1159 525 
L 1159 -1331 
L 581 -1331 
L 581 3500 
L 1159 3500 
L 1159 2969 
Q 1341 3281 1617 3432 
Q 1894 3584 2278 3584 
Q 2916 3584 3314 3078 
Q 3713 2572 3713 1747 
Q 3713 922 3314 415 
Q 2916 -91 2278 -91 
Q 1894 -91 1617 61 
Q 1341 213 1159 525 
z
M 3116 1747 
Q 3116 2381 2855 2742 
Q 2594 3103 2138 3103 
Q 1681 3103 1420 2742 
Q 1159 2381 1159 1747 
Q 1159 1113 1420 752 
Q 1681 391 2138 391 
Q 2594 391 2855 752 
Q 3116 1113 3116 1747 
z
" id="DejaVuSans-70" transform="scale(0.015625)"/>
        <path d="M 3328 2828 
Q 3544 3216 3844 3400 
Q 4144 3584 4550 3584 
Q 5097 3584 5394 3201 
Q 5691 2819 5691 2113 
L 5691 0 
L 5113 0 
L 5113 2094 
Q 5113 2597 4934 2840 
Q 4756 3084 4391 3084 
Q 3944 3084 3684 2787 
Q 3425 2491 3425 1978 
L 3425 0 
L 2847 0 
L 2847 2094 
Q 2847 2600 2669 2842 
Q 2491 3084 2119 3084 
Q 1678 3084 1418 2786 
Q 1159 2488 1159 1978 
L 1159 0 
L 581 0 
L 581 3500 
L 1159 3500 
L 1159 2956 
Q 1356 3278 1631 3431 
Q 1906 3584 2284 3584 
Q 2666 3584 2933 3390 
Q 3200 3197 3328 2828 
z
" id="DejaVuSans-6d" transform="scale(0.015625)"/>
        <path d="M 3116 1747 
Q 3116 2381 2855 2742 
Q 2594 3103 2138 3103 
Q 1681 3103 1420 2742 
Q 1159 2381 1159 1747 
Q 1159 1113 1420 752 
Q 1681 391 2138 391 
Q 2594 391 2855 752 
Q 3116 1113 3116 1747 
z
M 1159 2969 
Q 1341 3281 1617 3432 
Q 1894 3584 2278 3584 
Q 2916 3584 3314 3078 
Q 3713 2572 3713 1747 
Q 3713 922 3314 415 
Q 2916 -91 2278 -91 
Q 1894 -91 1617 61 
Q 1341 213 1159 525 
L 1159 0 
L 581 0 
L 581 4863 
L 1159 4863 
L 1159 2969 
z
" id="DejaVuSans-62" transform="scale(0.015625)"/>
       </defs>
       <use xlink:href="#DejaVuSans-31"/>
       <use x="63.623047" xlink:href="#DejaVuSans-65"/>
       <use x="125.146484" xlink:href="#DejaVuSans-72"/>
       <use x="166.259766" xlink:href="#DejaVuSans-20"/>
       <use x="198.046875" xlink:href="#DejaVuSans-73"/>
       <use x="250.146484" xlink:href="#DejaVuSans-65"/>
       <use x="311.669922" xlink:href="#DejaVuSans-70"/>
       <use x="375.146484" xlink:href="#DejaVuSans-74"/>
       <use x="414.355469" xlink:href="#DejaVuSans-65"/>
       <use x="475.878906" xlink:href="#DejaVuSans-6d"/>
       <use x="573.291016" xlink:href="#DejaVuSans-62"/>
       <use x="636.767578" xlink:href="#DejaVuSans-72"/>
       <use x="675.630859" xlink:href="#DejaVuSans-65"/>
      </g>
     </g>
    </g>
   </g>
   <g id="matplotlib.axis_2">
    <g id="ytick_1">
     <g id="line2d_4">
      <defs>
       <path d="M 0 0 
L -3.5 0 
" id="m8741e26c88" style="stroke:#000000;stroke-width:0.8;"/>
      </defs>
      <g>
       <use style="stroke:#000000;stroke-width:0.8;" x="33.2875" xlink:href="#m8741e26c88" y="215.204433"/>
      </g>
     </g>
     <g id="text_4">
      <!-- 0 -->
      <g transform="translate(19.925 219.003652)scale(0.1 -0.1)">
       <defs>
        <path d="M 2034 4250 
Q 1547 4250 1301 3770 
Q 1056 3291 1056 2328 
Q 1056 1369 1301 889 
Q 1547 409 2034 409 
Q 2525 409 2770 889 
Q 3016 1369 3016 2328 
Q 3016 3291 2770 3770 
Q 2525 4250 2034 4250 
z
M 2034 4750 
Q 2819 4750 3233 4129 
Q 3647 3509 3647 2328 
Q 3647 1150 3233 529 
Q 2819 -91 2034 -91 
Q 1250 -91 836 529 
Q 422 1150 422 2328 
Q 422 3509 836 4129 
Q 1250 4750 2034 4750 
z
" id="DejaVuSans-30" transform="scale(0.015625)"/>
       </defs>
       <use xlink:href="#DejaVuSans-30"/>
      </g>
     </g>
    </g>
    <g id="ytick_2">
     <g id="line2d_5">
      <g>
       <use style="stroke:#000000;stroke-width:0.8;" x="33.2875" xlink:href="#m8741e26c88" y="178.346726"/>
      </g>
     </g>
     <g id="text_5">
      <!-- 50 -->
      <g transform="translate(13.5625 182.145945)scale(0.1 -0.1)">
       <defs>
        <path d="M 691 4666 
L 3169 4666 
L 3169 4134 
L 1269 4134 
L 1269 2991 
Q 1406 3038 1543 3061 
Q 1681 3084 1819 3084 
Q 2600 3084 3056 2656 
Q 3513 2228 3513 1497 
Q 3513 744 3044 326 
Q 2575 -91 1722 -91 
Q 1428 -91 1123 -41 
Q 819 9 494 109 
L 494 744 
Q 775 591 1075 516 
Q 1375 441 1709 441 
Q 2250 441 2565 725 
Q 2881 1009 2881 1497 
Q 2881 1984 2565 2268 
Q 2250 2553 1709 2553 
Q 1456 2553 1204 2497 
Q 953 2441 691 2322 
L 691 4666 
z
" id="DejaVuSans-35" transform="scale(0.015625)"/>
       </defs>
       <use xlink:href="#DejaVuSans-35"/>
       <use x="63.623047" xlink:href="#DejaVuSans-30"/>
      </g>
     </g>
    </g>
    <g id="ytick_3">
     <g id="line2d_6">
      <g>
       <use style="stroke:#000000;stroke-width:0.8;" x="33.2875" xlink:href="#m8741e26c88" y="141.489019"/>
      </g>
     </g>
     <g id="text_6">
      <!-- 100 -->
      <g transform="translate(7.2 145.288237)scale(0.1 -0.1)">
       <use xlink:href="#DejaVuSans-31"/>
       <use x="63.623047" xlink:href="#DejaVuSans-30"/>
       <use x="127.246094" xlink:href="#DejaVuSans-30"/>
      </g>
     </g>
    </g>
    <g id="ytick_4">
     <g id="line2d_7">
      <g>
       <use style="stroke:#000000;stroke-width:0.8;" x="33.2875" xlink:href="#m8741e26c88" y="104.631311"/>
      </g>
     </g>
     <g id="text_7">
      <!-- 150 -->
      <g transform="translate(7.2 108.43053)scale(0.1 -0.1)">
       <use xlink:href="#DejaVuSans-31"/>
       <use x="63.623047" xlink:href="#DejaVuSans-35"/>
       <use x="127.246094" xlink:href="#DejaVuSans-30"/>
      </g>
     </g>
    </g>
    <g id="ytick_5">
     <g id="line2d_8">
      <g>
       <use style="stroke:#000000;stroke-width:0.8;" x="33.2875" xlink:href="#m8741e26c88" y="67.773604"/>
      </g>
     </g>
     <g id="text_8">
      <!-- 200 -->
      <g transform="translate(7.2 71.572823)scale(0.1 -0.1)">
       <defs>
        <path d="M 1228 531 
L 3431 531 
L 3431 0 
L 469 0 
L 469 531 
Q 828 903 1448 1529 
Q 2069 2156 2228 2338 
Q 2531 2678 2651 2914 
Q 2772 3150 2772 3378 
Q 2772 3750 2511 3984 
Q 2250 4219 1831 4219 
Q 1534 4219 1204 4116 
Q 875 4013 500 3803 
L 500 4441 
Q 881 4594 1212 4672 
Q 1544 4750 1819 4750 
Q 2544 4750 2975 4387 
Q 3406 4025 3406 3419 
Q 3406 3131 3298 2873 
Q 3191 2616 2906 2266 
Q 2828 2175 2409 1742 
Q 1991 1309 1228 531 
z
" id="DejaVuSans-32" transform="scale(0.015625)"/>
       </defs>
       <use xlink:href="#DejaVuSans-32"/>
       <use x="63.623047" xlink:href="#DejaVuSans-30"/>
       <use x="127.246094" xlink:href="#DejaVuSans-30"/>
      </g>
     </g>
    </g>
    <g id="ytick_6">
     <g id="line2d_9">
      <g>
       <use style="stroke:#000000;stroke-width:0.8;" x="33.2875" xlink:href="#m8741e26c88" y="30.915896"/>
      </g>
     </g>
     <g id="text_9">
      <!-- 250 -->
      <g transform="translate(7.2 34.715115)scale(0.1 -0.1)">
       <use xlink:href="#DejaVuSans-32"/>
       <use x="63.623047" xlink:href="#DejaVuSans-35"/>
       <use x="127.246094" xlink:href="#DejaVuSans-30"/>
      </g>
     </g>
    </g>
   </g>
   <g id="line2d_10">
    <path clip-path="url(#p5b28ec8f67)" d="M -1 185.49789 
L 0.535326 187.928309 
L 4.174457 167.149646 
L 7.813587 174.414459 
L 11.452717 176.369275 
L 15.091848 181.272681 
L 18.730978 176.22286 
L 22.370109 185.696247 
L 26.009239 191.631847 
L 29.64837 184.010717 
L 33.2875 185.807806 
L 36.92663 189.006984 
L 40.565761 191.083278 
L 44.204891 192.221842 
L 47.844022 195.440833 
L 51.483152 197.38717 
L 55.122283 194.4506 
L 58.761413 192.448275 
L 62.400543 196.96583 
L 66.039674 194.944937 
L 69.678804 197.474285 
L 73.317935 199.251246 
L 76.957065 201.742546 
L 80.596196 192.57355 
L 84.235326 194.132624 
L 87.874457 196.991476 
L 91.513587 200.100831 
L 95.152717 196.743475 
L 98.791848 203.423796 
L 102.430978 204.497208 
L 106.070109 194.571006 
L 109.709239 196.666706 
L 113.34837 196.776708 
L 116.9875 197.100556 
L 120.62663 197.878947 
L 124.265761 200.064543 
L 127.904891 199.585989 
L 131.544022 193.365378 
L 135.183152 187.971963 
L 138.822283 194.936146 
L 142.461413 188.52859 
L 146.100543 183.667229 
L 149.739674 182.346961 
L 153.378804 187.458111 
L 157.017935 171.474429 
L 160.657065 174.414214 
L 164.296196 165.301706 
L 167.935326 164.741036 
L 171.574457 156.497956 
L 175.213587 157.974258 
L 178.852717 148.564535 
L 182.491848 136.631553 
L 186.130978 130.539776 
L 189.770109 131.96094 
L 193.409239 110.522476 
L 197.04837 109.95232 
L 200.6875 116.657203 
L 204.32663 126.474468 
L 207.965761 89.026109 
L 211.604891 69.351466 
L 215.244022 77.287488 
L 218.883152 75.549324 
L 222.522283 83.588101 
L 226.161413 87.432468 
L 229.800543 109.803185 
L 233.439674 56.851738 
L 237.078804 36.540389 
L 240.717935 34.039612 
L 244.357065 31.27273 
L 247.996196 18.849706 
L 251.635326 55.907728 
L 255.274457 67.426205 
L 258.913587 23.746239 
L 262.552717 22.840271 
L 266.191848 17.083636 
L 269.830978 38.883839 
L 273.470109 32.741876 
L 277.109239 54.803932 
L 280.74837 55.572192 
" style="fill:none;stroke:#3cb371;stroke-linecap:square;stroke-width:3;"/>
   </g>
   <g id="line2d_11">
    <path clip-path="url(#p5b28ec8f67)" d="M -1 208.173705 
L 0.535326 210.275335 
L 4.174457 205.535477 
L 7.813587 201.836899 
L 11.452717 207.181684 
L 15.091848 205.88093 
L 18.730978 211.045951 
L 22.370109 209.243378 
L 26.009239 210.643618 
L 29.64837 205.691979 
L 33.2875 208.001897 
L 36.92663 208.942357 
L 40.565761 208.977237 
L 44.204891 210.760777 
L 47.844022 209.890581 
L 51.483152 211.671438 
L 55.122283 209.442062 
L 58.761413 210.761282 
L 62.400543 208.091699 
L 66.039674 212.089747 
L 69.678804 210.729485 
L 73.317935 214.756364 
L 76.957065 212.962221 
L 80.596196 213.389166 
L 84.235326 211.527038 
L 87.874457 211.951758 
L 91.513587 212.383283 
L 95.152717 213.769428 
L 98.791848 213.271663 
L 102.430978 214.234426 
L 106.070109 213.227915 
L 109.709239 213.18325 
L 113.34837 212.11336 
L 116.9875 212.062911 
L 120.62663 211.446871 
L 124.265761 211.373687 
L 127.904891 213.549457 
L 131.544022 211.248928 
L 135.183152 208.815055 
L 138.822283 214.013519 
L 142.461413 212.768621 
L 146.100543 210.82093 
L 149.739674 211.366733 
L 153.378804 210.69164 
L 157.017935 208.597191 
L 160.657065 209.13717 
L 164.296196 207.585271 
L 167.935326 204.695073 
L 171.574457 202.375467 
L 175.213587 206.559061 
L 178.852717 207.271145 
L 182.491848 201.196663 
L 186.130978 196.424856 
L 189.770109 191.644275 
L 193.409239 198.090706 
L 197.04837 197.160082 
L 200.6875 197.801296 
L 204.32663 199.313378 
L 207.965761 191.47454 
L 211.604891 191.367115 
L 215.244022 198.330721 
L 218.883152 183.094477 
L 222.522283 186.030086 
L 226.161413 192.864351 
L 229.800543 192.891437 
L 233.439674 182.719435 
L 237.078804 186.590957 
L 240.717935 188.181505 
L 244.357065 193.59256 
L 247.996196 188.867991 
L 251.635326 191.122009 
L 255.274457 188.022695 
L 258.913587 192.586723 
L 262.552717 176.122176 
L 266.191848 185.477239 
L 269.830978 182.995229 
L 273.470109 197.735024 
L 277.109239 188.767437 
L 280.74837 193.479304 
" style="fill:none;stroke:#000000;stroke-linecap:square;stroke-width:1.5;"/>
   </g>
   <g id="line2d_12">
    <path clip-path="url(#p5b28ec8f67)" d="M -1 207.029883 
L 0.535326 207.038508 
L 4.174457 199.642865 
L 7.813587 203.93906 
L 11.452717 202.87124 
L 15.091848 206.323929 
L 18.730978 204.700847 
L 22.370109 211.552297 
L 26.009239 212.172096 
L 29.64837 205.080276 
L 33.2875 210.548221 
L 36.92663 206.65937 
L 40.565761 206.856223 
L 44.204891 209.788946 
L 47.844022 209.343381 
L 51.483152 209.898635 
L 55.122283 207.413436 
L 58.761413 209.118789 
L 62.400543 209.24912 
L 66.039674 208.892523 
L 69.678804 210.950113 
L 73.317935 211.946376 
L 76.957065 210.575126 
L 80.596196 208.877233 
L 84.235326 210.800273 
L 87.874457 210.4736 
L 91.513587 212.686394 
L 95.152717 209.080379 
L 98.791848 212.394196 
L 102.430978 210.815083 
L 106.070109 212.475153 
L 109.709239 211.407803 
L 113.34837 212.240479 
L 116.9875 211.943767 
L 120.62663 208.154792 
L 124.265761 211.400229 
L 127.904891 210.74273 
L 131.544022 212.518764 
L 135.183152 208.653205 
L 138.822283 210.721728 
L 142.461413 208.623577 
L 146.100543 207.857566 
L 149.739674 210.987553 
L 153.378804 211.312558 
L 157.017935 209.910717 
L 160.657065 209.150294 
L 164.296196 205.862386 
L 167.935326 207.694325 
L 171.574457 207.575166 
L 175.213587 210.903237 
L 178.852717 206.639297 
L 182.491848 203.901435 
L 186.130978 195.100592 
L 189.770109 201.122973 
L 193.409239 201.382577 
L 197.04837 203.851461 
L 200.6875 202.029041 
L 204.32663 207.670792 
L 207.965761 199.401347 
L 211.604891 197.769104 
L 215.244022 198.933267 
L 218.883152 195.036704 
L 222.522283 192.858359 
L 226.161413 197.542676 
L 229.800543 201.606477 
L 233.439674 191.174263 
L 237.078804 194.062547 
L 240.717935 194.499216 
L 244.357065 196.205409 
L 247.996196 196.836278 
L 251.635326 196.540014 
L 255.274457 199.297151 
L 258.913587 193.406728 
L 262.552717 192.571539 
L 266.191848 193.359121 
L 269.830978 195.767954 
L 273.470109 196.149876 
L 277.109239 202.444531 
L 280.74837 198.09373 
" style="fill:none;stroke:#b22222;stroke-linecap:square;"/>
   </g>
   <g id="patch_3">
    <path d="M 33.2875 224.64 
L 33.2875 7.2 
" style="fill:none;stroke:#000000;stroke-linecap:square;stroke-linejoin:miter;stroke-width:0.8;"/>
   </g>
   <g id="patch_4">
    <path d="M 368.0875 224.64 
L 368.0875 7.2 
" style="fill:none;stroke:#000000;stroke-linecap:square;stroke-linejoin:miter;stroke-width:0.8;"/>
   </g>
   <g id="patch_5">
    <path d="M 33.2875 224.64 
L 368.0875 224.64 
" style="fill:none;stroke:#000000;stroke-linecap:square;stroke-linejoin:miter;stroke-width:0.8;"/>
   </g>
   <g id="patch_6">
    <path d="M 33.2875 7.2 
L 368.0875 7.2 
" style="fill:none;stroke:#000000;stroke-linecap:square;stroke-linejoin:miter;stroke-width:0.8;"/>
   </g>
   <g id="legend_1">
    <g id="patch_7">
     <path d="M 40.2875 74.7125 
L 196.3875 74.7125 
Q 198.3875 74.7125 198.3875 72.7125 
L 198.3875 14.2 
Q 198.3875 12.2 196.3875 12.2 
L 40.2875 12.2 
Q 38.2875 12.2 38.2875 14.2 
L 38.2875 72.7125 
Q 38.2875 74.7125 40.2875 74.7125 
z
" style="fill:#ffffff;opacity:0.8;stroke:#cccccc;stroke-linejoin:miter;"/>
    </g>
    <g id="text_10">
     <!-- Hospitalisés (pour 10M) -->
     <g transform="translate(59.047656 24.198437)scale(0.1 -0.1)">
      <defs>
       <path d="M 628 4666 
L 1259 4666 
L 1259 2753 
L 3553 2753 
L 3553 4666 
L 4184 4666 
L 4184 0 
L 3553 0 
L 3553 2222 
L 1259 2222 
L 1259 0 
L 628 0 
L 628 4666 
z
" id="DejaVuSans-48" transform="scale(0.015625)"/>
       <path d="M 3597 1894 
L 3597 1613 
L 953 1613 
Q 991 1019 1311 708 
Q 1631 397 2203 397 
Q 2534 397 2845 478 
Q 3156 559 3463 722 
L 3463 178 
Q 3153 47 2828 -22 
Q 2503 -91 2169 -91 
Q 1331 -91 842 396 
Q 353 884 353 1716 
Q 353 2575 817 3079 
Q 1281 3584 2069 3584 
Q 2775 3584 3186 3129 
Q 3597 2675 3597 1894 
z
M 3022 2063 
Q 3016 2534 2758 2815 
Q 2500 3097 2075 3097 
Q 1594 3097 1305 2825 
Q 1016 2553 972 2059 
L 3022 2063 
z
M 2466 5119 
L 3088 5119 
L 2070 3944 
L 1591 3944 
L 2466 5119 
z
" id="DejaVuSans-e9" transform="scale(0.015625)"/>
       <path d="M 1984 4856 
Q 1566 4138 1362 3434 
Q 1159 2731 1159 2009 
Q 1159 1288 1364 580 
Q 1569 -128 1984 -844 
L 1484 -844 
Q 1016 -109 783 600 
Q 550 1309 550 2009 
Q 550 2706 781 3412 
Q 1013 4119 1484 4856 
L 1984 4856 
z
" id="DejaVuSans-28" transform="scale(0.015625)"/>
       <path d="M 628 4666 
L 1569 4666 
L 2759 1491 
L 3956 4666 
L 4897 4666 
L 4897 0 
L 4281 0 
L 4281 4097 
L 3078 897 
L 2444 897 
L 1241 4097 
L 1241 0 
L 628 0 
L 628 4666 
z
" id="DejaVuSans-4d" transform="scale(0.015625)"/>
       <path d="M 513 4856 
L 1013 4856 
Q 1481 4119 1714 3412 
Q 1947 2706 1947 2009 
Q 1947 1309 1714 600 
Q 1481 -109 1013 -844 
L 513 -844 
Q 928 -128 1133 580 
Q 1338 1288 1338 2009 
Q 1338 2731 1133 3434 
Q 928 4138 513 4856 
z
" id="DejaVuSans-29" transform="scale(0.015625)"/>
      </defs>
      <use xlink:href="#DejaVuSans-48"/>
      <use x="75.195312" xlink:href="#DejaVuSans-6f"/>
      <use x="136.376953" xlink:href="#DejaVuSans-73"/>
      <use x="188.476562" xlink:href="#DejaVuSans-70"/>
      <use x="251.953125" xlink:href="#DejaVuSans-69"/>
      <use x="279.736328" xlink:href="#DejaVuSans-74"/>
      <use x="318.945312" xlink:href="#DejaVuSans-61"/>
      <use x="380.224609" xlink:href="#DejaVuSans-6c"/>
      <use x="408.007812" xlink:href="#DejaVuSans-69"/>
      <use x="435.791016" xlink:href="#DejaVuSans-73"/>
      <use x="487.890625" xlink:href="#DejaVuSans-e9"/>
      <use x="549.414062" xlink:href="#DejaVuSans-73"/>
      <use x="601.513672" xlink:href="#DejaVuSans-20"/>
      <use x="633.300781" xlink:href="#DejaVuSans-28"/>
      <use x="672.314453" xlink:href="#DejaVuSans-70"/>
      <use x="735.791016" xlink:href="#DejaVuSans-6f"/>
      <use x="796.972656" xlink:href="#DejaVuSans-75"/>
      <use x="860.351562" xlink:href="#DejaVuSans-72"/>
      <use x="901.464844" xlink:href="#DejaVuSans-20"/>
      <use x="933.251953" xlink:href="#DejaVuSans-31"/>
      <use x="996.875" xlink:href="#DejaVuSans-30"/>
      <use x="1060.498047" xlink:href="#DejaVuSans-4d"/>
      <use x="1146.777344" xlink:href="#DejaVuSans-29"/>
     </g>
    </g>
    <g id="line2d_13">
     <path d="M 42.2875 35.376562 
L 62.2875 35.376562 
" style="fill:none;stroke:#3cb371;stroke-linecap:square;stroke-width:3;"/>
    </g>
    <g id="line2d_14"/>
    <g id="text_11">
     <!-- Non-vaccinés -->
     <g transform="translate(70.2875 38.876562)scale(0.1 -0.1)">
      <defs>
       <path d="M 628 4666 
L 1478 4666 
L 3547 763 
L 3547 4666 
L 4159 4666 
L 4159 0 
L 3309 0 
L 1241 3903 
L 1241 0 
L 628 0 
L 628 4666 
z
" id="DejaVuSans-4e" transform="scale(0.015625)"/>
       <path d="M 3513 2113 
L 3513 0 
L 2938 0 
L 2938 2094 
Q 2938 2591 2744 2837 
Q 2550 3084 2163 3084 
Q 1697 3084 1428 2787 
Q 1159 2491 1159 1978 
L 1159 0 
L 581 0 
L 581 3500 
L 1159 3500 
L 1159 2956 
Q 1366 3272 1645 3428 
Q 1925 3584 2291 3584 
Q 2894 3584 3203 3211 
Q 3513 2838 3513 2113 
z
" id="DejaVuSans-6e" transform="scale(0.015625)"/>
       <path d="M 313 2009 
L 1997 2009 
L 1997 1497 
L 313 1497 
L 313 2009 
z
" id="DejaVuSans-2d" transform="scale(0.015625)"/>
       <path d="M 191 3500 
L 800 3500 
L 1894 563 
L 2988 3500 
L 3597 3500 
L 2284 0 
L 1503 0 
L 191 3500 
z
" id="DejaVuSans-76" transform="scale(0.015625)"/>
       <path d="M 3122 3366 
L 3122 2828 
Q 2878 2963 2633 3030 
Q 2388 3097 2138 3097 
Q 1578 3097 1268 2742 
Q 959 2388 959 1747 
Q 959 1106 1268 751 
Q 1578 397 2138 397 
Q 2388 397 2633 464 
Q 2878 531 3122 666 
L 3122 134 
Q 2881 22 2623 -34 
Q 2366 -91 2075 -91 
Q 1284 -91 818 406 
Q 353 903 353 1747 
Q 353 2603 823 3093 
Q 1294 3584 2113 3584 
Q 2378 3584 2631 3529 
Q 2884 3475 3122 3366 
z
" id="DejaVuSans-63" transform="scale(0.015625)"/>
      </defs>
      <use xlink:href="#DejaVuSans-4e"/>
      <use x="74.804688" xlink:href="#DejaVuSans-6f"/>
      <use x="135.986328" xlink:href="#DejaVuSans-6e"/>
      <use x="199.365234" xlink:href="#DejaVuSans-2d"/>
      <use x="232.824219" xlink:href="#DejaVuSans-76"/>
      <use x="292.003906" xlink:href="#DejaVuSans-61"/>
      <use x="353.283203" xlink:href="#DejaVuSans-63"/>
      <use x="408.263672" xlink:href="#DejaVuSans-63"/>
      <use x="463.244141" xlink:href="#DejaVuSans-69"/>
      <use x="491.027344" xlink:href="#DejaVuSans-6e"/>
      <use x="554.40625" xlink:href="#DejaVuSans-e9"/>
      <use x="615.929688" xlink:href="#DejaVuSans-73"/>
     </g>
    </g>
    <g id="line2d_15">
     <path d="M 42.2875 50.054687 
L 62.2875 50.054687 
" style="fill:none;stroke:#000000;stroke-linecap:square;stroke-width:1.5;"/>
    </g>
    <g id="line2d_16"/>
    <g id="text_12">
     <!-- Somme des primo-doses -->
     <g transform="translate(70.2875 53.554687)scale(0.1 -0.1)">
      <defs>
       <path d="M 3425 4513 
L 3425 3897 
Q 3066 4069 2747 4153 
Q 2428 4238 2131 4238 
Q 1616 4238 1336 4038 
Q 1056 3838 1056 3469 
Q 1056 3159 1242 3001 
Q 1428 2844 1947 2747 
L 2328 2669 
Q 3034 2534 3370 2195 
Q 3706 1856 3706 1288 
Q 3706 609 3251 259 
Q 2797 -91 1919 -91 
Q 1588 -91 1214 -16 
Q 841 59 441 206 
L 441 856 
Q 825 641 1194 531 
Q 1563 422 1919 422 
Q 2459 422 2753 634 
Q 3047 847 3047 1241 
Q 3047 1584 2836 1778 
Q 2625 1972 2144 2069 
L 1759 2144 
Q 1053 2284 737 2584 
Q 422 2884 422 3419 
Q 422 4038 858 4394 
Q 1294 4750 2059 4750 
Q 2388 4750 2728 4690 
Q 3069 4631 3425 4513 
z
" id="DejaVuSans-53" transform="scale(0.015625)"/>
       <path d="M 2906 2969 
L 2906 4863 
L 3481 4863 
L 3481 0 
L 2906 0 
L 2906 525 
Q 2725 213 2448 61 
Q 2172 -91 1784 -91 
Q 1150 -91 751 415 
Q 353 922 353 1747 
Q 353 2572 751 3078 
Q 1150 3584 1784 3584 
Q 2172 3584 2448 3432 
Q 2725 3281 2906 2969 
z
M 947 1747 
Q 947 1113 1208 752 
Q 1469 391 1925 391 
Q 2381 391 2643 752 
Q 2906 1113 2906 1747 
Q 2906 2381 2643 2742 
Q 2381 3103 1925 3103 
Q 1469 3103 1208 2742 
Q 947 2381 947 1747 
z
" id="DejaVuSans-64" transform="scale(0.015625)"/>
      </defs>
      <use xlink:href="#DejaVuSans-53"/>
      <use x="63.476562" xlink:href="#DejaVuSans-6f"/>
      <use x="124.658203" xlink:href="#DejaVuSans-6d"/>
      <use x="222.070312" xlink:href="#DejaVuSans-6d"/>
      <use x="319.482422" xlink:href="#DejaVuSans-65"/>
      <use x="381.005859" xlink:href="#DejaVuSans-20"/>
      <use x="412.792969" xlink:href="#DejaVuSans-64"/>
      <use x="476.269531" xlink:href="#DejaVuSans-65"/>
      <use x="537.792969" xlink:href="#DejaVuSans-73"/>
      <use x="589.892578" xlink:href="#DejaVuSans-20"/>
      <use x="621.679688" xlink:href="#DejaVuSans-70"/>
      <use x="685.15625" xlink:href="#DejaVuSans-72"/>
      <use x="726.269531" xlink:href="#DejaVuSans-69"/>
      <use x="754.052734" xlink:href="#DejaVuSans-6d"/>
      <use x="851.464844" xlink:href="#DejaVuSans-6f"/>
      <use x="914.521484" xlink:href="#DejaVuSans-2d"/>
      <use x="950.605469" xlink:href="#DejaVuSans-64"/>
      <use x="1014.082031" xlink:href="#DejaVuSans-6f"/>
      <use x="1075.263672" xlink:href="#DejaVuSans-73"/>
      <use x="1127.363281" xlink:href="#DejaVuSans-65"/>
      <use x="1188.886719" xlink:href="#DejaVuSans-73"/>
     </g>
    </g>
    <g id="line2d_17">
     <path d="M 42.2875 65.132812 
L 62.2875 65.132812 
" style="fill:none;stroke:#b22222;stroke-linecap:square;"/>
    </g>
    <g id="line2d_18"/>
    <g id="text_13">
     <!-- Vaccination complète -->
     <g transform="translate(70.2875 68.632812)scale(0.1 -0.1)">
      <defs>
       <path d="M 1831 0 
L 50 4666 
L 709 4666 
L 2188 738 
L 3669 4666 
L 4325 4666 
L 2547 0 
L 1831 0 
z
" id="DejaVuSans-56" transform="scale(0.015625)"/>
       <path d="M 3597 1894 
L 3597 1613 
L 953 1613 
Q 991 1019 1311 708 
Q 1631 397 2203 397 
Q 2534 397 2845 478 
Q 3156 559 3463 722 
L 3463 178 
Q 3153 47 2828 -22 
Q 2503 -91 2169 -91 
Q 1331 -91 842 396 
Q 353 884 353 1716 
Q 353 2575 817 3079 
Q 1281 3584 2069 3584 
Q 2775 3584 3186 3129 
Q 3597 2675 3597 1894 
z
M 3022 2063 
Q 3016 2534 2758 2815 
Q 2500 3097 2075 3097 
Q 1594 3097 1305 2825 
Q 1016 2553 972 2059 
L 3022 2063 
z
M 1579 5119 
L 2460 3950 
L 1982 3950 
L 963 5119 
L 1579 5119 
z
" id="DejaVuSans-e8" transform="scale(0.015625)"/>
      </defs>
      <use xlink:href="#DejaVuSans-56"/>
      <use x="60.658203" xlink:href="#DejaVuSans-61"/>
      <use x="121.9375" xlink:href="#DejaVuSans-63"/>
      <use x="176.917969" xlink:href="#DejaVuSans-63"/>
      <use x="231.898438" xlink:href="#DejaVuSans-69"/>
      <use x="259.681641" xlink:href="#DejaVuSans-6e"/>
      <use x="323.060547" xlink:href="#DejaVuSans-61"/>
      <use x="384.339844" xlink:href="#DejaVuSans-74"/>
      <use x="423.548828" xlink:href="#DejaVuSans-69"/>
      <use x="451.332031" xlink:href="#DejaVuSans-6f"/>
      <use x="512.513672" xlink:href="#DejaVuSans-6e"/>
      <use x="575.892578" xlink:href="#DejaVuSans-20"/>
      <use x="607.679688" xlink:href="#DejaVuSans-63"/>
      <use x="662.660156" xlink:href="#DejaVuSans-6f"/>
      <use x="723.841797" xlink:href="#DejaVuSans-6d"/>
      <use x="821.253906" xlink:href="#DejaVuSans-70"/>
      <use x="884.730469" xlink:href="#DejaVuSans-6c"/>
      <use x="912.513672" xlink:href="#DejaVuSans-e8"/>
      <use x="974.037109" xlink:href="#DejaVuSans-74"/>
      <use x="1013.246094" xlink:href="#DejaVuSans-65"/>
     </g>
    </g>
   </g>
  </g>
 </g>
 <defs>
  <clipPath id="p5b28ec8f67">
   <rect height="217.44" width="334.8" x="33.2875" y="7.2"/>
  </clipPath>
 </defs>
</svg>
