<?xml version="1.0" encoding="utf-8" standalone="no"?>
<!DOCTYPE svg PUBLIC "-//W3C//DTD SVG 1.1//EN"
  "http://www.w3.org/Graphics/SVG/1.1/DTD/svg11.dtd">
<svg height="299.327506pt" version="1.1" viewBox="0 0 368.925 299.327506" width="368.925pt" xmlns="http://www.w3.org/2000/svg" xmlns:xlink="http://www.w3.org/1999/xlink">
 <metadata>
  <rdf:RDF xmlns:cc="http://creativecommons.org/ns#" xmlns:dc="http://purl.org/dc/elements/1.1/" xmlns:rdf="http://www.w3.org/1999/02/22-rdf-syntax-ns#">
   <cc:Work>
    <dc:type rdf:resource="http://purl.org/dc/dcmitype/StillImage"/>
    <dc:date>2021-09-08T23:41:59.683085</dc:date>
    <dc:format>image/svg+xml</dc:format>
    <dc:creator>
     <cc:Agent>
      <dc:title>Matplotlib v3.4.1, https://matplotlib.org/</dc:title>
     </cc:Agent>
    </dc:creator>
   </cc:Work>
  </rdf:RDF>
 </metadata>
 <defs>
  <style type="text/css">*{stroke-linecap:butt;stroke-linejoin:round;}</style>
 </defs>
 <g id="figure_1">
  <g id="patch_1">
   <path d="M -0 299.327506 
L 368.925 299.327506 
L 368.925 0 
L -0 0 
z
" style="fill:#ffffff;"/>
  </g>
  <g id="axes_1">
   <g id="patch_2">
    <path d="M 26.925 226.158115 
L 361.725 226.158115 
L 361.725 8.718115 
L 26.925 8.718115 
z
" style="fill:#ffffff;"/>
   </g>
   <g id="matplotlib.axis_1">
    <g id="xtick_1">
     <g id="line2d_1">
      <defs>
       <path d="M 0 0 
L 0 3.5 
" id="mf083d51f47" style="stroke:#000000;stroke-width:0.8;"/>
      </defs>
      <g>
       <use style="stroke:#000000;stroke-width:0.8;" x="85.151087" xlink:href="#mf083d51f47" y="226.158115"/>
      </g>
     </g>
     <g id="text_1">
      <!-- 1er juillet -->
      <g transform="translate(57.057956 271.99706)rotate(-45)scale(0.1 -0.1)">
       <defs>
        <path d="M 794 531 
L 1825 531 
L 1825 4091 
L 703 3866 
L 703 4441 
L 1819 4666 
L 2450 4666 
L 2450 531 
L 3481 531 
L 3481 0 
L 794 0 
L 794 531 
z
" id="DejaVuSans-31" transform="scale(0.015625)"/>
        <path d="M 3597 1894 
L 3597 1613 
L 953 1613 
Q 991 1019 1311 708 
Q 1631 397 2203 397 
Q 2534 397 2845 478 
Q 3156 559 3463 722 
L 3463 178 
Q 3153 47 2828 -22 
Q 2503 -91 2169 -91 
Q 1331 -91 842 396 
Q 353 884 353 1716 
Q 353 2575 817 3079 
Q 1281 3584 2069 3584 
Q 2775 3584 3186 3129 
Q 3597 2675 3597 1894 
z
M 3022 2063 
Q 3016 2534 2758 2815 
Q 2500 3097 2075 3097 
Q 1594 3097 1305 2825 
Q 1016 2553 972 2059 
L 3022 2063 
z
" id="DejaVuSans-65" transform="scale(0.015625)"/>
        <path d="M 2631 2963 
Q 2534 3019 2420 3045 
Q 2306 3072 2169 3072 
Q 1681 3072 1420 2755 
Q 1159 2438 1159 1844 
L 1159 0 
L 581 0 
L 581 3500 
L 1159 3500 
L 1159 2956 
Q 1341 3275 1631 3429 
Q 1922 3584 2338 3584 
Q 2397 3584 2469 3576 
Q 2541 3569 2628 3553 
L 2631 2963 
z
" id="DejaVuSans-72" transform="scale(0.015625)"/>
        <path id="DejaVuSans-20" transform="scale(0.015625)"/>
        <path d="M 603 3500 
L 1178 3500 
L 1178 -63 
Q 1178 -731 923 -1031 
Q 669 -1331 103 -1331 
L -116 -1331 
L -116 -844 
L 38 -844 
Q 366 -844 484 -692 
Q 603 -541 603 -63 
L 603 3500 
z
M 603 4863 
L 1178 4863 
L 1178 4134 
L 603 4134 
L 603 4863 
z
" id="DejaVuSans-6a" transform="scale(0.015625)"/>
        <path d="M 544 1381 
L 544 3500 
L 1119 3500 
L 1119 1403 
Q 1119 906 1312 657 
Q 1506 409 1894 409 
Q 2359 409 2629 706 
Q 2900 1003 2900 1516 
L 2900 3500 
L 3475 3500 
L 3475 0 
L 2900 0 
L 2900 538 
Q 2691 219 2414 64 
Q 2138 -91 1772 -91 
Q 1169 -91 856 284 
Q 544 659 544 1381 
z
M 1991 3584 
L 1991 3584 
z
" id="DejaVuSans-75" transform="scale(0.015625)"/>
        <path d="M 603 3500 
L 1178 3500 
L 1178 0 
L 603 0 
L 603 3500 
z
M 603 4863 
L 1178 4863 
L 1178 4134 
L 603 4134 
L 603 4863 
z
" id="DejaVuSans-69" transform="scale(0.015625)"/>
        <path d="M 603 4863 
L 1178 4863 
L 1178 0 
L 603 0 
L 603 4863 
z
" id="DejaVuSans-6c" transform="scale(0.015625)"/>
        <path d="M 1172 4494 
L 1172 3500 
L 2356 3500 
L 2356 3053 
L 1172 3053 
L 1172 1153 
Q 1172 725 1289 603 
Q 1406 481 1766 481 
L 2356 481 
L 2356 0 
L 1766 0 
Q 1100 0 847 248 
Q 594 497 594 1153 
L 594 3053 
L 172 3053 
L 172 3500 
L 594 3500 
L 594 4494 
L 1172 4494 
z
" id="DejaVuSans-74" transform="scale(0.015625)"/>
       </defs>
       <use xlink:href="#DejaVuSans-31"/>
       <use x="63.623047" xlink:href="#DejaVuSans-65"/>
       <use x="125.146484" xlink:href="#DejaVuSans-72"/>
       <use x="166.259766" xlink:href="#DejaVuSans-20"/>
       <use x="198.046875" xlink:href="#DejaVuSans-6a"/>
       <use x="225.830078" xlink:href="#DejaVuSans-75"/>
       <use x="289.208984" xlink:href="#DejaVuSans-69"/>
       <use x="316.992188" xlink:href="#DejaVuSans-6c"/>
       <use x="344.775391" xlink:href="#DejaVuSans-6c"/>
       <use x="372.558594" xlink:href="#DejaVuSans-65"/>
       <use x="434.082031" xlink:href="#DejaVuSans-74"/>
      </g>
     </g>
    </g>
    <g id="xtick_2">
     <g id="line2d_2">
      <g>
       <use style="stroke:#000000;stroke-width:0.8;" x="197.96413" xlink:href="#mf083d51f47" y="226.158115"/>
      </g>
     </g>
     <g id="text_2">
      <!-- 1er août -->
      <g transform="translate(173.419791 268.448268)rotate(-45)scale(0.1 -0.1)">
       <defs>
        <path d="M 2194 1759 
Q 1497 1759 1228 1600 
Q 959 1441 959 1056 
Q 959 750 1161 570 
Q 1363 391 1709 391 
Q 2188 391 2477 730 
Q 2766 1069 2766 1631 
L 2766 1759 
L 2194 1759 
z
M 3341 1997 
L 3341 0 
L 2766 0 
L 2766 531 
Q 2569 213 2275 61 
Q 1981 -91 1556 -91 
Q 1019 -91 701 211 
Q 384 513 384 1019 
Q 384 1609 779 1909 
Q 1175 2209 1959 2209 
L 2766 2209 
L 2766 2266 
Q 2766 2663 2505 2880 
Q 2244 3097 1772 3097 
Q 1472 3097 1187 3025 
Q 903 2953 641 2809 
L 641 3341 
Q 956 3463 1253 3523 
Q 1550 3584 1831 3584 
Q 2591 3584 2966 3190 
Q 3341 2797 3341 1997 
z
" id="DejaVuSans-61" transform="scale(0.015625)"/>
        <path d="M 1959 3097 
Q 1497 3097 1228 2736 
Q 959 2375 959 1747 
Q 959 1119 1226 758 
Q 1494 397 1959 397 
Q 2419 397 2687 759 
Q 2956 1122 2956 1747 
Q 2956 2369 2687 2733 
Q 2419 3097 1959 3097 
z
M 1959 3584 
Q 2709 3584 3137 3096 
Q 3566 2609 3566 1747 
Q 3566 888 3137 398 
Q 2709 -91 1959 -91 
Q 1206 -91 779 398 
Q 353 888 353 1747 
Q 353 2609 779 3096 
Q 1206 3584 1959 3584 
z
" id="DejaVuSans-6f" transform="scale(0.015625)"/>
        <path d="M 544 1381 
L 544 3500 
L 1119 3500 
L 1119 1403 
Q 1119 906 1312 657 
Q 1506 409 1894 409 
Q 2359 409 2629 706 
Q 2900 1003 2900 1516 
L 2900 3500 
L 3475 3500 
L 3475 0 
L 2900 0 
L 2900 538 
Q 2691 219 2414 64 
Q 2138 -91 1772 -91 
Q 1169 -91 856 284 
Q 544 659 544 1381 
z
M 1991 3584 
L 1991 3584 
z
M 1753 5119 
L 2215 5119 
L 2981 3944 
L 2547 3944 
L 1984 4709 
L 1422 3944 
L 987 3944 
L 1753 5119 
z
" id="DejaVuSans-fb" transform="scale(0.015625)"/>
       </defs>
       <use xlink:href="#DejaVuSans-31"/>
       <use x="63.623047" xlink:href="#DejaVuSans-65"/>
       <use x="125.146484" xlink:href="#DejaVuSans-72"/>
       <use x="166.259766" xlink:href="#DejaVuSans-20"/>
       <use x="198.046875" xlink:href="#DejaVuSans-61"/>
       <use x="259.326172" xlink:href="#DejaVuSans-6f"/>
       <use x="320.507812" xlink:href="#DejaVuSans-fb"/>
       <use x="383.886719" xlink:href="#DejaVuSans-74"/>
      </g>
     </g>
    </g>
    <g id="xtick_3">
     <g id="line2d_3">
      <g>
       <use style="stroke:#000000;stroke-width:0.8;" x="310.777174" xlink:href="#mf083d51f47" y="226.158115"/>
      </g>
     </g>
     <g id="text_3">
      <!-- 1er septembre -->
      <g transform="translate(264.024157 290.656945)rotate(-45)scale(0.1 -0.1)">
       <defs>
        <path d="M 2834 3397 
L 2834 2853 
Q 2591 2978 2328 3040 
Q 2066 3103 1784 3103 
Q 1356 3103 1142 2972 
Q 928 2841 928 2578 
Q 928 2378 1081 2264 
Q 1234 2150 1697 2047 
L 1894 2003 
Q 2506 1872 2764 1633 
Q 3022 1394 3022 966 
Q 3022 478 2636 193 
Q 2250 -91 1575 -91 
Q 1294 -91 989 -36 
Q 684 19 347 128 
L 347 722 
Q 666 556 975 473 
Q 1284 391 1588 391 
Q 1994 391 2212 530 
Q 2431 669 2431 922 
Q 2431 1156 2273 1281 
Q 2116 1406 1581 1522 
L 1381 1569 
Q 847 1681 609 1914 
Q 372 2147 372 2553 
Q 372 3047 722 3315 
Q 1072 3584 1716 3584 
Q 2034 3584 2315 3537 
Q 2597 3491 2834 3397 
z
" id="DejaVuSans-73" transform="scale(0.015625)"/>
        <path d="M 1159 525 
L 1159 -1331 
L 581 -1331 
L 581 3500 
L 1159 3500 
L 1159 2969 
Q 1341 3281 1617 3432 
Q 1894 3584 2278 3584 
Q 2916 3584 3314 3078 
Q 3713 2572 3713 1747 
Q 3713 922 3314 415 
Q 2916 -91 2278 -91 
Q 1894 -91 1617 61 
Q 1341 213 1159 525 
z
M 3116 1747 
Q 3116 2381 2855 2742 
Q 2594 3103 2138 3103 
Q 1681 3103 1420 2742 
Q 1159 2381 1159 1747 
Q 1159 1113 1420 752 
Q 1681 391 2138 391 
Q 2594 391 2855 752 
Q 3116 1113 3116 1747 
z
" id="DejaVuSans-70" transform="scale(0.015625)"/>
        <path d="M 3328 2828 
Q 3544 3216 3844 3400 
Q 4144 3584 4550 3584 
Q 5097 3584 5394 3201 
Q 5691 2819 5691 2113 
L 5691 0 
L 5113 0 
L 5113 2094 
Q 5113 2597 4934 2840 
Q 4756 3084 4391 3084 
Q 3944 3084 3684 2787 
Q 3425 2491 3425 1978 
L 3425 0 
L 2847 0 
L 2847 2094 
Q 2847 2600 2669 2842 
Q 2491 3084 2119 3084 
Q 1678 3084 1418 2786 
Q 1159 2488 1159 1978 
L 1159 0 
L 581 0 
L 581 3500 
L 1159 3500 
L 1159 2956 
Q 1356 3278 1631 3431 
Q 1906 3584 2284 3584 
Q 2666 3584 2933 3390 
Q 3200 3197 3328 2828 
z
" id="DejaVuSans-6d" transform="scale(0.015625)"/>
        <path d="M 3116 1747 
Q 3116 2381 2855 2742 
Q 2594 3103 2138 3103 
Q 1681 3103 1420 2742 
Q 1159 2381 1159 1747 
Q 1159 1113 1420 752 
Q 1681 391 2138 391 
Q 2594 391 2855 752 
Q 3116 1113 3116 1747 
z
M 1159 2969 
Q 1341 3281 1617 3432 
Q 1894 3584 2278 3584 
Q 2916 3584 3314 3078 
Q 3713 2572 3713 1747 
Q 3713 922 3314 415 
Q 2916 -91 2278 -91 
Q 1894 -91 1617 61 
Q 1341 213 1159 525 
L 1159 0 
L 581 0 
L 581 4863 
L 1159 4863 
L 1159 2969 
z
" id="DejaVuSans-62" transform="scale(0.015625)"/>
       </defs>
       <use xlink:href="#DejaVuSans-31"/>
       <use x="63.623047" xlink:href="#DejaVuSans-65"/>
       <use x="125.146484" xlink:href="#DejaVuSans-72"/>
       <use x="166.259766" xlink:href="#DejaVuSans-20"/>
       <use x="198.046875" xlink:href="#DejaVuSans-73"/>
       <use x="250.146484" xlink:href="#DejaVuSans-65"/>
       <use x="311.669922" xlink:href="#DejaVuSans-70"/>
       <use x="375.146484" xlink:href="#DejaVuSans-74"/>
       <use x="414.355469" xlink:href="#DejaVuSans-65"/>
       <use x="475.878906" xlink:href="#DejaVuSans-6d"/>
       <use x="573.291016" xlink:href="#DejaVuSans-62"/>
       <use x="636.767578" xlink:href="#DejaVuSans-72"/>
       <use x="675.630859" xlink:href="#DejaVuSans-65"/>
      </g>
     </g>
    </g>
   </g>
   <g id="matplotlib.axis_2">
    <g id="ytick_1">
     <g id="line2d_4">
      <defs>
       <path d="M 0 0 
L -3.5 0 
" id="m3cbd287fa7" style="stroke:#000000;stroke-width:0.8;"/>
      </defs>
      <g>
       <use style="stroke:#000000;stroke-width:0.8;" x="26.925" xlink:href="#m3cbd287fa7" y="215.943856"/>
      </g>
     </g>
     <g id="text_4">
      <!-- 10 -->
      <g transform="translate(7.2 219.743075)scale(0.1 -0.1)">
       <defs>
        <path d="M 2034 4250 
Q 1547 4250 1301 3770 
Q 1056 3291 1056 2328 
Q 1056 1369 1301 889 
Q 1547 409 2034 409 
Q 2525 409 2770 889 
Q 3016 1369 3016 2328 
Q 3016 3291 2770 3770 
Q 2525 4250 2034 4250 
z
M 2034 4750 
Q 2819 4750 3233 4129 
Q 3647 3509 3647 2328 
Q 3647 1150 3233 529 
Q 2819 -91 2034 -91 
Q 1250 -91 836 529 
Q 422 1150 422 2328 
Q 422 3509 836 4129 
Q 1250 4750 2034 4750 
z
" id="DejaVuSans-30" transform="scale(0.015625)"/>
       </defs>
       <use xlink:href="#DejaVuSans-31"/>
       <use x="63.623047" xlink:href="#DejaVuSans-30"/>
      </g>
     </g>
    </g>
    <g id="ytick_2">
     <g id="line2d_5">
      <g>
       <use style="stroke:#000000;stroke-width:0.8;" x="26.925" xlink:href="#m3cbd287fa7" y="186.666051"/>
      </g>
     </g>
     <g id="text_5">
      <!-- 15 -->
      <g transform="translate(7.2 190.465269)scale(0.1 -0.1)">
       <defs>
        <path d="M 691 4666 
L 3169 4666 
L 3169 4134 
L 1269 4134 
L 1269 2991 
Q 1406 3038 1543 3061 
Q 1681 3084 1819 3084 
Q 2600 3084 3056 2656 
Q 3513 2228 3513 1497 
Q 3513 744 3044 326 
Q 2575 -91 1722 -91 
Q 1428 -91 1123 -41 
Q 819 9 494 109 
L 494 744 
Q 775 591 1075 516 
Q 1375 441 1709 441 
Q 2250 441 2565 725 
Q 2881 1009 2881 1497 
Q 2881 1984 2565 2268 
Q 2250 2553 1709 2553 
Q 1456 2553 1204 2497 
Q 953 2441 691 2322 
L 691 4666 
z
" id="DejaVuSans-35" transform="scale(0.015625)"/>
       </defs>
       <use xlink:href="#DejaVuSans-31"/>
       <use x="63.623047" xlink:href="#DejaVuSans-35"/>
      </g>
     </g>
    </g>
    <g id="ytick_3">
     <g id="line2d_6">
      <g>
       <use style="stroke:#000000;stroke-width:0.8;" x="26.925" xlink:href="#m3cbd287fa7" y="157.388245"/>
      </g>
     </g>
     <g id="text_6">
      <!-- 20 -->
      <g transform="translate(7.2 161.187464)scale(0.1 -0.1)">
       <defs>
        <path d="M 1228 531 
L 3431 531 
L 3431 0 
L 469 0 
L 469 531 
Q 828 903 1448 1529 
Q 2069 2156 2228 2338 
Q 2531 2678 2651 2914 
Q 2772 3150 2772 3378 
Q 2772 3750 2511 3984 
Q 2250 4219 1831 4219 
Q 1534 4219 1204 4116 
Q 875 4013 500 3803 
L 500 4441 
Q 881 4594 1212 4672 
Q 1544 4750 1819 4750 
Q 2544 4750 2975 4387 
Q 3406 4025 3406 3419 
Q 3406 3131 3298 2873 
Q 3191 2616 2906 2266 
Q 2828 2175 2409 1742 
Q 1991 1309 1228 531 
z
" id="DejaVuSans-32" transform="scale(0.015625)"/>
       </defs>
       <use xlink:href="#DejaVuSans-32"/>
       <use x="63.623047" xlink:href="#DejaVuSans-30"/>
      </g>
     </g>
    </g>
    <g id="ytick_4">
     <g id="line2d_7">
      <g>
       <use style="stroke:#000000;stroke-width:0.8;" x="26.925" xlink:href="#m3cbd287fa7" y="128.11044"/>
      </g>
     </g>
     <g id="text_7">
      <!-- 25 -->
      <g transform="translate(7.2 131.909659)scale(0.1 -0.1)">
       <use xlink:href="#DejaVuSans-32"/>
       <use x="63.623047" xlink:href="#DejaVuSans-35"/>
      </g>
     </g>
    </g>
    <g id="ytick_5">
     <g id="line2d_8">
      <g>
       <use style="stroke:#000000;stroke-width:0.8;" x="26.925" xlink:href="#m3cbd287fa7" y="98.832635"/>
      </g>
     </g>
     <g id="text_8">
      <!-- 30 -->
      <g transform="translate(7.2 102.631853)scale(0.1 -0.1)">
       <defs>
        <path d="M 2597 2516 
Q 3050 2419 3304 2112 
Q 3559 1806 3559 1356 
Q 3559 666 3084 287 
Q 2609 -91 1734 -91 
Q 1441 -91 1130 -33 
Q 819 25 488 141 
L 488 750 
Q 750 597 1062 519 
Q 1375 441 1716 441 
Q 2309 441 2620 675 
Q 2931 909 2931 1356 
Q 2931 1769 2642 2001 
Q 2353 2234 1838 2234 
L 1294 2234 
L 1294 2753 
L 1863 2753 
Q 2328 2753 2575 2939 
Q 2822 3125 2822 3475 
Q 2822 3834 2567 4026 
Q 2313 4219 1838 4219 
Q 1578 4219 1281 4162 
Q 984 4106 628 3988 
L 628 4550 
Q 988 4650 1302 4700 
Q 1616 4750 1894 4750 
Q 2613 4750 3031 4423 
Q 3450 4097 3450 3541 
Q 3450 3153 3228 2886 
Q 3006 2619 2597 2516 
z
" id="DejaVuSans-33" transform="scale(0.015625)"/>
       </defs>
       <use xlink:href="#DejaVuSans-33"/>
       <use x="63.623047" xlink:href="#DejaVuSans-30"/>
      </g>
     </g>
    </g>
    <g id="ytick_6">
     <g id="line2d_9">
      <g>
       <use style="stroke:#000000;stroke-width:0.8;" x="26.925" xlink:href="#m3cbd287fa7" y="69.554829"/>
      </g>
     </g>
     <g id="text_9">
      <!-- 35 -->
      <g transform="translate(7.2 73.354048)scale(0.1 -0.1)">
       <use xlink:href="#DejaVuSans-33"/>
       <use x="63.623047" xlink:href="#DejaVuSans-35"/>
      </g>
     </g>
    </g>
    <g id="ytick_7">
     <g id="line2d_10">
      <g>
       <use style="stroke:#000000;stroke-width:0.8;" x="26.925" xlink:href="#m3cbd287fa7" y="40.277024"/>
      </g>
     </g>
     <g id="text_10">
      <!-- 40 -->
      <g transform="translate(7.2 44.076243)scale(0.1 -0.1)">
       <defs>
        <path d="M 2419 4116 
L 825 1625 
L 2419 1625 
L 2419 4116 
z
M 2253 4666 
L 3047 4666 
L 3047 1625 
L 3713 1625 
L 3713 1100 
L 3047 1100 
L 3047 0 
L 2419 0 
L 2419 1100 
L 313 1100 
L 313 1709 
L 2253 4666 
z
" id="DejaVuSans-34" transform="scale(0.015625)"/>
       </defs>
       <use xlink:href="#DejaVuSans-34"/>
       <use x="63.623047" xlink:href="#DejaVuSans-30"/>
      </g>
     </g>
    </g>
    <g id="ytick_8">
     <g id="line2d_11">
      <g>
       <use style="stroke:#000000;stroke-width:0.8;" x="26.925" xlink:href="#m3cbd287fa7" y="10.999219"/>
      </g>
     </g>
     <g id="text_11">
      <!-- 45 -->
      <g transform="translate(7.2 14.798437)scale(0.1 -0.1)">
       <use xlink:href="#DejaVuSans-34"/>
       <use x="63.623047" xlink:href="#DejaVuSans-35"/>
      </g>
     </g>
    </g>
   </g>
   <g id="line2d_12">
    <path clip-path="url(#p3bc14d214f)" d="M -1 33.680188 
L 1.451087 35.343163 
L 5.090217 37.754173 
L 8.729348 40.43345 
L 12.368478 43.072615 
L 16.007609 44.84021 
L 19.646739 45.608003 
L 23.28587 47.563386 
L 26.925 49.842054 
L 30.56413 52.065258 
L 34.203261 54.392475 
L 37.842391 56.635295 
L 41.481522 58.27942 
L 45.120652 58.886021 
L 48.759783 60.276646 
L 52.398913 62.054769 
L 56.038043 63.86703 
L 59.677174 65.702462 
L 63.316304 67.564735 
L 66.955435 68.866397 
L 70.594565 69.288366 
L 74.233696 70.415404 
L 77.872826 71.703094 
L 81.511957 73.050394 
L 85.151087 74.446817 
L 88.790217 75.756618 
L 92.429348 76.642289 
L 96.068478 76.963601 
L 99.707609 77.854291 
L 103.346739 78.908128 
L 106.98587 80.082941 
L 110.625 81.373694 
L 114.26413 82.662585 
L 117.903261 83.479447 
L 121.542391 83.804981 
L 125.181522 84.757148 
L 128.820652 85.879899 
L 132.459783 87.0896 
L 136.098913 88.416546 
L 139.738043 89.726939 
L 143.377174 90.582957 
L 147.016304 90.928752 
L 150.655435 91.891786 
L 154.294565 93.546006 
L 157.933696 94.585087 
L 161.572826 96.584011 
L 165.211957 98.772381 
L 168.851087 100.273161 
L 172.490217 100.908431 
L 176.129348 102.550928 
L 179.768478 104.726356 
L 183.407609 107.013258 
L 187.046739 109.563647 
L 190.68587 112.097536 
L 194.325 113.750397 
L 197.96413 114.450669 
L 201.603261 116.453271 
L 205.242391 119.128144 
L 208.881522 121.767825 
L 212.520652 124.595979 
L 216.159783 127.246727 
L 219.798913 128.89707 
L 223.438043 129.527398 
L 227.077174 131.392535 
L 230.716304 133.649022 
L 234.355435 135.831565 
L 237.994565 137.917545 
L 241.633696 139.963969 
L 245.272826 141.182588 
L 248.911957 141.598614 
L 252.551087 143.061321 
L 256.190217 144.802297 
L 259.829348 146.392105 
L 263.468478 147.934261 
L 267.107609 149.355839 
L 270.746739 150.173146 
L 274.38587 150.386002 
" style="fill:none;stroke:#4169e1;stroke-linecap:square;stroke-width:3;"/>
   </g>
   <g id="line2d_13"/>
   <g id="line2d_14">
    <path clip-path="url(#p3bc14d214f)" d="M -1 210.264786 
L 1.451087 209.362106 
L 5.090217 208.002035 
L 8.729348 206.451172 
L 12.368478 204.637933 
L 16.007609 203.585618 
L 19.646739 203.325801 
L 23.28587 202.019689 
L 26.925 200.337017 
L 30.56413 198.728507 
L 34.203261 196.941811 
L 37.842391 194.793792 
L 41.481522 193.488488 
L 45.120652 193.146002 
L 48.759783 191.394879 
L 52.398913 189.385367 
L 56.038043 187.522667 
L 59.677174 185.597909 
L 63.316304 183.185095 
L 66.955435 181.759659 
L 70.594565 181.257632 
L 74.233696 178.990693 
L 77.872826 176.490983 
L 81.511957 174.134559 
L 85.151087 171.646818 
L 88.790217 168.774132 
L 92.429348 166.981317 
L 96.068478 166.326379 
L 99.707609 163.792069 
L 103.346739 160.807823 
L 106.98587 157.994255 
L 110.625 155.358011 
L 114.26413 152.040719 
L 117.903261 149.68765 
L 121.542391 148.731677 
L 125.181522 145.922167 
L 128.820652 142.724152 
L 132.459783 139.691791 
L 136.098913 136.758319 
L 139.738043 133.494019 
L 143.377174 131.193715 
L 147.016304 130.317413 
L 150.655435 127.729015 
L 154.294565 124.774673 
L 157.933696 122.024451 
L 161.572826 119.316371 
L 165.211957 116.082374 
L 168.851087 113.932013 
L 172.490217 113.233579 
L 176.129348 110.2887 
L 179.768478 107.027399 
L 183.407609 105.905585 
L 187.046739 102.739032 
L 190.68587 99.605405 
L 194.325 97.587573 
L 197.96413 96.882868 
L 201.603261 94.22723 
L 205.242391 91.298237 
L 208.881522 88.801918 
L 212.520652 86.155158 
L 216.159783 83.267376 
L 219.798913 81.427155 
L 223.438043 80.864846 
L 227.077174 78.706773 
L 230.716304 76.458594 
L 234.355435 74.366672 
L 237.994565 72.297428 
L 241.633696 70.052564 
L 245.272826 68.672467 
L 248.911957 68.272989 
L 252.551087 66.575116 
L 256.190217 64.712064 
L 259.829348 63.076412 
L 263.468478 61.302775 
L 267.107609 59.294856 
L 270.746739 57.998704 
L 274.38587 57.55059 
" style="fill:none;stroke:#b22222;stroke-linecap:square;"/>
   </g>
   <g id="patch_3">
    <path d="M 26.925 226.158115 
L 26.925 8.718115 
" style="fill:none;stroke:#000000;stroke-linecap:square;stroke-linejoin:miter;stroke-width:0.8;"/>
   </g>
   <g id="patch_4">
    <path d="M 361.725 226.158115 
L 361.725 8.718115 
" style="fill:none;stroke:#000000;stroke-linecap:square;stroke-linejoin:miter;stroke-width:0.8;"/>
   </g>
   <g id="patch_5">
    <path d="M 26.925 226.158115 
L 361.725 226.158115 
" style="fill:none;stroke:#000000;stroke-linecap:square;stroke-linejoin:miter;stroke-width:0.8;"/>
   </g>
   <g id="patch_6">
    <path d="M 26.925 8.718115 
L 361.725 8.718115 
" style="fill:none;stroke:#000000;stroke-linecap:square;stroke-linejoin:miter;stroke-width:0.8;"/>
   </g>
   <g id="legend_1">
    <g id="patch_7">
     <path d="M 147.859375 221.158115 
L 354.725 221.158115 
Q 356.725 221.158115 356.725 219.158115 
L 356.725 161.045615 
Q 356.725 159.045615 354.725 159.045615 
L 147.859375 159.045615 
Q 145.859375 159.045615 145.859375 161.045615 
L 145.859375 219.158115 
Q 145.859375 221.158115 147.859375 221.158115 
z
" style="fill:#ffffff;opacity:0.8;stroke:#cccccc;stroke-linejoin:miter;"/>
    </g>
    <g id="text_12">
     <!-- Habitants de chaque groupe, en millions -->
     <g transform="translate(149.859375 170.644052)scale(0.1 -0.1)">
      <defs>
       <path d="M 628 4666 
L 1259 4666 
L 1259 2753 
L 3553 2753 
L 3553 4666 
L 4184 4666 
L 4184 0 
L 3553 0 
L 3553 2222 
L 1259 2222 
L 1259 0 
L 628 0 
L 628 4666 
z
" id="DejaVuSans-48" transform="scale(0.015625)"/>
       <path d="M 3513 2113 
L 3513 0 
L 2938 0 
L 2938 2094 
Q 2938 2591 2744 2837 
Q 2550 3084 2163 3084 
Q 1697 3084 1428 2787 
Q 1159 2491 1159 1978 
L 1159 0 
L 581 0 
L 581 3500 
L 1159 3500 
L 1159 2956 
Q 1366 3272 1645 3428 
Q 1925 3584 2291 3584 
Q 2894 3584 3203 3211 
Q 3513 2838 3513 2113 
z
" id="DejaVuSans-6e" transform="scale(0.015625)"/>
       <path d="M 2906 2969 
L 2906 4863 
L 3481 4863 
L 3481 0 
L 2906 0 
L 2906 525 
Q 2725 213 2448 61 
Q 2172 -91 1784 -91 
Q 1150 -91 751 415 
Q 353 922 353 1747 
Q 353 2572 751 3078 
Q 1150 3584 1784 3584 
Q 2172 3584 2448 3432 
Q 2725 3281 2906 2969 
z
M 947 1747 
Q 947 1113 1208 752 
Q 1469 391 1925 391 
Q 2381 391 2643 752 
Q 2906 1113 2906 1747 
Q 2906 2381 2643 2742 
Q 2381 3103 1925 3103 
Q 1469 3103 1208 2742 
Q 947 2381 947 1747 
z
" id="DejaVuSans-64" transform="scale(0.015625)"/>
       <path d="M 3122 3366 
L 3122 2828 
Q 2878 2963 2633 3030 
Q 2388 3097 2138 3097 
Q 1578 3097 1268 2742 
Q 959 2388 959 1747 
Q 959 1106 1268 751 
Q 1578 397 2138 397 
Q 2388 397 2633 464 
Q 2878 531 3122 666 
L 3122 134 
Q 2881 22 2623 -34 
Q 2366 -91 2075 -91 
Q 1284 -91 818 406 
Q 353 903 353 1747 
Q 353 2603 823 3093 
Q 1294 3584 2113 3584 
Q 2378 3584 2631 3529 
Q 2884 3475 3122 3366 
z
" id="DejaVuSans-63" transform="scale(0.015625)"/>
       <path d="M 3513 2113 
L 3513 0 
L 2938 0 
L 2938 2094 
Q 2938 2591 2744 2837 
Q 2550 3084 2163 3084 
Q 1697 3084 1428 2787 
Q 1159 2491 1159 1978 
L 1159 0 
L 581 0 
L 581 4863 
L 1159 4863 
L 1159 2956 
Q 1366 3272 1645 3428 
Q 1925 3584 2291 3584 
Q 2894 3584 3203 3211 
Q 3513 2838 3513 2113 
z
" id="DejaVuSans-68" transform="scale(0.015625)"/>
       <path d="M 947 1747 
Q 947 1113 1208 752 
Q 1469 391 1925 391 
Q 2381 391 2643 752 
Q 2906 1113 2906 1747 
Q 2906 2381 2643 2742 
Q 2381 3103 1925 3103 
Q 1469 3103 1208 2742 
Q 947 2381 947 1747 
z
M 2906 525 
Q 2725 213 2448 61 
Q 2172 -91 1784 -91 
Q 1150 -91 751 415 
Q 353 922 353 1747 
Q 353 2572 751 3078 
Q 1150 3584 1784 3584 
Q 2172 3584 2448 3432 
Q 2725 3281 2906 2969 
L 2906 3500 
L 3481 3500 
L 3481 -1331 
L 2906 -1331 
L 2906 525 
z
" id="DejaVuSans-71" transform="scale(0.015625)"/>
       <path d="M 2906 1791 
Q 2906 2416 2648 2759 
Q 2391 3103 1925 3103 
Q 1463 3103 1205 2759 
Q 947 2416 947 1791 
Q 947 1169 1205 825 
Q 1463 481 1925 481 
Q 2391 481 2648 825 
Q 2906 1169 2906 1791 
z
M 3481 434 
Q 3481 -459 3084 -895 
Q 2688 -1331 1869 -1331 
Q 1566 -1331 1297 -1286 
Q 1028 -1241 775 -1147 
L 775 -588 
Q 1028 -725 1275 -790 
Q 1522 -856 1778 -856 
Q 2344 -856 2625 -561 
Q 2906 -266 2906 331 
L 2906 616 
Q 2728 306 2450 153 
Q 2172 0 1784 0 
Q 1141 0 747 490 
Q 353 981 353 1791 
Q 353 2603 747 3093 
Q 1141 3584 1784 3584 
Q 2172 3584 2450 3431 
Q 2728 3278 2906 2969 
L 2906 3500 
L 3481 3500 
L 3481 434 
z
" id="DejaVuSans-67" transform="scale(0.015625)"/>
       <path d="M 750 794 
L 1409 794 
L 1409 256 
L 897 -744 
L 494 -744 
L 750 256 
L 750 794 
z
" id="DejaVuSans-2c" transform="scale(0.015625)"/>
      </defs>
      <use xlink:href="#DejaVuSans-48"/>
      <use x="75.195312" xlink:href="#DejaVuSans-61"/>
      <use x="136.474609" xlink:href="#DejaVuSans-62"/>
      <use x="199.951172" xlink:href="#DejaVuSans-69"/>
      <use x="227.734375" xlink:href="#DejaVuSans-74"/>
      <use x="266.943359" xlink:href="#DejaVuSans-61"/>
      <use x="328.222656" xlink:href="#DejaVuSans-6e"/>
      <use x="391.601562" xlink:href="#DejaVuSans-74"/>
      <use x="430.810547" xlink:href="#DejaVuSans-73"/>
      <use x="482.910156" xlink:href="#DejaVuSans-20"/>
      <use x="514.697266" xlink:href="#DejaVuSans-64"/>
      <use x="578.173828" xlink:href="#DejaVuSans-65"/>
      <use x="639.697266" xlink:href="#DejaVuSans-20"/>
      <use x="671.484375" xlink:href="#DejaVuSans-63"/>
      <use x="726.464844" xlink:href="#DejaVuSans-68"/>
      <use x="789.84375" xlink:href="#DejaVuSans-61"/>
      <use x="851.123047" xlink:href="#DejaVuSans-71"/>
      <use x="914.599609" xlink:href="#DejaVuSans-75"/>
      <use x="977.978516" xlink:href="#DejaVuSans-65"/>
      <use x="1039.501953" xlink:href="#DejaVuSans-20"/>
      <use x="1071.289062" xlink:href="#DejaVuSans-67"/>
      <use x="1134.765625" xlink:href="#DejaVuSans-72"/>
      <use x="1173.628906" xlink:href="#DejaVuSans-6f"/>
      <use x="1234.810547" xlink:href="#DejaVuSans-75"/>
      <use x="1298.189453" xlink:href="#DejaVuSans-70"/>
      <use x="1361.666016" xlink:href="#DejaVuSans-65"/>
      <use x="1423.189453" xlink:href="#DejaVuSans-2c"/>
      <use x="1454.976562" xlink:href="#DejaVuSans-20"/>
      <use x="1486.763672" xlink:href="#DejaVuSans-65"/>
      <use x="1548.287109" xlink:href="#DejaVuSans-6e"/>
      <use x="1611.666016" xlink:href="#DejaVuSans-20"/>
      <use x="1643.453125" xlink:href="#DejaVuSans-6d"/>
      <use x="1740.865234" xlink:href="#DejaVuSans-69"/>
      <use x="1768.648438" xlink:href="#DejaVuSans-6c"/>
      <use x="1796.431641" xlink:href="#DejaVuSans-6c"/>
      <use x="1824.214844" xlink:href="#DejaVuSans-69"/>
      <use x="1851.998047" xlink:href="#DejaVuSans-6f"/>
      <use x="1913.179688" xlink:href="#DejaVuSans-6e"/>
      <use x="1976.558594" xlink:href="#DejaVuSans-73"/>
     </g>
    </g>
    <g id="line2d_15">
     <path d="M 183.553125 181.822177 
L 203.553125 181.822177 
" style="fill:none;stroke:#4169e1;stroke-linecap:square;stroke-width:3;"/>
    </g>
    <g id="line2d_16"/>
    <g id="text_13">
     <!-- Non-vaccinés -->
     <g transform="translate(211.553125 185.322177)scale(0.1 -0.1)">
      <defs>
       <path d="M 628 4666 
L 1478 4666 
L 3547 763 
L 3547 4666 
L 4159 4666 
L 4159 0 
L 3309 0 
L 1241 3903 
L 1241 0 
L 628 0 
L 628 4666 
z
" id="DejaVuSans-4e" transform="scale(0.015625)"/>
       <path d="M 313 2009 
L 1997 2009 
L 1997 1497 
L 313 1497 
L 313 2009 
z
" id="DejaVuSans-2d" transform="scale(0.015625)"/>
       <path d="M 191 3500 
L 800 3500 
L 1894 563 
L 2988 3500 
L 3597 3500 
L 2284 0 
L 1503 0 
L 191 3500 
z
" id="DejaVuSans-76" transform="scale(0.015625)"/>
       <path d="M 3597 1894 
L 3597 1613 
L 953 1613 
Q 991 1019 1311 708 
Q 1631 397 2203 397 
Q 2534 397 2845 478 
Q 3156 559 3463 722 
L 3463 178 
Q 3153 47 2828 -22 
Q 2503 -91 2169 -91 
Q 1331 -91 842 396 
Q 353 884 353 1716 
Q 353 2575 817 3079 
Q 1281 3584 2069 3584 
Q 2775 3584 3186 3129 
Q 3597 2675 3597 1894 
z
M 3022 2063 
Q 3016 2534 2758 2815 
Q 2500 3097 2075 3097 
Q 1594 3097 1305 2825 
Q 1016 2553 972 2059 
L 3022 2063 
z
M 2466 5119 
L 3088 5119 
L 2070 3944 
L 1591 3944 
L 2466 5119 
z
" id="DejaVuSans-e9" transform="scale(0.015625)"/>
      </defs>
      <use xlink:href="#DejaVuSans-4e"/>
      <use x="74.804688" xlink:href="#DejaVuSans-6f"/>
      <use x="135.986328" xlink:href="#DejaVuSans-6e"/>
      <use x="199.365234" xlink:href="#DejaVuSans-2d"/>
      <use x="232.824219" xlink:href="#DejaVuSans-76"/>
      <use x="292.003906" xlink:href="#DejaVuSans-61"/>
      <use x="353.283203" xlink:href="#DejaVuSans-63"/>
      <use x="408.263672" xlink:href="#DejaVuSans-63"/>
      <use x="463.244141" xlink:href="#DejaVuSans-69"/>
      <use x="491.027344" xlink:href="#DejaVuSans-6e"/>
      <use x="554.40625" xlink:href="#DejaVuSans-e9"/>
      <use x="615.929688" xlink:href="#DejaVuSans-73"/>
     </g>
    </g>
    <g id="line2d_17">
     <path d="M 183.553125 196.500302 
L 203.553125 196.500302 
" style="fill:none;stroke:#000000;stroke-linecap:square;stroke-width:1.5;"/>
    </g>
    <g id="line2d_18"/>
    <g id="text_14">
     <!-- Primo dose -->
     <g transform="translate(211.553125 200.000302)scale(0.1 -0.1)">
      <defs>
       <path d="M 1259 4147 
L 1259 2394 
L 2053 2394 
Q 2494 2394 2734 2622 
Q 2975 2850 2975 3272 
Q 2975 3691 2734 3919 
Q 2494 4147 2053 4147 
L 1259 4147 
z
M 628 4666 
L 2053 4666 
Q 2838 4666 3239 4311 
Q 3641 3956 3641 3272 
Q 3641 2581 3239 2228 
Q 2838 1875 2053 1875 
L 1259 1875 
L 1259 0 
L 628 0 
L 628 4666 
z
" id="DejaVuSans-50" transform="scale(0.015625)"/>
      </defs>
      <use xlink:href="#DejaVuSans-50"/>
      <use x="58.552734" xlink:href="#DejaVuSans-72"/>
      <use x="99.666016" xlink:href="#DejaVuSans-69"/>
      <use x="127.449219" xlink:href="#DejaVuSans-6d"/>
      <use x="224.861328" xlink:href="#DejaVuSans-6f"/>
      <use x="286.042969" xlink:href="#DejaVuSans-20"/>
      <use x="317.830078" xlink:href="#DejaVuSans-64"/>
      <use x="381.306641" xlink:href="#DejaVuSans-6f"/>
      <use x="442.488281" xlink:href="#DejaVuSans-73"/>
      <use x="494.587891" xlink:href="#DejaVuSans-65"/>
     </g>
    </g>
    <g id="line2d_19">
     <path d="M 183.553125 211.578427 
L 203.553125 211.578427 
" style="fill:none;stroke:#b22222;stroke-linecap:square;"/>
    </g>
    <g id="line2d_20"/>
    <g id="text_15">
     <!-- Vaccination complète -->
     <g transform="translate(211.553125 215.078427)scale(0.1 -0.1)">
      <defs>
       <path d="M 1831 0 
L 50 4666 
L 709 4666 
L 2188 738 
L 3669 4666 
L 4325 4666 
L 2547 0 
L 1831 0 
z
" id="DejaVuSans-56" transform="scale(0.015625)"/>
       <path d="M 3597 1894 
L 3597 1613 
L 953 1613 
Q 991 1019 1311 708 
Q 1631 397 2203 397 
Q 2534 397 2845 478 
Q 3156 559 3463 722 
L 3463 178 
Q 3153 47 2828 -22 
Q 2503 -91 2169 -91 
Q 1331 -91 842 396 
Q 353 884 353 1716 
Q 353 2575 817 3079 
Q 1281 3584 2069 3584 
Q 2775 3584 3186 3129 
Q 3597 2675 3597 1894 
z
M 3022 2063 
Q 3016 2534 2758 2815 
Q 2500 3097 2075 3097 
Q 1594 3097 1305 2825 
Q 1016 2553 972 2059 
L 3022 2063 
z
M 1579 5119 
L 2460 3950 
L 1982 3950 
L 963 5119 
L 1579 5119 
z
" id="DejaVuSans-e8" transform="scale(0.015625)"/>
      </defs>
      <use xlink:href="#DejaVuSans-56"/>
      <use x="60.658203" xlink:href="#DejaVuSans-61"/>
      <use x="121.9375" xlink:href="#DejaVuSans-63"/>
      <use x="176.917969" xlink:href="#DejaVuSans-63"/>
      <use x="231.898438" xlink:href="#DejaVuSans-69"/>
      <use x="259.681641" xlink:href="#DejaVuSans-6e"/>
      <use x="323.060547" xlink:href="#DejaVuSans-61"/>
      <use x="384.339844" xlink:href="#DejaVuSans-74"/>
      <use x="423.548828" xlink:href="#DejaVuSans-69"/>
      <use x="451.332031" xlink:href="#DejaVuSans-6f"/>
      <use x="512.513672" xlink:href="#DejaVuSans-6e"/>
      <use x="575.892578" xlink:href="#DejaVuSans-20"/>
      <use x="607.679688" xlink:href="#DejaVuSans-63"/>
      <use x="662.660156" xlink:href="#DejaVuSans-6f"/>
      <use x="723.841797" xlink:href="#DejaVuSans-6d"/>
      <use x="821.253906" xlink:href="#DejaVuSans-70"/>
      <use x="884.730469" xlink:href="#DejaVuSans-6c"/>
      <use x="912.513672" xlink:href="#DejaVuSans-e8"/>
      <use x="974.037109" xlink:href="#DejaVuSans-74"/>
      <use x="1013.246094" xlink:href="#DejaVuSans-65"/>
     </g>
    </g>
   </g>
  </g>
 </g>
 <defs>
  <clipPath id="p3bc14d214f">
   <rect height="217.44" width="334.8" x="26.925" y="8.718115"/>
  </clipPath>
 </defs>
</svg>
