<?xml version="1.0" encoding="utf-8" standalone="no"?>
<!DOCTYPE svg PUBLIC "-//W3C//DTD SVG 1.1//EN"
  "http://www.w3.org/Graphics/SVG/1.1/DTD/svg11.dtd">
<svg height="297.809391pt" version="1.1" viewBox="0 0 375.2875 297.809391" width="375.2875pt" xmlns="http://www.w3.org/2000/svg" xmlns:xlink="http://www.w3.org/1999/xlink">
 <metadata>
  <rdf:RDF xmlns:cc="http://creativecommons.org/ns#" xmlns:dc="http://purl.org/dc/elements/1.1/" xmlns:rdf="http://www.w3.org/1999/02/22-rdf-syntax-ns#">
   <cc:Work>
    <dc:type rdf:resource="http://purl.org/dc/dcmitype/StillImage"/>
    <dc:date>2021-09-08T23:42:00.061027</dc:date>
    <dc:format>image/svg+xml</dc:format>
    <dc:creator>
     <cc:Agent>
      <dc:title>Matplotlib v3.4.1, https://matplotlib.org/</dc:title>
     </cc:Agent>
    </dc:creator>
   </cc:Work>
  </rdf:RDF>
 </metadata>
 <defs>
  <style type="text/css">*{stroke-linecap:butt;stroke-linejoin:round;}</style>
 </defs>
 <g id="figure_1">
  <g id="patch_1">
   <path d="M 0 297.809391 
L 375.2875 297.809391 
L 375.2875 0 
L 0 0 
z
" style="fill:#ffffff;"/>
  </g>
  <g id="axes_1">
   <g id="patch_2">
    <path d="M 33.2875 224.64 
L 368.0875 224.64 
L 368.0875 7.2 
L 33.2875 7.2 
z
" style="fill:#ffffff;"/>
   </g>
   <g id="matplotlib.axis_1">
    <g id="xtick_1">
     <g id="line2d_1">
      <defs>
       <path d="M 0 0 
L 0 3.5 
" id="mbda6401d4f" style="stroke:#000000;stroke-width:0.8;"/>
      </defs>
      <g>
       <use style="stroke:#000000;stroke-width:0.8;" x="91.513587" xlink:href="#mbda6401d4f" y="224.64"/>
      </g>
     </g>
     <g id="text_1">
      <!-- 1er juillet -->
      <g transform="translate(63.420456 270.478945)rotate(-45)scale(0.1 -0.1)">
       <defs>
        <path d="M 794 531 
L 1825 531 
L 1825 4091 
L 703 3866 
L 703 4441 
L 1819 4666 
L 2450 4666 
L 2450 531 
L 3481 531 
L 3481 0 
L 794 0 
L 794 531 
z
" id="DejaVuSans-31" transform="scale(0.015625)"/>
        <path d="M 3597 1894 
L 3597 1613 
L 953 1613 
Q 991 1019 1311 708 
Q 1631 397 2203 397 
Q 2534 397 2845 478 
Q 3156 559 3463 722 
L 3463 178 
Q 3153 47 2828 -22 
Q 2503 -91 2169 -91 
Q 1331 -91 842 396 
Q 353 884 353 1716 
Q 353 2575 817 3079 
Q 1281 3584 2069 3584 
Q 2775 3584 3186 3129 
Q 3597 2675 3597 1894 
z
M 3022 2063 
Q 3016 2534 2758 2815 
Q 2500 3097 2075 3097 
Q 1594 3097 1305 2825 
Q 1016 2553 972 2059 
L 3022 2063 
z
" id="DejaVuSans-65" transform="scale(0.015625)"/>
        <path d="M 2631 2963 
Q 2534 3019 2420 3045 
Q 2306 3072 2169 3072 
Q 1681 3072 1420 2755 
Q 1159 2438 1159 1844 
L 1159 0 
L 581 0 
L 581 3500 
L 1159 3500 
L 1159 2956 
Q 1341 3275 1631 3429 
Q 1922 3584 2338 3584 
Q 2397 3584 2469 3576 
Q 2541 3569 2628 3553 
L 2631 2963 
z
" id="DejaVuSans-72" transform="scale(0.015625)"/>
        <path id="DejaVuSans-20" transform="scale(0.015625)"/>
        <path d="M 603 3500 
L 1178 3500 
L 1178 -63 
Q 1178 -731 923 -1031 
Q 669 -1331 103 -1331 
L -116 -1331 
L -116 -844 
L 38 -844 
Q 366 -844 484 -692 
Q 603 -541 603 -63 
L 603 3500 
z
M 603 4863 
L 1178 4863 
L 1178 4134 
L 603 4134 
L 603 4863 
z
" id="DejaVuSans-6a" transform="scale(0.015625)"/>
        <path d="M 544 1381 
L 544 3500 
L 1119 3500 
L 1119 1403 
Q 1119 906 1312 657 
Q 1506 409 1894 409 
Q 2359 409 2629 706 
Q 2900 1003 2900 1516 
L 2900 3500 
L 3475 3500 
L 3475 0 
L 2900 0 
L 2900 538 
Q 2691 219 2414 64 
Q 2138 -91 1772 -91 
Q 1169 -91 856 284 
Q 544 659 544 1381 
z
M 1991 3584 
L 1991 3584 
z
" id="DejaVuSans-75" transform="scale(0.015625)"/>
        <path d="M 603 3500 
L 1178 3500 
L 1178 0 
L 603 0 
L 603 3500 
z
M 603 4863 
L 1178 4863 
L 1178 4134 
L 603 4134 
L 603 4863 
z
" id="DejaVuSans-69" transform="scale(0.015625)"/>
        <path d="M 603 4863 
L 1178 4863 
L 1178 0 
L 603 0 
L 603 4863 
z
" id="DejaVuSans-6c" transform="scale(0.015625)"/>
        <path d="M 1172 4494 
L 1172 3500 
L 2356 3500 
L 2356 3053 
L 1172 3053 
L 1172 1153 
Q 1172 725 1289 603 
Q 1406 481 1766 481 
L 2356 481 
L 2356 0 
L 1766 0 
Q 1100 0 847 248 
Q 594 497 594 1153 
L 594 3053 
L 172 3053 
L 172 3500 
L 594 3500 
L 594 4494 
L 1172 4494 
z
" id="DejaVuSans-74" transform="scale(0.015625)"/>
       </defs>
       <use xlink:href="#DejaVuSans-31"/>
       <use x="63.623047" xlink:href="#DejaVuSans-65"/>
       <use x="125.146484" xlink:href="#DejaVuSans-72"/>
       <use x="166.259766" xlink:href="#DejaVuSans-20"/>
       <use x="198.046875" xlink:href="#DejaVuSans-6a"/>
       <use x="225.830078" xlink:href="#DejaVuSans-75"/>
       <use x="289.208984" xlink:href="#DejaVuSans-69"/>
       <use x="316.992188" xlink:href="#DejaVuSans-6c"/>
       <use x="344.775391" xlink:href="#DejaVuSans-6c"/>
       <use x="372.558594" xlink:href="#DejaVuSans-65"/>
       <use x="434.082031" xlink:href="#DejaVuSans-74"/>
      </g>
     </g>
    </g>
    <g id="xtick_2">
     <g id="line2d_2">
      <g>
       <use style="stroke:#000000;stroke-width:0.8;" x="204.32663" xlink:href="#mbda6401d4f" y="224.64"/>
      </g>
     </g>
     <g id="text_2">
      <!-- 1er août -->
      <g transform="translate(179.782291 266.930153)rotate(-45)scale(0.1 -0.1)">
       <defs>
        <path d="M 2194 1759 
Q 1497 1759 1228 1600 
Q 959 1441 959 1056 
Q 959 750 1161 570 
Q 1363 391 1709 391 
Q 2188 391 2477 730 
Q 2766 1069 2766 1631 
L 2766 1759 
L 2194 1759 
z
M 3341 1997 
L 3341 0 
L 2766 0 
L 2766 531 
Q 2569 213 2275 61 
Q 1981 -91 1556 -91 
Q 1019 -91 701 211 
Q 384 513 384 1019 
Q 384 1609 779 1909 
Q 1175 2209 1959 2209 
L 2766 2209 
L 2766 2266 
Q 2766 2663 2505 2880 
Q 2244 3097 1772 3097 
Q 1472 3097 1187 3025 
Q 903 2953 641 2809 
L 641 3341 
Q 956 3463 1253 3523 
Q 1550 3584 1831 3584 
Q 2591 3584 2966 3190 
Q 3341 2797 3341 1997 
z
" id="DejaVuSans-61" transform="scale(0.015625)"/>
        <path d="M 1959 3097 
Q 1497 3097 1228 2736 
Q 959 2375 959 1747 
Q 959 1119 1226 758 
Q 1494 397 1959 397 
Q 2419 397 2687 759 
Q 2956 1122 2956 1747 
Q 2956 2369 2687 2733 
Q 2419 3097 1959 3097 
z
M 1959 3584 
Q 2709 3584 3137 3096 
Q 3566 2609 3566 1747 
Q 3566 888 3137 398 
Q 2709 -91 1959 -91 
Q 1206 -91 779 398 
Q 353 888 353 1747 
Q 353 2609 779 3096 
Q 1206 3584 1959 3584 
z
" id="DejaVuSans-6f" transform="scale(0.015625)"/>
        <path d="M 544 1381 
L 544 3500 
L 1119 3500 
L 1119 1403 
Q 1119 906 1312 657 
Q 1506 409 1894 409 
Q 2359 409 2629 706 
Q 2900 1003 2900 1516 
L 2900 3500 
L 3475 3500 
L 3475 0 
L 2900 0 
L 2900 538 
Q 2691 219 2414 64 
Q 2138 -91 1772 -91 
Q 1169 -91 856 284 
Q 544 659 544 1381 
z
M 1991 3584 
L 1991 3584 
z
M 1753 5119 
L 2215 5119 
L 2981 3944 
L 2547 3944 
L 1984 4709 
L 1422 3944 
L 987 3944 
L 1753 5119 
z
" id="DejaVuSans-fb" transform="scale(0.015625)"/>
       </defs>
       <use xlink:href="#DejaVuSans-31"/>
       <use x="63.623047" xlink:href="#DejaVuSans-65"/>
       <use x="125.146484" xlink:href="#DejaVuSans-72"/>
       <use x="166.259766" xlink:href="#DejaVuSans-20"/>
       <use x="198.046875" xlink:href="#DejaVuSans-61"/>
       <use x="259.326172" xlink:href="#DejaVuSans-6f"/>
       <use x="320.507812" xlink:href="#DejaVuSans-fb"/>
       <use x="383.886719" xlink:href="#DejaVuSans-74"/>
      </g>
     </g>
    </g>
    <g id="xtick_3">
     <g id="line2d_3">
      <g>
       <use style="stroke:#000000;stroke-width:0.8;" x="317.139674" xlink:href="#mbda6401d4f" y="224.64"/>
      </g>
     </g>
     <g id="text_3">
      <!-- 1er septembre -->
      <g transform="translate(270.386657 289.13883)rotate(-45)scale(0.1 -0.1)">
       <defs>
        <path d="M 2834 3397 
L 2834 2853 
Q 2591 2978 2328 3040 
Q 2066 3103 1784 3103 
Q 1356 3103 1142 2972 
Q 928 2841 928 2578 
Q 928 2378 1081 2264 
Q 1234 2150 1697 2047 
L 1894 2003 
Q 2506 1872 2764 1633 
Q 3022 1394 3022 966 
Q 3022 478 2636 193 
Q 2250 -91 1575 -91 
Q 1294 -91 989 -36 
Q 684 19 347 128 
L 347 722 
Q 666 556 975 473 
Q 1284 391 1588 391 
Q 1994 391 2212 530 
Q 2431 669 2431 922 
Q 2431 1156 2273 1281 
Q 2116 1406 1581 1522 
L 1381 1569 
Q 847 1681 609 1914 
Q 372 2147 372 2553 
Q 372 3047 722 3315 
Q 1072 3584 1716 3584 
Q 2034 3584 2315 3537 
Q 2597 3491 2834 3397 
z
" id="DejaVuSans-73" transform="scale(0.015625)"/>
        <path d="M 1159 525 
L 1159 -1331 
L 581 -1331 
L 581 3500 
L 1159 3500 
L 1159 2969 
Q 1341 3281 1617 3432 
Q 1894 3584 2278 3584 
Q 2916 3584 3314 3078 
Q 3713 2572 3713 1747 
Q 3713 922 3314 415 
Q 2916 -91 2278 -91 
Q 1894 -91 1617 61 
Q 1341 213 1159 525 
z
M 3116 1747 
Q 3116 2381 2855 2742 
Q 2594 3103 2138 3103 
Q 1681 3103 1420 2742 
Q 1159 2381 1159 1747 
Q 1159 1113 1420 752 
Q 1681 391 2138 391 
Q 2594 391 2855 752 
Q 3116 1113 3116 1747 
z
" id="DejaVuSans-70" transform="scale(0.015625)"/>
        <path d="M 3328 2828 
Q 3544 3216 3844 3400 
Q 4144 3584 4550 3584 
Q 5097 3584 5394 3201 
Q 5691 2819 5691 2113 
L 5691 0 
L 5113 0 
L 5113 2094 
Q 5113 2597 4934 2840 
Q 4756 3084 4391 3084 
Q 3944 3084 3684 2787 
Q 3425 2491 3425 1978 
L 3425 0 
L 2847 0 
L 2847 2094 
Q 2847 2600 2669 2842 
Q 2491 3084 2119 3084 
Q 1678 3084 1418 2786 
Q 1159 2488 1159 1978 
L 1159 0 
L 581 0 
L 581 3500 
L 1159 3500 
L 1159 2956 
Q 1356 3278 1631 3431 
Q 1906 3584 2284 3584 
Q 2666 3584 2933 3390 
Q 3200 3197 3328 2828 
z
" id="DejaVuSans-6d" transform="scale(0.015625)"/>
        <path d="M 3116 1747 
Q 3116 2381 2855 2742 
Q 2594 3103 2138 3103 
Q 1681 3103 1420 2742 
Q 1159 2381 1159 1747 
Q 1159 1113 1420 752 
Q 1681 391 2138 391 
Q 2594 391 2855 752 
Q 3116 1113 3116 1747 
z
M 1159 2969 
Q 1341 3281 1617 3432 
Q 1894 3584 2278 3584 
Q 2916 3584 3314 3078 
Q 3713 2572 3713 1747 
Q 3713 922 3314 415 
Q 2916 -91 2278 -91 
Q 1894 -91 1617 61 
Q 1341 213 1159 525 
L 1159 0 
L 581 0 
L 581 4863 
L 1159 4863 
L 1159 2969 
z
" id="DejaVuSans-62" transform="scale(0.015625)"/>
       </defs>
       <use xlink:href="#DejaVuSans-31"/>
       <use x="63.623047" xlink:href="#DejaVuSans-65"/>
       <use x="125.146484" xlink:href="#DejaVuSans-72"/>
       <use x="166.259766" xlink:href="#DejaVuSans-20"/>
       <use x="198.046875" xlink:href="#DejaVuSans-73"/>
       <use x="250.146484" xlink:href="#DejaVuSans-65"/>
       <use x="311.669922" xlink:href="#DejaVuSans-70"/>
       <use x="375.146484" xlink:href="#DejaVuSans-74"/>
       <use x="414.355469" xlink:href="#DejaVuSans-65"/>
       <use x="475.878906" xlink:href="#DejaVuSans-6d"/>
       <use x="573.291016" xlink:href="#DejaVuSans-62"/>
       <use x="636.767578" xlink:href="#DejaVuSans-72"/>
       <use x="675.630859" xlink:href="#DejaVuSans-65"/>
      </g>
     </g>
    </g>
   </g>
   <g id="matplotlib.axis_2">
    <g id="ytick_1">
     <g id="line2d_4">
      <defs>
       <path d="M 0 0 
L -3.5 0 
" id="m991253fe11" style="stroke:#000000;stroke-width:0.8;"/>
      </defs>
      <g>
       <use style="stroke:#000000;stroke-width:0.8;" x="33.2875" xlink:href="#m991253fe11" y="217.301051"/>
      </g>
     </g>
     <g id="text_4">
      <!-- 0 -->
      <g transform="translate(19.925 221.100269)scale(0.1 -0.1)">
       <defs>
        <path d="M 2034 4250 
Q 1547 4250 1301 3770 
Q 1056 3291 1056 2328 
Q 1056 1369 1301 889 
Q 1547 409 2034 409 
Q 2525 409 2770 889 
Q 3016 1369 3016 2328 
Q 3016 3291 2770 3770 
Q 2525 4250 2034 4250 
z
M 2034 4750 
Q 2819 4750 3233 4129 
Q 3647 3509 3647 2328 
Q 3647 1150 3233 529 
Q 2819 -91 2034 -91 
Q 1250 -91 836 529 
Q 422 1150 422 2328 
Q 422 3509 836 4129 
Q 1250 4750 2034 4750 
z
" id="DejaVuSans-30" transform="scale(0.015625)"/>
       </defs>
       <use xlink:href="#DejaVuSans-30"/>
      </g>
     </g>
    </g>
    <g id="ytick_2">
     <g id="line2d_5">
      <g>
       <use style="stroke:#000000;stroke-width:0.8;" x="33.2875" xlink:href="#m991253fe11" y="180.053296"/>
      </g>
     </g>
     <g id="text_5">
      <!-- 50 -->
      <g transform="translate(13.5625 183.852515)scale(0.1 -0.1)">
       <defs>
        <path d="M 691 4666 
L 3169 4666 
L 3169 4134 
L 1269 4134 
L 1269 2991 
Q 1406 3038 1543 3061 
Q 1681 3084 1819 3084 
Q 2600 3084 3056 2656 
Q 3513 2228 3513 1497 
Q 3513 744 3044 326 
Q 2575 -91 1722 -91 
Q 1428 -91 1123 -41 
Q 819 9 494 109 
L 494 744 
Q 775 591 1075 516 
Q 1375 441 1709 441 
Q 2250 441 2565 725 
Q 2881 1009 2881 1497 
Q 2881 1984 2565 2268 
Q 2250 2553 1709 2553 
Q 1456 2553 1204 2497 
Q 953 2441 691 2322 
L 691 4666 
z
" id="DejaVuSans-35" transform="scale(0.015625)"/>
       </defs>
       <use xlink:href="#DejaVuSans-35"/>
       <use x="63.623047" xlink:href="#DejaVuSans-30"/>
      </g>
     </g>
    </g>
    <g id="ytick_3">
     <g id="line2d_6">
      <g>
       <use style="stroke:#000000;stroke-width:0.8;" x="33.2875" xlink:href="#m991253fe11" y="142.805541"/>
      </g>
     </g>
     <g id="text_6">
      <!-- 100 -->
      <g transform="translate(7.2 146.60476)scale(0.1 -0.1)">
       <use xlink:href="#DejaVuSans-31"/>
       <use x="63.623047" xlink:href="#DejaVuSans-30"/>
       <use x="127.246094" xlink:href="#DejaVuSans-30"/>
      </g>
     </g>
    </g>
    <g id="ytick_4">
     <g id="line2d_7">
      <g>
       <use style="stroke:#000000;stroke-width:0.8;" x="33.2875" xlink:href="#m991253fe11" y="105.557786"/>
      </g>
     </g>
     <g id="text_7">
      <!-- 150 -->
      <g transform="translate(7.2 109.357005)scale(0.1 -0.1)">
       <use xlink:href="#DejaVuSans-31"/>
       <use x="63.623047" xlink:href="#DejaVuSans-35"/>
       <use x="127.246094" xlink:href="#DejaVuSans-30"/>
      </g>
     </g>
    </g>
    <g id="ytick_5">
     <g id="line2d_8">
      <g>
       <use style="stroke:#000000;stroke-width:0.8;" x="33.2875" xlink:href="#m991253fe11" y="68.310031"/>
      </g>
     </g>
     <g id="text_8">
      <!-- 200 -->
      <g transform="translate(7.2 72.10925)scale(0.1 -0.1)">
       <defs>
        <path d="M 1228 531 
L 3431 531 
L 3431 0 
L 469 0 
L 469 531 
Q 828 903 1448 1529 
Q 2069 2156 2228 2338 
Q 2531 2678 2651 2914 
Q 2772 3150 2772 3378 
Q 2772 3750 2511 3984 
Q 2250 4219 1831 4219 
Q 1534 4219 1204 4116 
Q 875 4013 500 3803 
L 500 4441 
Q 881 4594 1212 4672 
Q 1544 4750 1819 4750 
Q 2544 4750 2975 4387 
Q 3406 4025 3406 3419 
Q 3406 3131 3298 2873 
Q 3191 2616 2906 2266 
Q 2828 2175 2409 1742 
Q 1991 1309 1228 531 
z
" id="DejaVuSans-32" transform="scale(0.015625)"/>
       </defs>
       <use xlink:href="#DejaVuSans-32"/>
       <use x="63.623047" xlink:href="#DejaVuSans-30"/>
       <use x="127.246094" xlink:href="#DejaVuSans-30"/>
      </g>
     </g>
    </g>
    <g id="ytick_6">
     <g id="line2d_9">
      <g>
       <use style="stroke:#000000;stroke-width:0.8;" x="33.2875" xlink:href="#m991253fe11" y="31.062277"/>
      </g>
     </g>
     <g id="text_9">
      <!-- 250 -->
      <g transform="translate(7.2 34.861495)scale(0.1 -0.1)">
       <use xlink:href="#DejaVuSans-32"/>
       <use x="63.623047" xlink:href="#DejaVuSans-35"/>
       <use x="127.246094" xlink:href="#DejaVuSans-30"/>
      </g>
     </g>
    </g>
   </g>
   <g id="line2d_10">
    <path clip-path="url(#pef0c011095)" d="M -1 187.280137 
L 0.535326 189.736276 
L 4.174457 168.737723 
L 7.813587 176.079415 
L 11.452717 178.054919 
L 15.091848 183.010215 
L 18.730978 177.906954 
L 22.370109 187.480593 
L 26.009239 193.479006 
L 29.64837 185.777226 
L 33.2875 187.593333 
L 36.92663 190.826366 
L 40.565761 192.924633 
L 44.204891 194.075245 
L 47.844022 197.328302 
L 51.483152 199.295236 
L 55.122283 196.32759 
L 58.761413 194.304074 
L 62.400543 198.869437 
L 66.039674 196.827158 
L 69.678804 199.383273 
L 73.317935 201.179039 
L 76.957065 203.696703 
L 80.596196 194.430675 
L 84.235326 196.006248 
L 87.874457 198.895354 
L 91.513587 202.037614 
L 95.152717 198.644729 
L 98.791848 205.395745 
L 102.430978 206.480516 
L 106.070109 196.449269 
L 109.709239 198.567147 
L 113.34837 198.678313 
L 116.9875 199.005588 
L 120.62663 199.792217 
L 124.265761 202.000942 
L 127.904891 201.517323 
L 131.544022 195.230883 
L 135.183152 189.780392 
L 138.822283 196.818274 
L 142.461413 190.34291 
L 146.100543 185.430103 
L 149.739674 184.095864 
L 153.378804 189.261102 
L 157.017935 173.108273 
L 160.657065 176.079168 
L 164.296196 166.870226 
L 167.935326 166.303623 
L 171.574457 157.973311 
L 175.213587 159.465235 
L 178.852717 149.955934 
L 182.491848 137.896671 
L 186.130978 131.740428 
L 189.770109 133.176631 
L 193.409239 111.511294 
L 197.04837 110.935105 
L 200.6875 117.710942 
L 204.32663 127.632099 
L 207.965761 89.787441 
L 211.604891 69.904592 
L 215.244022 77.924596 
L 218.883152 76.168038 
L 222.522283 84.291885 
L 226.161413 88.176936 
L 229.800543 110.784392 
L 233.439674 57.272585 
L 237.078804 36.746291 
L 240.717935 34.219049 
L 244.357065 31.422887 
L 247.996196 18.868395 
L 251.635326 56.318585 
L 255.274457 67.958956 
L 258.913587 23.816746 
L 262.552717 22.90119 
L 266.191848 17.083636 
L 269.830978 39.11454 
L 273.470109 32.907579 
L 277.109239 55.203107 
L 280.74837 55.979498 
" style="fill:none;stroke:#3cb371;stroke-linecap:square;stroke-width:3;"/>
   </g>
   <g id="line2d_11"/>
   <g id="line2d_12">
    <path clip-path="url(#pef0c011095)" d="M -1 209.039993 
L 0.535326 209.048709 
L 4.174457 201.574801 
L 7.813587 205.916461 
L 11.452717 204.837341 
L 15.091848 208.326569 
L 18.730978 206.686309 
L 22.370109 213.610265 
L 26.009239 214.236624 
L 29.64837 207.069754 
L 33.2875 212.595564 
L 36.92663 208.665559 
L 40.565761 208.864495 
L 44.204891 211.828253 
L 47.844022 211.377973 
L 51.483152 211.939103 
L 55.122283 209.427604 
L 58.761413 211.151005 
L 62.400543 211.282715 
L 66.039674 210.922345 
L 69.678804 213.001709 
L 73.317935 214.008515 
L 76.957065 212.622754 
L 80.596196 210.906893 
L 84.235326 212.850283 
L 87.874457 212.520153 
L 91.513587 214.756364 
L 95.152717 211.112189 
L 98.791848 214.461073 
L 102.430978 212.86525 
L 106.070109 214.542887 
L 109.709239 213.464243 
L 113.34837 214.305731 
L 116.9875 214.005878 
L 120.62663 210.176807 
L 124.265761 213.456589 
L 127.904891 212.792131 
L 131.544022 214.58696 
L 135.183152 210.680493 
L 138.822283 212.770906 
L 142.461413 210.650552 
L 146.100543 209.876435 
L 149.739674 213.039545 
L 153.378804 213.367989 
L 157.017935 211.951313 
L 160.657065 211.182843 
L 164.296196 207.860141 
L 167.935326 209.711467 
L 171.574457 209.591047 
L 175.213587 212.954337 
L 178.852717 208.645273 
L 182.491848 205.878438 
L 186.130978 196.98446 
L 189.770109 203.070573 
L 193.409239 203.332924 
L 197.04837 205.827935 
L 200.6875 203.98623 
L 204.32663 209.687684 
L 207.965761 201.330728 
L 211.604891 199.681211 
L 215.244022 200.857694 
L 218.883152 196.919896 
L 222.522283 194.718498 
L 226.161413 199.452387 
L 229.800543 203.559193 
L 233.439674 193.016581 
L 237.078804 195.93543 
L 240.717935 196.37672 
L 244.357065 198.100969 
L 247.996196 198.738514 
L 251.635326 198.439114 
L 255.274457 201.225429 
L 258.913587 195.272671 
L 262.552717 194.428643 
L 266.191848 195.22456 
L 269.830978 197.658884 
L 273.470109 198.044848 
L 277.109239 204.406116 
L 280.74837 200.009273 
" style="fill:none;stroke:#b22222;stroke-linecap:square;"/>
   </g>
   <g id="patch_3">
    <path d="M 33.2875 224.64 
L 33.2875 7.2 
" style="fill:none;stroke:#000000;stroke-linecap:square;stroke-linejoin:miter;stroke-width:0.8;"/>
   </g>
   <g id="patch_4">
    <path d="M 368.0875 224.64 
L 368.0875 7.2 
" style="fill:none;stroke:#000000;stroke-linecap:square;stroke-linejoin:miter;stroke-width:0.8;"/>
   </g>
   <g id="patch_5">
    <path d="M 33.2875 224.64 
L 368.0875 224.64 
" style="fill:none;stroke:#000000;stroke-linecap:square;stroke-linejoin:miter;stroke-width:0.8;"/>
   </g>
   <g id="patch_6">
    <path d="M 33.2875 7.2 
L 368.0875 7.2 
" style="fill:none;stroke:#000000;stroke-linecap:square;stroke-linejoin:miter;stroke-width:0.8;"/>
   </g>
   <g id="legend_1">
    <g id="patch_7">
     <path d="M 40.2875 74.7125 
L 179.765625 74.7125 
Q 181.765625 74.7125 181.765625 72.7125 
L 181.765625 14.2 
Q 181.765625 12.2 179.765625 12.2 
L 40.2875 12.2 
Q 38.2875 12.2 38.2875 14.2 
L 38.2875 72.7125 
Q 38.2875 74.7125 40.2875 74.7125 
z
" style="fill:#ffffff;opacity:0.8;stroke:#cccccc;stroke-linejoin:miter;"/>
    </g>
    <g id="text_10">
     <!-- Hospitalisés (pour 10M) -->
     <g transform="translate(50.736719 24.198437)scale(0.1 -0.1)">
      <defs>
       <path d="M 628 4666 
L 1259 4666 
L 1259 2753 
L 3553 2753 
L 3553 4666 
L 4184 4666 
L 4184 0 
L 3553 0 
L 3553 2222 
L 1259 2222 
L 1259 0 
L 628 0 
L 628 4666 
z
" id="DejaVuSans-48" transform="scale(0.015625)"/>
       <path d="M 3597 1894 
L 3597 1613 
L 953 1613 
Q 991 1019 1311 708 
Q 1631 397 2203 397 
Q 2534 397 2845 478 
Q 3156 559 3463 722 
L 3463 178 
Q 3153 47 2828 -22 
Q 2503 -91 2169 -91 
Q 1331 -91 842 396 
Q 353 884 353 1716 
Q 353 2575 817 3079 
Q 1281 3584 2069 3584 
Q 2775 3584 3186 3129 
Q 3597 2675 3597 1894 
z
M 3022 2063 
Q 3016 2534 2758 2815 
Q 2500 3097 2075 3097 
Q 1594 3097 1305 2825 
Q 1016 2553 972 2059 
L 3022 2063 
z
M 2466 5119 
L 3088 5119 
L 2070 3944 
L 1591 3944 
L 2466 5119 
z
" id="DejaVuSans-e9" transform="scale(0.015625)"/>
       <path d="M 1984 4856 
Q 1566 4138 1362 3434 
Q 1159 2731 1159 2009 
Q 1159 1288 1364 580 
Q 1569 -128 1984 -844 
L 1484 -844 
Q 1016 -109 783 600 
Q 550 1309 550 2009 
Q 550 2706 781 3412 
Q 1013 4119 1484 4856 
L 1984 4856 
z
" id="DejaVuSans-28" transform="scale(0.015625)"/>
       <path d="M 628 4666 
L 1569 4666 
L 2759 1491 
L 3956 4666 
L 4897 4666 
L 4897 0 
L 4281 0 
L 4281 4097 
L 3078 897 
L 2444 897 
L 1241 4097 
L 1241 0 
L 628 0 
L 628 4666 
z
" id="DejaVuSans-4d" transform="scale(0.015625)"/>
       <path d="M 513 4856 
L 1013 4856 
Q 1481 4119 1714 3412 
Q 1947 2706 1947 2009 
Q 1947 1309 1714 600 
Q 1481 -109 1013 -844 
L 513 -844 
Q 928 -128 1133 580 
Q 1338 1288 1338 2009 
Q 1338 2731 1133 3434 
Q 928 4138 513 4856 
z
" id="DejaVuSans-29" transform="scale(0.015625)"/>
      </defs>
      <use xlink:href="#DejaVuSans-48"/>
      <use x="75.195312" xlink:href="#DejaVuSans-6f"/>
      <use x="136.376953" xlink:href="#DejaVuSans-73"/>
      <use x="188.476562" xlink:href="#DejaVuSans-70"/>
      <use x="251.953125" xlink:href="#DejaVuSans-69"/>
      <use x="279.736328" xlink:href="#DejaVuSans-74"/>
      <use x="318.945312" xlink:href="#DejaVuSans-61"/>
      <use x="380.224609" xlink:href="#DejaVuSans-6c"/>
      <use x="408.007812" xlink:href="#DejaVuSans-69"/>
      <use x="435.791016" xlink:href="#DejaVuSans-73"/>
      <use x="487.890625" xlink:href="#DejaVuSans-e9"/>
      <use x="549.414062" xlink:href="#DejaVuSans-73"/>
      <use x="601.513672" xlink:href="#DejaVuSans-20"/>
      <use x="633.300781" xlink:href="#DejaVuSans-28"/>
      <use x="672.314453" xlink:href="#DejaVuSans-70"/>
      <use x="735.791016" xlink:href="#DejaVuSans-6f"/>
      <use x="796.972656" xlink:href="#DejaVuSans-75"/>
      <use x="860.351562" xlink:href="#DejaVuSans-72"/>
      <use x="901.464844" xlink:href="#DejaVuSans-20"/>
      <use x="933.251953" xlink:href="#DejaVuSans-31"/>
      <use x="996.875" xlink:href="#DejaVuSans-30"/>
      <use x="1060.498047" xlink:href="#DejaVuSans-4d"/>
      <use x="1146.777344" xlink:href="#DejaVuSans-29"/>
     </g>
    </g>
    <g id="line2d_13">
     <path d="M 42.2875 35.376562 
L 62.2875 35.376562 
" style="fill:none;stroke:#3cb371;stroke-linecap:square;stroke-width:3;"/>
    </g>
    <g id="line2d_14"/>
    <g id="text_11">
     <!-- Non-vaccinés -->
     <g transform="translate(70.2875 38.876562)scale(0.1 -0.1)">
      <defs>
       <path d="M 628 4666 
L 1478 4666 
L 3547 763 
L 3547 4666 
L 4159 4666 
L 4159 0 
L 3309 0 
L 1241 3903 
L 1241 0 
L 628 0 
L 628 4666 
z
" id="DejaVuSans-4e" transform="scale(0.015625)"/>
       <path d="M 3513 2113 
L 3513 0 
L 2938 0 
L 2938 2094 
Q 2938 2591 2744 2837 
Q 2550 3084 2163 3084 
Q 1697 3084 1428 2787 
Q 1159 2491 1159 1978 
L 1159 0 
L 581 0 
L 581 3500 
L 1159 3500 
L 1159 2956 
Q 1366 3272 1645 3428 
Q 1925 3584 2291 3584 
Q 2894 3584 3203 3211 
Q 3513 2838 3513 2113 
z
" id="DejaVuSans-6e" transform="scale(0.015625)"/>
       <path d="M 313 2009 
L 1997 2009 
L 1997 1497 
L 313 1497 
L 313 2009 
z
" id="DejaVuSans-2d" transform="scale(0.015625)"/>
       <path d="M 191 3500 
L 800 3500 
L 1894 563 
L 2988 3500 
L 3597 3500 
L 2284 0 
L 1503 0 
L 191 3500 
z
" id="DejaVuSans-76" transform="scale(0.015625)"/>
       <path d="M 3122 3366 
L 3122 2828 
Q 2878 2963 2633 3030 
Q 2388 3097 2138 3097 
Q 1578 3097 1268 2742 
Q 959 2388 959 1747 
Q 959 1106 1268 751 
Q 1578 397 2138 397 
Q 2388 397 2633 464 
Q 2878 531 3122 666 
L 3122 134 
Q 2881 22 2623 -34 
Q 2366 -91 2075 -91 
Q 1284 -91 818 406 
Q 353 903 353 1747 
Q 353 2603 823 3093 
Q 1294 3584 2113 3584 
Q 2378 3584 2631 3529 
Q 2884 3475 3122 3366 
z
" id="DejaVuSans-63" transform="scale(0.015625)"/>
      </defs>
      <use xlink:href="#DejaVuSans-4e"/>
      <use x="74.804688" xlink:href="#DejaVuSans-6f"/>
      <use x="135.986328" xlink:href="#DejaVuSans-6e"/>
      <use x="199.365234" xlink:href="#DejaVuSans-2d"/>
      <use x="232.824219" xlink:href="#DejaVuSans-76"/>
      <use x="292.003906" xlink:href="#DejaVuSans-61"/>
      <use x="353.283203" xlink:href="#DejaVuSans-63"/>
      <use x="408.263672" xlink:href="#DejaVuSans-63"/>
      <use x="463.244141" xlink:href="#DejaVuSans-69"/>
      <use x="491.027344" xlink:href="#DejaVuSans-6e"/>
      <use x="554.40625" xlink:href="#DejaVuSans-e9"/>
      <use x="615.929688" xlink:href="#DejaVuSans-73"/>
     </g>
    </g>
    <g id="line2d_15">
     <path d="M 42.2875 50.054687 
L 62.2875 50.054687 
" style="fill:none;stroke:#000000;stroke-linecap:square;stroke-width:1.5;"/>
    </g>
    <g id="line2d_16"/>
    <g id="text_12">
     <!-- Primo dose -->
     <g transform="translate(70.2875 53.554687)scale(0.1 -0.1)">
      <defs>
       <path d="M 1259 4147 
L 1259 2394 
L 2053 2394 
Q 2494 2394 2734 2622 
Q 2975 2850 2975 3272 
Q 2975 3691 2734 3919 
Q 2494 4147 2053 4147 
L 1259 4147 
z
M 628 4666 
L 2053 4666 
Q 2838 4666 3239 4311 
Q 3641 3956 3641 3272 
Q 3641 2581 3239 2228 
Q 2838 1875 2053 1875 
L 1259 1875 
L 1259 0 
L 628 0 
L 628 4666 
z
" id="DejaVuSans-50" transform="scale(0.015625)"/>
       <path d="M 2906 2969 
L 2906 4863 
L 3481 4863 
L 3481 0 
L 2906 0 
L 2906 525 
Q 2725 213 2448 61 
Q 2172 -91 1784 -91 
Q 1150 -91 751 415 
Q 353 922 353 1747 
Q 353 2572 751 3078 
Q 1150 3584 1784 3584 
Q 2172 3584 2448 3432 
Q 2725 3281 2906 2969 
z
M 947 1747 
Q 947 1113 1208 752 
Q 1469 391 1925 391 
Q 2381 391 2643 752 
Q 2906 1113 2906 1747 
Q 2906 2381 2643 2742 
Q 2381 3103 1925 3103 
Q 1469 3103 1208 2742 
Q 947 2381 947 1747 
z
" id="DejaVuSans-64" transform="scale(0.015625)"/>
      </defs>
      <use xlink:href="#DejaVuSans-50"/>
      <use x="58.552734" xlink:href="#DejaVuSans-72"/>
      <use x="99.666016" xlink:href="#DejaVuSans-69"/>
      <use x="127.449219" xlink:href="#DejaVuSans-6d"/>
      <use x="224.861328" xlink:href="#DejaVuSans-6f"/>
      <use x="286.042969" xlink:href="#DejaVuSans-20"/>
      <use x="317.830078" xlink:href="#DejaVuSans-64"/>
      <use x="381.306641" xlink:href="#DejaVuSans-6f"/>
      <use x="442.488281" xlink:href="#DejaVuSans-73"/>
      <use x="494.587891" xlink:href="#DejaVuSans-65"/>
     </g>
    </g>
    <g id="line2d_17">
     <path d="M 42.2875 65.132812 
L 62.2875 65.132812 
" style="fill:none;stroke:#b22222;stroke-linecap:square;"/>
    </g>
    <g id="line2d_18"/>
    <g id="text_13">
     <!-- Vaccination complète -->
     <g transform="translate(70.2875 68.632812)scale(0.1 -0.1)">
      <defs>
       <path d="M 1831 0 
L 50 4666 
L 709 4666 
L 2188 738 
L 3669 4666 
L 4325 4666 
L 2547 0 
L 1831 0 
z
" id="DejaVuSans-56" transform="scale(0.015625)"/>
       <path d="M 3597 1894 
L 3597 1613 
L 953 1613 
Q 991 1019 1311 708 
Q 1631 397 2203 397 
Q 2534 397 2845 478 
Q 3156 559 3463 722 
L 3463 178 
Q 3153 47 2828 -22 
Q 2503 -91 2169 -91 
Q 1331 -91 842 396 
Q 353 884 353 1716 
Q 353 2575 817 3079 
Q 1281 3584 2069 3584 
Q 2775 3584 3186 3129 
Q 3597 2675 3597 1894 
z
M 3022 2063 
Q 3016 2534 2758 2815 
Q 2500 3097 2075 3097 
Q 1594 3097 1305 2825 
Q 1016 2553 972 2059 
L 3022 2063 
z
M 1579 5119 
L 2460 3950 
L 1982 3950 
L 963 5119 
L 1579 5119 
z
" id="DejaVuSans-e8" transform="scale(0.015625)"/>
      </defs>
      <use xlink:href="#DejaVuSans-56"/>
      <use x="60.658203" xlink:href="#DejaVuSans-61"/>
      <use x="121.9375" xlink:href="#DejaVuSans-63"/>
      <use x="176.917969" xlink:href="#DejaVuSans-63"/>
      <use x="231.898438" xlink:href="#DejaVuSans-69"/>
      <use x="259.681641" xlink:href="#DejaVuSans-6e"/>
      <use x="323.060547" xlink:href="#DejaVuSans-61"/>
      <use x="384.339844" xlink:href="#DejaVuSans-74"/>
      <use x="423.548828" xlink:href="#DejaVuSans-69"/>
      <use x="451.332031" xlink:href="#DejaVuSans-6f"/>
      <use x="512.513672" xlink:href="#DejaVuSans-6e"/>
      <use x="575.892578" xlink:href="#DejaVuSans-20"/>
      <use x="607.679688" xlink:href="#DejaVuSans-63"/>
      <use x="662.660156" xlink:href="#DejaVuSans-6f"/>
      <use x="723.841797" xlink:href="#DejaVuSans-6d"/>
      <use x="821.253906" xlink:href="#DejaVuSans-70"/>
      <use x="884.730469" xlink:href="#DejaVuSans-6c"/>
      <use x="912.513672" xlink:href="#DejaVuSans-e8"/>
      <use x="974.037109" xlink:href="#DejaVuSans-74"/>
      <use x="1013.246094" xlink:href="#DejaVuSans-65"/>
     </g>
    </g>
   </g>
  </g>
 </g>
 <defs>
  <clipPath id="pef0c011095">
   <rect height="217.44" width="334.8" x="33.2875" y="7.2"/>
  </clipPath>
 </defs>
</svg>
