<?xml version="1.0" encoding="utf-8" standalone="no"?>
<!DOCTYPE svg PUBLIC "-//W3C//DTD SVG 1.1//EN"
  "http://www.w3.org/Graphics/SVG/1.1/DTD/svg11.dtd">
<svg height="294.861401pt" version="1.1" viewBox="0 0 518.865625 294.861401" width="518.865625pt" xmlns="http://www.w3.org/2000/svg" xmlns:xlink="http://www.w3.org/1999/xlink">
 <metadata>
  <rdf:RDF xmlns:cc="http://creativecommons.org/ns#" xmlns:dc="http://purl.org/dc/elements/1.1/" xmlns:rdf="http://www.w3.org/1999/02/22-rdf-syntax-ns#">
   <cc:Work>
    <dc:type rdf:resource="http://purl.org/dc/dcmitype/StillImage"/>
    <dc:date>2021-08-28T19:16:09.446193</dc:date>
    <dc:format>image/svg+xml</dc:format>
    <dc:creator>
     <cc:Agent>
      <dc:title>Matplotlib v3.4.1, https://matplotlib.org/</dc:title>
     </cc:Agent>
    </dc:creator>
   </cc:Work>
  </rdf:RDF>
 </metadata>
 <defs>
  <style type="text/css">*{stroke-linecap:butt;stroke-linejoin:round;}</style>
 </defs>
 <g id="figure_1">
  <g id="patch_1">
   <path d="M 0 294.861401 
L 518.865625 294.861401 
L 518.865625 0 
L 0 0 
z
" style="fill:#ffffff;"/>
  </g>
  <g id="axes_1">
   <g id="patch_2">
    <path d="M 50.865625 239.04 
L 497.265625 239.04 
L 497.265625 21.6 
L 50.865625 21.6 
z
" style="fill:#ffffff;"/>
   </g>
   <g id="matplotlib.axis_1">
    <g id="xtick_1">
     <g id="line2d_1">
      <defs>
       <path d="M 0 0 
L 0 3.5 
" id="me1611debe3" style="stroke:#000000;stroke-width:0.8;"/>
      </defs>
      <g>
       <use style="stroke:#000000;stroke-width:0.8;" x="151.252228" xlink:href="#me1611debe3" y="239.04"/>
      </g>
     </g>
     <g id="text_1">
      <!-- 15/06 -->
      <g transform="translate(136.247201 271.79084)rotate(-45)scale(0.1 -0.1)">
       <defs>
        <path d="M 794 531 
L 1825 531 
L 1825 4091 
L 703 3866 
L 703 4441 
L 1819 4666 
L 2450 4666 
L 2450 531 
L 3481 531 
L 3481 0 
L 794 0 
L 794 531 
z
" id="DejaVuSans-31" transform="scale(0.015625)"/>
        <path d="M 691 4666 
L 3169 4666 
L 3169 4134 
L 1269 4134 
L 1269 2991 
Q 1406 3038 1543 3061 
Q 1681 3084 1819 3084 
Q 2600 3084 3056 2656 
Q 3513 2228 3513 1497 
Q 3513 744 3044 326 
Q 2575 -91 1722 -91 
Q 1428 -91 1123 -41 
Q 819 9 494 109 
L 494 744 
Q 775 591 1075 516 
Q 1375 441 1709 441 
Q 2250 441 2565 725 
Q 2881 1009 2881 1497 
Q 2881 1984 2565 2268 
Q 2250 2553 1709 2553 
Q 1456 2553 1204 2497 
Q 953 2441 691 2322 
L 691 4666 
z
" id="DejaVuSans-35" transform="scale(0.015625)"/>
        <path d="M 1625 4666 
L 2156 4666 
L 531 -594 
L 0 -594 
L 1625 4666 
z
" id="DejaVuSans-2f" transform="scale(0.015625)"/>
        <path d="M 2034 4250 
Q 1547 4250 1301 3770 
Q 1056 3291 1056 2328 
Q 1056 1369 1301 889 
Q 1547 409 2034 409 
Q 2525 409 2770 889 
Q 3016 1369 3016 2328 
Q 3016 3291 2770 3770 
Q 2525 4250 2034 4250 
z
M 2034 4750 
Q 2819 4750 3233 4129 
Q 3647 3509 3647 2328 
Q 3647 1150 3233 529 
Q 2819 -91 2034 -91 
Q 1250 -91 836 529 
Q 422 1150 422 2328 
Q 422 3509 836 4129 
Q 1250 4750 2034 4750 
z
" id="DejaVuSans-30" transform="scale(0.015625)"/>
        <path d="M 2113 2584 
Q 1688 2584 1439 2293 
Q 1191 2003 1191 1497 
Q 1191 994 1439 701 
Q 1688 409 2113 409 
Q 2538 409 2786 701 
Q 3034 994 3034 1497 
Q 3034 2003 2786 2293 
Q 2538 2584 2113 2584 
z
M 3366 4563 
L 3366 3988 
Q 3128 4100 2886 4159 
Q 2644 4219 2406 4219 
Q 1781 4219 1451 3797 
Q 1122 3375 1075 2522 
Q 1259 2794 1537 2939 
Q 1816 3084 2150 3084 
Q 2853 3084 3261 2657 
Q 3669 2231 3669 1497 
Q 3669 778 3244 343 
Q 2819 -91 2113 -91 
Q 1303 -91 875 529 
Q 447 1150 447 2328 
Q 447 3434 972 4092 
Q 1497 4750 2381 4750 
Q 2619 4750 2861 4703 
Q 3103 4656 3366 4563 
z
" id="DejaVuSans-36" transform="scale(0.015625)"/>
       </defs>
       <use xlink:href="#DejaVuSans-31"/>
       <use x="63.623047" xlink:href="#DejaVuSans-35"/>
       <use x="127.246094" xlink:href="#DejaVuSans-2f"/>
       <use x="160.9375" xlink:href="#DejaVuSans-30"/>
       <use x="224.560547" xlink:href="#DejaVuSans-36"/>
      </g>
     </g>
    </g>
    <g id="xtick_2">
     <g id="line2d_2">
      <g>
       <use style="stroke:#000000;stroke-width:0.8;" x="236.687635" xlink:href="#me1611debe3" y="239.04"/>
      </g>
     </g>
     <g id="text_2">
      <!-- 01/07 -->
      <g transform="translate(221.682608 271.79084)rotate(-45)scale(0.1 -0.1)">
       <defs>
        <path d="M 525 4666 
L 3525 4666 
L 3525 4397 
L 1831 0 
L 1172 0 
L 2766 4134 
L 525 4134 
L 525 4666 
z
" id="DejaVuSans-37" transform="scale(0.015625)"/>
       </defs>
       <use xlink:href="#DejaVuSans-30"/>
       <use x="63.623047" xlink:href="#DejaVuSans-31"/>
       <use x="127.246094" xlink:href="#DejaVuSans-2f"/>
       <use x="160.9375" xlink:href="#DejaVuSans-30"/>
       <use x="224.560547" xlink:href="#DejaVuSans-37"/>
      </g>
     </g>
    </g>
    <g id="xtick_3">
     <g id="line2d_3">
      <g>
       <use style="stroke:#000000;stroke-width:0.8;" x="311.443615" xlink:href="#me1611debe3" y="239.04"/>
      </g>
     </g>
     <g id="text_3">
      <!-- 15/07 -->
      <g transform="translate(296.438589 271.79084)rotate(-45)scale(0.1 -0.1)">
       <use xlink:href="#DejaVuSans-31"/>
       <use x="63.623047" xlink:href="#DejaVuSans-35"/>
       <use x="127.246094" xlink:href="#DejaVuSans-2f"/>
       <use x="160.9375" xlink:href="#DejaVuSans-30"/>
       <use x="224.560547" xlink:href="#DejaVuSans-37"/>
      </g>
     </g>
    </g>
    <g id="xtick_4">
     <g id="line2d_4">
      <g>
       <use style="stroke:#000000;stroke-width:0.8;" x="402.218735" xlink:href="#me1611debe3" y="239.04"/>
      </g>
     </g>
     <g id="text_4">
      <!-- 01/08 -->
      <g transform="translate(387.213708 271.79084)rotate(-45)scale(0.1 -0.1)">
       <defs>
        <path d="M 2034 2216 
Q 1584 2216 1326 1975 
Q 1069 1734 1069 1313 
Q 1069 891 1326 650 
Q 1584 409 2034 409 
Q 2484 409 2743 651 
Q 3003 894 3003 1313 
Q 3003 1734 2745 1975 
Q 2488 2216 2034 2216 
z
M 1403 2484 
Q 997 2584 770 2862 
Q 544 3141 544 3541 
Q 544 4100 942 4425 
Q 1341 4750 2034 4750 
Q 2731 4750 3128 4425 
Q 3525 4100 3525 3541 
Q 3525 3141 3298 2862 
Q 3072 2584 2669 2484 
Q 3125 2378 3379 2068 
Q 3634 1759 3634 1313 
Q 3634 634 3220 271 
Q 2806 -91 2034 -91 
Q 1263 -91 848 271 
Q 434 634 434 1313 
Q 434 1759 690 2068 
Q 947 2378 1403 2484 
z
M 1172 3481 
Q 1172 3119 1398 2916 
Q 1625 2713 2034 2713 
Q 2441 2713 2670 2916 
Q 2900 3119 2900 3481 
Q 2900 3844 2670 4047 
Q 2441 4250 2034 4250 
Q 1625 4250 1398 4047 
Q 1172 3844 1172 3481 
z
" id="DejaVuSans-38" transform="scale(0.015625)"/>
       </defs>
       <use xlink:href="#DejaVuSans-30"/>
       <use x="63.623047" xlink:href="#DejaVuSans-31"/>
       <use x="127.246094" xlink:href="#DejaVuSans-2f"/>
       <use x="160.9375" xlink:href="#DejaVuSans-30"/>
       <use x="224.560547" xlink:href="#DejaVuSans-38"/>
      </g>
     </g>
    </g>
    <g id="xtick_5">
     <g id="line2d_5">
      <g>
       <use style="stroke:#000000;stroke-width:0.8;" x="476.974716" xlink:href="#me1611debe3" y="239.04"/>
      </g>
     </g>
     <g id="text_5">
      <!-- 15/08 -->
      <g transform="translate(461.969689 271.79084)rotate(-45)scale(0.1 -0.1)">
       <use xlink:href="#DejaVuSans-31"/>
       <use x="63.623047" xlink:href="#DejaVuSans-35"/>
       <use x="127.246094" xlink:href="#DejaVuSans-2f"/>
       <use x="160.9375" xlink:href="#DejaVuSans-30"/>
       <use x="224.560547" xlink:href="#DejaVuSans-38"/>
      </g>
     </g>
    </g>
   </g>
   <g id="matplotlib.axis_2">
    <g id="ytick_1">
     <g id="line2d_6">
      <defs>
       <path d="M 0 0 
L -3.5 0 
" id="m8fe0b69b46" style="stroke:#000000;stroke-width:0.8;"/>
      </defs>
      <g>
       <use style="stroke:#000000;stroke-width:0.8;" x="50.865625" xlink:href="#m8fe0b69b46" y="229.156364"/>
      </g>
     </g>
     <g id="text_6">
      <!-- 0.0 -->
      <g transform="translate(27.9625 232.955582)scale(0.1 -0.1)">
       <defs>
        <path d="M 684 794 
L 1344 794 
L 1344 0 
L 684 0 
L 684 794 
z
" id="DejaVuSans-2e" transform="scale(0.015625)"/>
       </defs>
       <use xlink:href="#DejaVuSans-30"/>
       <use x="63.623047" xlink:href="#DejaVuSans-2e"/>
       <use x="95.410156" xlink:href="#DejaVuSans-30"/>
      </g>
     </g>
    </g>
    <g id="ytick_2">
     <g id="line2d_7">
      <g>
       <use style="stroke:#000000;stroke-width:0.8;" x="50.865625" xlink:href="#m8fe0b69b46" y="201.733213"/>
      </g>
     </g>
     <g id="text_7">
      <!-- 2.5 -->
      <g transform="translate(27.9625 205.532432)scale(0.1 -0.1)">
       <defs>
        <path d="M 1228 531 
L 3431 531 
L 3431 0 
L 469 0 
L 469 531 
Q 828 903 1448 1529 
Q 2069 2156 2228 2338 
Q 2531 2678 2651 2914 
Q 2772 3150 2772 3378 
Q 2772 3750 2511 3984 
Q 2250 4219 1831 4219 
Q 1534 4219 1204 4116 
Q 875 4013 500 3803 
L 500 4441 
Q 881 4594 1212 4672 
Q 1544 4750 1819 4750 
Q 2544 4750 2975 4387 
Q 3406 4025 3406 3419 
Q 3406 3131 3298 2873 
Q 3191 2616 2906 2266 
Q 2828 2175 2409 1742 
Q 1991 1309 1228 531 
z
" id="DejaVuSans-32" transform="scale(0.015625)"/>
       </defs>
       <use xlink:href="#DejaVuSans-32"/>
       <use x="63.623047" xlink:href="#DejaVuSans-2e"/>
       <use x="95.410156" xlink:href="#DejaVuSans-35"/>
      </g>
     </g>
    </g>
    <g id="ytick_3">
     <g id="line2d_8">
      <g>
       <use style="stroke:#000000;stroke-width:0.8;" x="50.865625" xlink:href="#m8fe0b69b46" y="174.310062"/>
      </g>
     </g>
     <g id="text_8">
      <!-- 5.0 -->
      <g transform="translate(27.9625 178.109281)scale(0.1 -0.1)">
       <use xlink:href="#DejaVuSans-35"/>
       <use x="63.623047" xlink:href="#DejaVuSans-2e"/>
       <use x="95.410156" xlink:href="#DejaVuSans-30"/>
      </g>
     </g>
    </g>
    <g id="ytick_4">
     <g id="line2d_9">
      <g>
       <use style="stroke:#000000;stroke-width:0.8;" x="50.865625" xlink:href="#m8fe0b69b46" y="146.886911"/>
      </g>
     </g>
     <g id="text_9">
      <!-- 7.5 -->
      <g transform="translate(27.9625 150.68613)scale(0.1 -0.1)">
       <use xlink:href="#DejaVuSans-37"/>
       <use x="63.623047" xlink:href="#DejaVuSans-2e"/>
       <use x="95.410156" xlink:href="#DejaVuSans-35"/>
      </g>
     </g>
    </g>
    <g id="ytick_5">
     <g id="line2d_10">
      <g>
       <use style="stroke:#000000;stroke-width:0.8;" x="50.865625" xlink:href="#m8fe0b69b46" y="119.463761"/>
      </g>
     </g>
     <g id="text_10">
      <!-- 10.0 -->
      <g transform="translate(21.6 123.26298)scale(0.1 -0.1)">
       <use xlink:href="#DejaVuSans-31"/>
       <use x="63.623047" xlink:href="#DejaVuSans-30"/>
       <use x="127.246094" xlink:href="#DejaVuSans-2e"/>
       <use x="159.033203" xlink:href="#DejaVuSans-30"/>
      </g>
     </g>
    </g>
    <g id="ytick_6">
     <g id="line2d_11">
      <g>
       <use style="stroke:#000000;stroke-width:0.8;" x="50.865625" xlink:href="#m8fe0b69b46" y="92.04061"/>
      </g>
     </g>
     <g id="text_11">
      <!-- 12.5 -->
      <g transform="translate(21.6 95.839829)scale(0.1 -0.1)">
       <use xlink:href="#DejaVuSans-31"/>
       <use x="63.623047" xlink:href="#DejaVuSans-32"/>
       <use x="127.246094" xlink:href="#DejaVuSans-2e"/>
       <use x="159.033203" xlink:href="#DejaVuSans-35"/>
      </g>
     </g>
    </g>
    <g id="ytick_7">
     <g id="line2d_12">
      <g>
       <use style="stroke:#000000;stroke-width:0.8;" x="50.865625" xlink:href="#m8fe0b69b46" y="64.617459"/>
      </g>
     </g>
     <g id="text_12">
      <!-- 15.0 -->
      <g transform="translate(21.6 68.416678)scale(0.1 -0.1)">
       <use xlink:href="#DejaVuSans-31"/>
       <use x="63.623047" xlink:href="#DejaVuSans-35"/>
       <use x="127.246094" xlink:href="#DejaVuSans-2e"/>
       <use x="159.033203" xlink:href="#DejaVuSans-30"/>
      </g>
     </g>
    </g>
    <g id="ytick_8">
     <g id="line2d_13">
      <g>
       <use style="stroke:#000000;stroke-width:0.8;" x="50.865625" xlink:href="#m8fe0b69b46" y="37.194309"/>
      </g>
     </g>
     <g id="text_13">
      <!-- 17.5 -->
      <g transform="translate(21.6 40.993527)scale(0.1 -0.1)">
       <use xlink:href="#DejaVuSans-31"/>
       <use x="63.623047" xlink:href="#DejaVuSans-37"/>
       <use x="127.246094" xlink:href="#DejaVuSans-2e"/>
       <use x="159.033203" xlink:href="#DejaVuSans-35"/>
      </g>
     </g>
    </g>
   </g>
   <g id="line2d_14">
    <path clip-path="url(#p65fe39a65e)" d="M 71.156534 189.004205 
L 76.496247 165.844234 
L 81.83596 175.466139 
L 87.175673 177.485562 
L 92.515386 179.571354 
L 97.855099 184.474974 
L 103.194812 181.726202 
L 108.534525 173.345038 
L 113.874237 196.935132 
L 119.21395 158.633118 
L 124.553663 171.543581 
L 129.893376 181.985808 
L 135.233089 201.195512 
L 140.572802 195.490855 
L 145.912515 181.052803 
L 151.252228 177.706828 
L 156.591941 197.400932 
L 161.931654 167.891868 
L 167.271367 202.630035 
L 172.61108 199.458653 
L 177.950792 190.440789 
L 183.290505 196.18461 
L 188.630218 195.909046 
L 193.969931 186.477862 
L 199.309644 195.328739 
L 204.649357 213.642088 
L 209.98907 216.666433 
L 215.328783 185.351782 
L 220.668496 216.571783 
L 226.008209 213.325862 
L 231.347922 206.845585 
L 236.687635 200.271049 
L 242.027347 203.311507 
L 247.36706 183.725554 
L 252.706773 222.655701 
L 258.046486 216.096226 
L 263.386199 202.89552 
L 268.725912 202.7375 
L 274.065625 212.535331 
L 279.405338 219.117677 
L 284.745051 202.272243 
L 290.084764 212.325143 
L 295.424477 225.77336 
L 300.76419 201.932326 
L 306.103903 212.032066 
L 311.443615 198.113527 
L 316.783328 208.315578 
L 322.123041 218.687662 
L 327.462754 218.667995 
L 332.802467 208.069616 
L 338.14218 211.423992 
L 343.481893 207.754954 
L 348.821606 200.302068 
L 354.161319 192.641853 
L 359.501032 184.96331 
L 364.840745 184.802069 
L 370.180458 191.843962 
L 375.52017 157.359716 
L 380.859883 183.194842 
L 386.199596 174.709378 
L 391.539309 165.964974 
L 396.879022 153.348144 
L 402.218735 140.996438 
L 407.558448 139.887129 
L 412.898161 84.711237 
L 418.237874 153.594295 
L 423.577587 105.133738 
L 428.9173 115.973394 
L 434.257013 149.915666 
L 439.596725 114.203245 
L 444.936438 85.836887 
L 450.276151 101.74984 
L 455.615864 76.643591 
L 460.955577 74.324164 
L 466.29529 57.690972 
L 471.635003 36.904281 
L 476.974716 31.483636 
" style="fill:none;stroke:#da70d6;stroke-linecap:square;stroke-width:3;"/>
   </g>
   <g id="line2d_15">
    <path clip-path="url(#p65fe39a65e)" d="M 71.156534 165.452484 
L 76.496247 221.309462 
L 81.83596 206.008492 
L 87.175673 206.437163 
L 92.515386 229.156364 
L 97.855099 207.056162 
L 103.194812 192.517091 
L 108.534525 214.781794 
L 113.874237 214.961146 
L 119.21395 222.140285 
L 124.553663 194.503451 
L 129.893376 187.940718 
L 135.233089 222.339265 
L 140.572802 215.595295 
L 145.912515 215.687684 
L 151.252228 209.07894 
L 156.591941 222.506533 
L 161.931654 215.930718 
L 167.271367 215.943712 
L 172.61108 209.406338 
L 177.950792 229.156364 
L 183.290505 222.566517 
L 188.630218 222.550779 
L 193.969931 202.720408 
L 199.309644 222.541348 
L 204.649357 222.503505 
L 209.98907 195.849521 
L 215.328783 222.489474 
L 220.668496 222.409602 
L 226.008209 229.156364 
L 231.347922 215.340687 
L 236.687635 222.166573 
L 242.027347 207.824295 
L 247.36706 221.973569 
L 252.706773 221.946683 
L 258.046486 207.120866 
L 263.386199 221.645456 
L 268.725912 221.498461 
L 274.065625 221.372587 
L 279.405338 221.174886 
L 284.745051 229.156364 
L 290.084764 220.95409 
L 295.424477 229.156364 
L 300.76419 229.156364 
L 306.103903 220.301658 
L 311.443615 229.156364 
L 316.783328 219.843355 
L 322.123041 229.156364 
L 327.462754 229.156364 
L 332.802467 229.156364 
L 338.14218 219.129758 
L 343.481893 229.156364 
L 348.821606 218.73514 
L 354.161319 218.553993 
L 359.501032 218.438272 
L 364.840745 218.426824 
L 370.180458 229.156364 
L 375.52017 217.977823 
L 380.859883 218.198808 
L 386.199596 229.156364 
L 391.539309 206.772918 
L 396.879022 217.892416 
L 402.218735 229.156364 
L 407.558448 183.567833 
L 412.898161 183.35021 
L 418.237874 229.156364 
L 423.577587 229.156364 
L 428.9173 206.280898 
L 434.257013 229.156364 
L 439.596725 206.228825 
L 444.936438 217.632811 
L 450.276151 217.63518 
L 455.615864 217.654265 
L 460.955577 194.660728 
L 466.29529 206.079583 
L 471.635003 206.014564 
L 476.974716 194.454522 
" style="fill:none;stroke:#000000;stroke-linecap:square;stroke-width:1.5;"/>
   </g>
   <g id="line2d_16">
    <path clip-path="url(#p65fe39a65e)" d="M 71.156534 218.099937 
L 76.496247 218.310669 
L 81.83596 197.16529 
L 87.175673 208.19149 
L 92.515386 177.782152 
L 97.855099 198.635489 
L 103.194812 198.711696 
L 108.534525 208.976368 
L 113.874237 219.274218 
L 119.21395 200.116939 
L 124.553663 200.779492 
L 129.893376 183.090509 
L 135.233089 211.003837 
L 140.572802 229.156364 
L 145.912515 211.396505 
L 151.252228 211.799986 
L 156.591941 220.66258 
L 161.931654 212.560643 
L 167.271367 213.008415 
L 172.61108 213.268915 
L 177.950792 197.515372 
L 183.290505 205.926275 
L 188.630218 229.156364 
L 193.969931 214.359884 
L 199.309644 207.442586 
L 204.649357 229.156364 
L 209.98907 222.218331 
L 215.328783 215.355085 
L 220.668496 222.419718 
L 226.008209 222.591709 
L 231.347922 216.335651 
L 236.687635 222.901186 
L 242.027347 216.9863 
L 247.36706 223.172921 
L 252.706773 223.209186 
L 258.046486 223.345482 
L 263.386199 229.156364 
L 268.725912 229.156364 
L 274.065625 212.958915 
L 279.405338 218.650859 
L 284.745051 224.002742 
L 290.084764 218.927543 
L 295.424477 214.148723 
L 300.76419 224.275327 
L 306.103903 229.156364 
L 311.443615 224.4869 
L 316.783328 224.595083 
L 322.123041 220.18038 
L 327.462754 229.156364 
L 332.802467 224.774405 
L 338.14218 229.156364 
L 343.481893 229.156364 
L 348.821606 212.5793 
L 354.161319 225.096738 
L 359.501032 217.140709 
L 364.840745 221.18064 
L 370.180458 217.407444 
L 375.52017 221.476371 
L 380.859883 217.713021 
L 386.199596 225.41225 
L 391.539309 214.448295 
L 396.879022 210.981094 
L 402.218735 196.570572 
L 407.558448 211.319829 
L 412.898161 201.074295 
L 418.237874 208.37805 
L 423.577587 205.255579 
L 428.9173 208.979066 
L 434.257013 212.502247 
L 439.596725 205.908262 
L 444.936438 193.026131 
L 450.276151 206.425014 
L 455.615864 187.381831 
L 460.955577 190.989502 
L 466.29529 191.407249 
L 471.635003 207.283175 
L 476.974716 188.61322 
" style="fill:none;stroke:#b22222;stroke-linecap:square;"/>
   </g>
   <g id="patch_3">
    <path d="M 50.865625 239.04 
L 50.865625 21.6 
" style="fill:none;stroke:#000000;stroke-linecap:square;stroke-linejoin:miter;stroke-width:0.8;"/>
   </g>
   <g id="patch_4">
    <path d="M 497.265625 239.04 
L 497.265625 21.6 
" style="fill:none;stroke:#000000;stroke-linecap:square;stroke-linejoin:miter;stroke-width:0.8;"/>
   </g>
   <g id="patch_5">
    <path d="M 50.865625 239.04 
L 497.265625 239.04 
" style="fill:none;stroke:#000000;stroke-linecap:square;stroke-linejoin:miter;stroke-width:0.8;"/>
   </g>
   <g id="patch_6">
    <path d="M 50.865625 21.6 
L 497.265625 21.6 
" style="fill:none;stroke:#000000;stroke-linecap:square;stroke-linejoin:miter;stroke-width:0.8;"/>
   </g>
   <g id="legend_1">
    <g id="patch_7">
     <path d="M 57.865625 89.1125 
L 203.428125 89.1125 
Q 205.428125 89.1125 205.428125 87.1125 
L 205.428125 28.6 
Q 205.428125 26.6 203.428125 26.6 
L 57.865625 26.6 
Q 55.865625 26.6 55.865625 28.6 
L 55.865625 87.1125 
Q 55.865625 89.1125 57.865625 89.1125 
z
" style="fill:#ffffff;opacity:0.8;stroke:#cccccc;stroke-linejoin:miter;"/>
    </g>
    <g id="text_14">
     <!-- Décès à l'hôpital (pour 10M) -->
     <g transform="translate(59.865625 38.598437)scale(0.1 -0.1)">
      <defs>
       <path d="M 1259 4147 
L 1259 519 
L 2022 519 
Q 2988 519 3436 956 
Q 3884 1394 3884 2338 
Q 3884 3275 3436 3711 
Q 2988 4147 2022 4147 
L 1259 4147 
z
M 628 4666 
L 1925 4666 
Q 3281 4666 3915 4102 
Q 4550 3538 4550 2338 
Q 4550 1131 3912 565 
Q 3275 0 1925 0 
L 628 0 
L 628 4666 
z
" id="DejaVuSans-44" transform="scale(0.015625)"/>
       <path d="M 3597 1894 
L 3597 1613 
L 953 1613 
Q 991 1019 1311 708 
Q 1631 397 2203 397 
Q 2534 397 2845 478 
Q 3156 559 3463 722 
L 3463 178 
Q 3153 47 2828 -22 
Q 2503 -91 2169 -91 
Q 1331 -91 842 396 
Q 353 884 353 1716 
Q 353 2575 817 3079 
Q 1281 3584 2069 3584 
Q 2775 3584 3186 3129 
Q 3597 2675 3597 1894 
z
M 3022 2063 
Q 3016 2534 2758 2815 
Q 2500 3097 2075 3097 
Q 1594 3097 1305 2825 
Q 1016 2553 972 2059 
L 3022 2063 
z
M 2466 5119 
L 3088 5119 
L 2070 3944 
L 1591 3944 
L 2466 5119 
z
" id="DejaVuSans-e9" transform="scale(0.015625)"/>
       <path d="M 3122 3366 
L 3122 2828 
Q 2878 2963 2633 3030 
Q 2388 3097 2138 3097 
Q 1578 3097 1268 2742 
Q 959 2388 959 1747 
Q 959 1106 1268 751 
Q 1578 397 2138 397 
Q 2388 397 2633 464 
Q 2878 531 3122 666 
L 3122 134 
Q 2881 22 2623 -34 
Q 2366 -91 2075 -91 
Q 1284 -91 818 406 
Q 353 903 353 1747 
Q 353 2603 823 3093 
Q 1294 3584 2113 3584 
Q 2378 3584 2631 3529 
Q 2884 3475 3122 3366 
z
" id="DejaVuSans-63" transform="scale(0.015625)"/>
       <path d="M 3597 1894 
L 3597 1613 
L 953 1613 
Q 991 1019 1311 708 
Q 1631 397 2203 397 
Q 2534 397 2845 478 
Q 3156 559 3463 722 
L 3463 178 
Q 3153 47 2828 -22 
Q 2503 -91 2169 -91 
Q 1331 -91 842 396 
Q 353 884 353 1716 
Q 353 2575 817 3079 
Q 1281 3584 2069 3584 
Q 2775 3584 3186 3129 
Q 3597 2675 3597 1894 
z
M 3022 2063 
Q 3016 2534 2758 2815 
Q 2500 3097 2075 3097 
Q 1594 3097 1305 2825 
Q 1016 2553 972 2059 
L 3022 2063 
z
M 1579 5119 
L 2460 3950 
L 1982 3950 
L 963 5119 
L 1579 5119 
z
" id="DejaVuSans-e8" transform="scale(0.015625)"/>
       <path d="M 2834 3397 
L 2834 2853 
Q 2591 2978 2328 3040 
Q 2066 3103 1784 3103 
Q 1356 3103 1142 2972 
Q 928 2841 928 2578 
Q 928 2378 1081 2264 
Q 1234 2150 1697 2047 
L 1894 2003 
Q 2506 1872 2764 1633 
Q 3022 1394 3022 966 
Q 3022 478 2636 193 
Q 2250 -91 1575 -91 
Q 1294 -91 989 -36 
Q 684 19 347 128 
L 347 722 
Q 666 556 975 473 
Q 1284 391 1588 391 
Q 1994 391 2212 530 
Q 2431 669 2431 922 
Q 2431 1156 2273 1281 
Q 2116 1406 1581 1522 
L 1381 1569 
Q 847 1681 609 1914 
Q 372 2147 372 2553 
Q 372 3047 722 3315 
Q 1072 3584 1716 3584 
Q 2034 3584 2315 3537 
Q 2597 3491 2834 3397 
z
" id="DejaVuSans-73" transform="scale(0.015625)"/>
       <path id="DejaVuSans-20" transform="scale(0.015625)"/>
       <path d="M 2194 1759 
Q 1497 1759 1228 1600 
Q 959 1441 959 1056 
Q 959 750 1161 570 
Q 1363 391 1709 391 
Q 2188 391 2477 730 
Q 2766 1069 2766 1631 
L 2766 1759 
L 2194 1759 
z
M 3341 1997 
L 3341 0 
L 2766 0 
L 2766 531 
Q 2569 213 2275 61 
Q 1981 -91 1556 -91 
Q 1019 -91 701 211 
Q 384 513 384 1019 
Q 384 1609 779 1909 
Q 1175 2209 1959 2209 
L 2766 2209 
L 2766 2266 
Q 2766 2663 2505 2880 
Q 2244 3097 1772 3097 
Q 1472 3097 1187 3025 
Q 903 2953 641 2809 
L 641 3341 
Q 956 3463 1253 3523 
Q 1550 3584 1831 3584 
Q 2591 3584 2966 3190 
Q 3341 2797 3341 1997 
z
M 1403 5119 
L 2284 3950 
L 1806 3950 
L 787 5119 
L 1403 5119 
z
" id="DejaVuSans-e0" transform="scale(0.015625)"/>
       <path d="M 603 4863 
L 1178 4863 
L 1178 0 
L 603 0 
L 603 4863 
z
" id="DejaVuSans-6c" transform="scale(0.015625)"/>
       <path d="M 1147 4666 
L 1147 2931 
L 616 2931 
L 616 4666 
L 1147 4666 
z
" id="DejaVuSans-27" transform="scale(0.015625)"/>
       <path d="M 3513 2113 
L 3513 0 
L 2938 0 
L 2938 2094 
Q 2938 2591 2744 2837 
Q 2550 3084 2163 3084 
Q 1697 3084 1428 2787 
Q 1159 2491 1159 1978 
L 1159 0 
L 581 0 
L 581 4863 
L 1159 4863 
L 1159 2956 
Q 1366 3272 1645 3428 
Q 1925 3584 2291 3584 
Q 2894 3584 3203 3211 
Q 3513 2838 3513 2113 
z
" id="DejaVuSans-68" transform="scale(0.015625)"/>
       <path d="M 1959 3097 
Q 1497 3097 1228 2736 
Q 959 2375 959 1747 
Q 959 1119 1226 758 
Q 1494 397 1959 397 
Q 2419 397 2687 759 
Q 2956 1122 2956 1747 
Q 2956 2369 2687 2733 
Q 2419 3097 1959 3097 
z
M 1959 3584 
Q 2709 3584 3137 3096 
Q 3566 2609 3566 1747 
Q 3566 888 3137 398 
Q 2709 -91 1959 -91 
Q 1206 -91 779 398 
Q 353 888 353 1747 
Q 353 2609 779 3096 
Q 1206 3584 1959 3584 
z
M 1729 5119 
L 2191 5119 
L 2957 3944 
L 2523 3944 
L 1960 4709 
L 1398 3944 
L 963 3944 
L 1729 5119 
z
" id="DejaVuSans-f4" transform="scale(0.015625)"/>
       <path d="M 1159 525 
L 1159 -1331 
L 581 -1331 
L 581 3500 
L 1159 3500 
L 1159 2969 
Q 1341 3281 1617 3432 
Q 1894 3584 2278 3584 
Q 2916 3584 3314 3078 
Q 3713 2572 3713 1747 
Q 3713 922 3314 415 
Q 2916 -91 2278 -91 
Q 1894 -91 1617 61 
Q 1341 213 1159 525 
z
M 3116 1747 
Q 3116 2381 2855 2742 
Q 2594 3103 2138 3103 
Q 1681 3103 1420 2742 
Q 1159 2381 1159 1747 
Q 1159 1113 1420 752 
Q 1681 391 2138 391 
Q 2594 391 2855 752 
Q 3116 1113 3116 1747 
z
" id="DejaVuSans-70" transform="scale(0.015625)"/>
       <path d="M 603 3500 
L 1178 3500 
L 1178 0 
L 603 0 
L 603 3500 
z
M 603 4863 
L 1178 4863 
L 1178 4134 
L 603 4134 
L 603 4863 
z
" id="DejaVuSans-69" transform="scale(0.015625)"/>
       <path d="M 1172 4494 
L 1172 3500 
L 2356 3500 
L 2356 3053 
L 1172 3053 
L 1172 1153 
Q 1172 725 1289 603 
Q 1406 481 1766 481 
L 2356 481 
L 2356 0 
L 1766 0 
Q 1100 0 847 248 
Q 594 497 594 1153 
L 594 3053 
L 172 3053 
L 172 3500 
L 594 3500 
L 594 4494 
L 1172 4494 
z
" id="DejaVuSans-74" transform="scale(0.015625)"/>
       <path d="M 2194 1759 
Q 1497 1759 1228 1600 
Q 959 1441 959 1056 
Q 959 750 1161 570 
Q 1363 391 1709 391 
Q 2188 391 2477 730 
Q 2766 1069 2766 1631 
L 2766 1759 
L 2194 1759 
z
M 3341 1997 
L 3341 0 
L 2766 0 
L 2766 531 
Q 2569 213 2275 61 
Q 1981 -91 1556 -91 
Q 1019 -91 701 211 
Q 384 513 384 1019 
Q 384 1609 779 1909 
Q 1175 2209 1959 2209 
L 2766 2209 
L 2766 2266 
Q 2766 2663 2505 2880 
Q 2244 3097 1772 3097 
Q 1472 3097 1187 3025 
Q 903 2953 641 2809 
L 641 3341 
Q 956 3463 1253 3523 
Q 1550 3584 1831 3584 
Q 2591 3584 2966 3190 
Q 3341 2797 3341 1997 
z
" id="DejaVuSans-61" transform="scale(0.015625)"/>
       <path d="M 1984 4856 
Q 1566 4138 1362 3434 
Q 1159 2731 1159 2009 
Q 1159 1288 1364 580 
Q 1569 -128 1984 -844 
L 1484 -844 
Q 1016 -109 783 600 
Q 550 1309 550 2009 
Q 550 2706 781 3412 
Q 1013 4119 1484 4856 
L 1984 4856 
z
" id="DejaVuSans-28" transform="scale(0.015625)"/>
       <path d="M 1959 3097 
Q 1497 3097 1228 2736 
Q 959 2375 959 1747 
Q 959 1119 1226 758 
Q 1494 397 1959 397 
Q 2419 397 2687 759 
Q 2956 1122 2956 1747 
Q 2956 2369 2687 2733 
Q 2419 3097 1959 3097 
z
M 1959 3584 
Q 2709 3584 3137 3096 
Q 3566 2609 3566 1747 
Q 3566 888 3137 398 
Q 2709 -91 1959 -91 
Q 1206 -91 779 398 
Q 353 888 353 1747 
Q 353 2609 779 3096 
Q 1206 3584 1959 3584 
z
" id="DejaVuSans-6f" transform="scale(0.015625)"/>
       <path d="M 544 1381 
L 544 3500 
L 1119 3500 
L 1119 1403 
Q 1119 906 1312 657 
Q 1506 409 1894 409 
Q 2359 409 2629 706 
Q 2900 1003 2900 1516 
L 2900 3500 
L 3475 3500 
L 3475 0 
L 2900 0 
L 2900 538 
Q 2691 219 2414 64 
Q 2138 -91 1772 -91 
Q 1169 -91 856 284 
Q 544 659 544 1381 
z
M 1991 3584 
L 1991 3584 
z
" id="DejaVuSans-75" transform="scale(0.015625)"/>
       <path d="M 2631 2963 
Q 2534 3019 2420 3045 
Q 2306 3072 2169 3072 
Q 1681 3072 1420 2755 
Q 1159 2438 1159 1844 
L 1159 0 
L 581 0 
L 581 3500 
L 1159 3500 
L 1159 2956 
Q 1341 3275 1631 3429 
Q 1922 3584 2338 3584 
Q 2397 3584 2469 3576 
Q 2541 3569 2628 3553 
L 2631 2963 
z
" id="DejaVuSans-72" transform="scale(0.015625)"/>
       <path d="M 628 4666 
L 1569 4666 
L 2759 1491 
L 3956 4666 
L 4897 4666 
L 4897 0 
L 4281 0 
L 4281 4097 
L 3078 897 
L 2444 897 
L 1241 4097 
L 1241 0 
L 628 0 
L 628 4666 
z
" id="DejaVuSans-4d" transform="scale(0.015625)"/>
       <path d="M 513 4856 
L 1013 4856 
Q 1481 4119 1714 3412 
Q 1947 2706 1947 2009 
Q 1947 1309 1714 600 
Q 1481 -109 1013 -844 
L 513 -844 
Q 928 -128 1133 580 
Q 1338 1288 1338 2009 
Q 1338 2731 1133 3434 
Q 928 4138 513 4856 
z
" id="DejaVuSans-29" transform="scale(0.015625)"/>
      </defs>
      <use xlink:href="#DejaVuSans-44"/>
      <use x="77.001953" xlink:href="#DejaVuSans-e9"/>
      <use x="138.525391" xlink:href="#DejaVuSans-63"/>
      <use x="193.505859" xlink:href="#DejaVuSans-e8"/>
      <use x="255.029297" xlink:href="#DejaVuSans-73"/>
      <use x="307.128906" xlink:href="#DejaVuSans-20"/>
      <use x="338.916016" xlink:href="#DejaVuSans-e0"/>
      <use x="400.195312" xlink:href="#DejaVuSans-20"/>
      <use x="431.982422" xlink:href="#DejaVuSans-6c"/>
      <use x="459.765625" xlink:href="#DejaVuSans-27"/>
      <use x="487.255859" xlink:href="#DejaVuSans-68"/>
      <use x="550.634766" xlink:href="#DejaVuSans-f4"/>
      <use x="611.816406" xlink:href="#DejaVuSans-70"/>
      <use x="675.292969" xlink:href="#DejaVuSans-69"/>
      <use x="703.076172" xlink:href="#DejaVuSans-74"/>
      <use x="742.285156" xlink:href="#DejaVuSans-61"/>
      <use x="803.564453" xlink:href="#DejaVuSans-6c"/>
      <use x="831.347656" xlink:href="#DejaVuSans-20"/>
      <use x="863.134766" xlink:href="#DejaVuSans-28"/>
      <use x="902.148438" xlink:href="#DejaVuSans-70"/>
      <use x="965.625" xlink:href="#DejaVuSans-6f"/>
      <use x="1026.806641" xlink:href="#DejaVuSans-75"/>
      <use x="1090.185547" xlink:href="#DejaVuSans-72"/>
      <use x="1131.298828" xlink:href="#DejaVuSans-20"/>
      <use x="1163.085938" xlink:href="#DejaVuSans-31"/>
      <use x="1226.708984" xlink:href="#DejaVuSans-30"/>
      <use x="1290.332031" xlink:href="#DejaVuSans-4d"/>
      <use x="1376.611328" xlink:href="#DejaVuSans-29"/>
     </g>
    </g>
    <g id="line2d_17">
     <path d="M 62.907813 49.776562 
L 82.907813 49.776562 
" style="fill:none;stroke:#da70d6;stroke-linecap:square;stroke-width:3;"/>
    </g>
    <g id="line2d_18"/>
    <g id="text_15">
     <!-- Non-vaccinés -->
     <g transform="translate(90.907813 53.276562)scale(0.1 -0.1)">
      <defs>
       <path d="M 628 4666 
L 1478 4666 
L 3547 763 
L 3547 4666 
L 4159 4666 
L 4159 0 
L 3309 0 
L 1241 3903 
L 1241 0 
L 628 0 
L 628 4666 
z
" id="DejaVuSans-4e" transform="scale(0.015625)"/>
       <path d="M 3513 2113 
L 3513 0 
L 2938 0 
L 2938 2094 
Q 2938 2591 2744 2837 
Q 2550 3084 2163 3084 
Q 1697 3084 1428 2787 
Q 1159 2491 1159 1978 
L 1159 0 
L 581 0 
L 581 3500 
L 1159 3500 
L 1159 2956 
Q 1366 3272 1645 3428 
Q 1925 3584 2291 3584 
Q 2894 3584 3203 3211 
Q 3513 2838 3513 2113 
z
" id="DejaVuSans-6e" transform="scale(0.015625)"/>
       <path d="M 313 2009 
L 1997 2009 
L 1997 1497 
L 313 1497 
L 313 2009 
z
" id="DejaVuSans-2d" transform="scale(0.015625)"/>
       <path d="M 191 3500 
L 800 3500 
L 1894 563 
L 2988 3500 
L 3597 3500 
L 2284 0 
L 1503 0 
L 191 3500 
z
" id="DejaVuSans-76" transform="scale(0.015625)"/>
      </defs>
      <use xlink:href="#DejaVuSans-4e"/>
      <use x="74.804688" xlink:href="#DejaVuSans-6f"/>
      <use x="135.986328" xlink:href="#DejaVuSans-6e"/>
      <use x="199.365234" xlink:href="#DejaVuSans-2d"/>
      <use x="232.824219" xlink:href="#DejaVuSans-76"/>
      <use x="292.003906" xlink:href="#DejaVuSans-61"/>
      <use x="353.283203" xlink:href="#DejaVuSans-63"/>
      <use x="408.263672" xlink:href="#DejaVuSans-63"/>
      <use x="463.244141" xlink:href="#DejaVuSans-69"/>
      <use x="491.027344" xlink:href="#DejaVuSans-6e"/>
      <use x="554.40625" xlink:href="#DejaVuSans-e9"/>
      <use x="615.929688" xlink:href="#DejaVuSans-73"/>
     </g>
    </g>
    <g id="line2d_19">
     <path d="M 62.907813 64.454687 
L 82.907813 64.454687 
" style="fill:none;stroke:#000000;stroke-linecap:square;stroke-width:1.5;"/>
    </g>
    <g id="line2d_20"/>
    <g id="text_16">
     <!-- Primo-dose -->
     <g transform="translate(90.907813 67.954687)scale(0.1 -0.1)">
      <defs>
       <path d="M 1259 4147 
L 1259 2394 
L 2053 2394 
Q 2494 2394 2734 2622 
Q 2975 2850 2975 3272 
Q 2975 3691 2734 3919 
Q 2494 4147 2053 4147 
L 1259 4147 
z
M 628 4666 
L 2053 4666 
Q 2838 4666 3239 4311 
Q 3641 3956 3641 3272 
Q 3641 2581 3239 2228 
Q 2838 1875 2053 1875 
L 1259 1875 
L 1259 0 
L 628 0 
L 628 4666 
z
" id="DejaVuSans-50" transform="scale(0.015625)"/>
       <path d="M 3328 2828 
Q 3544 3216 3844 3400 
Q 4144 3584 4550 3584 
Q 5097 3584 5394 3201 
Q 5691 2819 5691 2113 
L 5691 0 
L 5113 0 
L 5113 2094 
Q 5113 2597 4934 2840 
Q 4756 3084 4391 3084 
Q 3944 3084 3684 2787 
Q 3425 2491 3425 1978 
L 3425 0 
L 2847 0 
L 2847 2094 
Q 2847 2600 2669 2842 
Q 2491 3084 2119 3084 
Q 1678 3084 1418 2786 
Q 1159 2488 1159 1978 
L 1159 0 
L 581 0 
L 581 3500 
L 1159 3500 
L 1159 2956 
Q 1356 3278 1631 3431 
Q 1906 3584 2284 3584 
Q 2666 3584 2933 3390 
Q 3200 3197 3328 2828 
z
" id="DejaVuSans-6d" transform="scale(0.015625)"/>
       <path d="M 2906 2969 
L 2906 4863 
L 3481 4863 
L 3481 0 
L 2906 0 
L 2906 525 
Q 2725 213 2448 61 
Q 2172 -91 1784 -91 
Q 1150 -91 751 415 
Q 353 922 353 1747 
Q 353 2572 751 3078 
Q 1150 3584 1784 3584 
Q 2172 3584 2448 3432 
Q 2725 3281 2906 2969 
z
M 947 1747 
Q 947 1113 1208 752 
Q 1469 391 1925 391 
Q 2381 391 2643 752 
Q 2906 1113 2906 1747 
Q 2906 2381 2643 2742 
Q 2381 3103 1925 3103 
Q 1469 3103 1208 2742 
Q 947 2381 947 1747 
z
" id="DejaVuSans-64" transform="scale(0.015625)"/>
       <path d="M 3597 1894 
L 3597 1613 
L 953 1613 
Q 991 1019 1311 708 
Q 1631 397 2203 397 
Q 2534 397 2845 478 
Q 3156 559 3463 722 
L 3463 178 
Q 3153 47 2828 -22 
Q 2503 -91 2169 -91 
Q 1331 -91 842 396 
Q 353 884 353 1716 
Q 353 2575 817 3079 
Q 1281 3584 2069 3584 
Q 2775 3584 3186 3129 
Q 3597 2675 3597 1894 
z
M 3022 2063 
Q 3016 2534 2758 2815 
Q 2500 3097 2075 3097 
Q 1594 3097 1305 2825 
Q 1016 2553 972 2059 
L 3022 2063 
z
" id="DejaVuSans-65" transform="scale(0.015625)"/>
      </defs>
      <use xlink:href="#DejaVuSans-50"/>
      <use x="58.552734" xlink:href="#DejaVuSans-72"/>
      <use x="99.666016" xlink:href="#DejaVuSans-69"/>
      <use x="127.449219" xlink:href="#DejaVuSans-6d"/>
      <use x="224.861328" xlink:href="#DejaVuSans-6f"/>
      <use x="287.917969" xlink:href="#DejaVuSans-2d"/>
      <use x="324.001953" xlink:href="#DejaVuSans-64"/>
      <use x="387.478516" xlink:href="#DejaVuSans-6f"/>
      <use x="448.660156" xlink:href="#DejaVuSans-73"/>
      <use x="500.759766" xlink:href="#DejaVuSans-65"/>
     </g>
    </g>
    <g id="line2d_21">
     <path d="M 62.907813 79.532812 
L 82.907813 79.532812 
" style="fill:none;stroke:#b22222;stroke-linecap:square;"/>
    </g>
    <g id="line2d_22"/>
    <g id="text_17">
     <!-- Vaccination complète -->
     <g transform="translate(90.907813 83.032812)scale(0.1 -0.1)">
      <defs>
       <path d="M 1831 0 
L 50 4666 
L 709 4666 
L 2188 738 
L 3669 4666 
L 4325 4666 
L 2547 0 
L 1831 0 
z
" id="DejaVuSans-56" transform="scale(0.015625)"/>
      </defs>
      <use xlink:href="#DejaVuSans-56"/>
      <use x="60.658203" xlink:href="#DejaVuSans-61"/>
      <use x="121.9375" xlink:href="#DejaVuSans-63"/>
      <use x="176.917969" xlink:href="#DejaVuSans-63"/>
      <use x="231.898438" xlink:href="#DejaVuSans-69"/>
      <use x="259.681641" xlink:href="#DejaVuSans-6e"/>
      <use x="323.060547" xlink:href="#DejaVuSans-61"/>
      <use x="384.339844" xlink:href="#DejaVuSans-74"/>
      <use x="423.548828" xlink:href="#DejaVuSans-69"/>
      <use x="451.332031" xlink:href="#DejaVuSans-6f"/>
      <use x="512.513672" xlink:href="#DejaVuSans-6e"/>
      <use x="575.892578" xlink:href="#DejaVuSans-20"/>
      <use x="607.679688" xlink:href="#DejaVuSans-63"/>
      <use x="662.660156" xlink:href="#DejaVuSans-6f"/>
      <use x="723.841797" xlink:href="#DejaVuSans-6d"/>
      <use x="821.253906" xlink:href="#DejaVuSans-70"/>
      <use x="884.730469" xlink:href="#DejaVuSans-6c"/>
      <use x="912.513672" xlink:href="#DejaVuSans-e8"/>
      <use x="974.037109" xlink:href="#DejaVuSans-74"/>
      <use x="1013.246094" xlink:href="#DejaVuSans-65"/>
     </g>
    </g>
   </g>
  </g>
 </g>
 <defs>
  <clipPath id="p65fe39a65e">
   <rect height="217.44" width="446.4" x="50.865625" y="21.6"/>
  </clipPath>
 </defs>
</svg>
