<?xml version="1.0" encoding="utf-8" standalone="no"?>
<!DOCTYPE svg PUBLIC "-//W3C//DTD SVG 1.1//EN"
  "http://www.w3.org/Graphics/SVG/1.1/DTD/svg11.dtd">
<svg height="296.930616pt" version="1.1" viewBox="0 0 516.168468 296.930616" width="516.168468pt" xmlns="http://www.w3.org/2000/svg" xmlns:xlink="http://www.w3.org/1999/xlink">
 <metadata>
  <rdf:RDF xmlns:cc="http://creativecommons.org/ns#" xmlns:dc="http://purl.org/dc/elements/1.1/" xmlns:rdf="http://www.w3.org/1999/02/22-rdf-syntax-ns#">
   <cc:Work>
    <dc:type rdf:resource="http://purl.org/dc/dcmitype/StillImage"/>
    <dc:date>2021-08-28T19:18:03.247977</dc:date>
    <dc:format>image/svg+xml</dc:format>
    <dc:creator>
     <cc:Agent>
      <dc:title>Matplotlib v3.4.1, https://matplotlib.org/</dc:title>
     </cc:Agent>
    </dc:creator>
   </cc:Work>
  </rdf:RDF>
 </metadata>
 <defs>
  <style type="text/css">*{stroke-linecap:butt;stroke-linejoin:round;}</style>
 </defs>
 <g id="figure_1">
  <g id="patch_1">
   <path d="M 0 296.930616 
L 516.168468 296.930616 
L 516.168468 0 
L 0 0 
z
" style="fill:#ffffff;"/>
  </g>
  <g id="axes_1">
   <g id="patch_2">
    <path d="M 41.325 241.109215 
L 487.725 241.109215 
L 487.725 23.669215 
L 41.325 23.669215 
z
" style="fill:#ffffff;"/>
   </g>
   <g id="matplotlib.axis_1">
    <g id="xtick_1">
     <g id="line2d_1">
      <defs>
       <path d="M 0 0 
L 0 3.5 
" id="m62907b4779" style="stroke:#000000;stroke-width:0.8;"/>
      </defs>
      <g>
       <use style="stroke:#000000;stroke-width:0.8;" x="128.022521" xlink:href="#m62907b4779" y="241.109215"/>
      </g>
     </g>
     <g id="text_1">
      <!-- 15/06 -->
      <g transform="translate(113.017494 273.860055)rotate(-45)scale(0.1 -0.1)">
       <defs>
        <path d="M 794 531 
L 1825 531 
L 1825 4091 
L 703 3866 
L 703 4441 
L 1819 4666 
L 2450 4666 
L 2450 531 
L 3481 531 
L 3481 0 
L 794 0 
L 794 531 
z
" id="DejaVuSans-31" transform="scale(0.015625)"/>
        <path d="M 691 4666 
L 3169 4666 
L 3169 4134 
L 1269 4134 
L 1269 2991 
Q 1406 3038 1543 3061 
Q 1681 3084 1819 3084 
Q 2600 3084 3056 2656 
Q 3513 2228 3513 1497 
Q 3513 744 3044 326 
Q 2575 -91 1722 -91 
Q 1428 -91 1123 -41 
Q 819 9 494 109 
L 494 744 
Q 775 591 1075 516 
Q 1375 441 1709 441 
Q 2250 441 2565 725 
Q 2881 1009 2881 1497 
Q 2881 1984 2565 2268 
Q 2250 2553 1709 2553 
Q 1456 2553 1204 2497 
Q 953 2441 691 2322 
L 691 4666 
z
" id="DejaVuSans-35" transform="scale(0.015625)"/>
        <path d="M 1625 4666 
L 2156 4666 
L 531 -594 
L 0 -594 
L 1625 4666 
z
" id="DejaVuSans-2f" transform="scale(0.015625)"/>
        <path d="M 2034 4250 
Q 1547 4250 1301 3770 
Q 1056 3291 1056 2328 
Q 1056 1369 1301 889 
Q 1547 409 2034 409 
Q 2525 409 2770 889 
Q 3016 1369 3016 2328 
Q 3016 3291 2770 3770 
Q 2525 4250 2034 4250 
z
M 2034 4750 
Q 2819 4750 3233 4129 
Q 3647 3509 3647 2328 
Q 3647 1150 3233 529 
Q 2819 -91 2034 -91 
Q 1250 -91 836 529 
Q 422 1150 422 2328 
Q 422 3509 836 4129 
Q 1250 4750 2034 4750 
z
" id="DejaVuSans-30" transform="scale(0.015625)"/>
        <path d="M 2113 2584 
Q 1688 2584 1439 2293 
Q 1191 2003 1191 1497 
Q 1191 994 1439 701 
Q 1688 409 2113 409 
Q 2538 409 2786 701 
Q 3034 994 3034 1497 
Q 3034 2003 2786 2293 
Q 2538 2584 2113 2584 
z
M 3366 4563 
L 3366 3988 
Q 3128 4100 2886 4159 
Q 2644 4219 2406 4219 
Q 1781 4219 1451 3797 
Q 1122 3375 1075 2522 
Q 1259 2794 1537 2939 
Q 1816 3084 2150 3084 
Q 2853 3084 3261 2657 
Q 3669 2231 3669 1497 
Q 3669 778 3244 343 
Q 2819 -91 2113 -91 
Q 1303 -91 875 529 
Q 447 1150 447 2328 
Q 447 3434 972 4092 
Q 1497 4750 2381 4750 
Q 2619 4750 2861 4703 
Q 3103 4656 3366 4563 
z
" id="DejaVuSans-36" transform="scale(0.015625)"/>
       </defs>
       <use xlink:href="#DejaVuSans-31"/>
       <use x="63.623047" xlink:href="#DejaVuSans-35"/>
       <use x="127.246094" xlink:href="#DejaVuSans-2f"/>
       <use x="160.9375" xlink:href="#DejaVuSans-30"/>
       <use x="224.560547" xlink:href="#DejaVuSans-36"/>
      </g>
     </g>
    </g>
    <g id="xtick_2">
     <g id="line2d_2">
      <g>
       <use style="stroke:#000000;stroke-width:0.8;" x="201.807645" xlink:href="#m62907b4779" y="241.109215"/>
      </g>
     </g>
     <g id="text_2">
      <!-- 01/07 -->
      <g transform="translate(186.802618 273.860055)rotate(-45)scale(0.1 -0.1)">
       <defs>
        <path d="M 525 4666 
L 3525 4666 
L 3525 4397 
L 1831 0 
L 1172 0 
L 2766 4134 
L 525 4134 
L 525 4666 
z
" id="DejaVuSans-37" transform="scale(0.015625)"/>
       </defs>
       <use xlink:href="#DejaVuSans-30"/>
       <use x="63.623047" xlink:href="#DejaVuSans-31"/>
       <use x="127.246094" xlink:href="#DejaVuSans-2f"/>
       <use x="160.9375" xlink:href="#DejaVuSans-30"/>
       <use x="224.560547" xlink:href="#DejaVuSans-37"/>
      </g>
     </g>
    </g>
    <g id="xtick_3">
     <g id="line2d_3">
      <g>
       <use style="stroke:#000000;stroke-width:0.8;" x="266.369628" xlink:href="#m62907b4779" y="241.109215"/>
      </g>
     </g>
     <g id="text_3">
      <!-- 15/07 -->
      <g transform="translate(251.364601 273.860055)rotate(-45)scale(0.1 -0.1)">
       <use xlink:href="#DejaVuSans-31"/>
       <use x="63.623047" xlink:href="#DejaVuSans-35"/>
       <use x="127.246094" xlink:href="#DejaVuSans-2f"/>
       <use x="160.9375" xlink:href="#DejaVuSans-30"/>
       <use x="224.560547" xlink:href="#DejaVuSans-37"/>
      </g>
     </g>
    </g>
    <g id="xtick_4">
     <g id="line2d_4">
      <g>
       <use style="stroke:#000000;stroke-width:0.8;" x="344.766322" xlink:href="#m62907b4779" y="241.109215"/>
      </g>
     </g>
     <g id="text_4">
      <!-- 01/08 -->
      <g transform="translate(329.761295 273.860055)rotate(-45)scale(0.1 -0.1)">
       <defs>
        <path d="M 2034 2216 
Q 1584 2216 1326 1975 
Q 1069 1734 1069 1313 
Q 1069 891 1326 650 
Q 1584 409 2034 409 
Q 2484 409 2743 651 
Q 3003 894 3003 1313 
Q 3003 1734 2745 1975 
Q 2488 2216 2034 2216 
z
M 1403 2484 
Q 997 2584 770 2862 
Q 544 3141 544 3541 
Q 544 4100 942 4425 
Q 1341 4750 2034 4750 
Q 2731 4750 3128 4425 
Q 3525 4100 3525 3541 
Q 3525 3141 3298 2862 
Q 3072 2584 2669 2484 
Q 3125 2378 3379 2068 
Q 3634 1759 3634 1313 
Q 3634 634 3220 271 
Q 2806 -91 2034 -91 
Q 1263 -91 848 271 
Q 434 634 434 1313 
Q 434 1759 690 2068 
Q 947 2378 1403 2484 
z
M 1172 3481 
Q 1172 3119 1398 2916 
Q 1625 2713 2034 2713 
Q 2441 2713 2670 2916 
Q 2900 3119 2900 3481 
Q 2900 3844 2670 4047 
Q 2441 4250 2034 4250 
Q 1625 4250 1398 4047 
Q 1172 3844 1172 3481 
z
" id="DejaVuSans-38" transform="scale(0.015625)"/>
       </defs>
       <use xlink:href="#DejaVuSans-30"/>
       <use x="63.623047" xlink:href="#DejaVuSans-31"/>
       <use x="127.246094" xlink:href="#DejaVuSans-2f"/>
       <use x="160.9375" xlink:href="#DejaVuSans-30"/>
       <use x="224.560547" xlink:href="#DejaVuSans-38"/>
      </g>
     </g>
    </g>
    <g id="xtick_5">
     <g id="line2d_5">
      <g>
       <use style="stroke:#000000;stroke-width:0.8;" x="409.328306" xlink:href="#m62907b4779" y="241.109215"/>
      </g>
     </g>
     <g id="text_5">
      <!-- 15/08 -->
      <g transform="translate(394.323279 273.860055)rotate(-45)scale(0.1 -0.1)">
       <use xlink:href="#DejaVuSans-31"/>
       <use x="63.623047" xlink:href="#DejaVuSans-35"/>
       <use x="127.246094" xlink:href="#DejaVuSans-2f"/>
       <use x="160.9375" xlink:href="#DejaVuSans-30"/>
       <use x="224.560547" xlink:href="#DejaVuSans-38"/>
      </g>
     </g>
    </g>
    <g id="xtick_6">
     <g id="line2d_6">
      <g>
       <use style="stroke:#000000;stroke-width:0.8;" x="487.725" xlink:href="#m62907b4779" y="241.109215"/>
      </g>
     </g>
     <g id="text_6">
      <!-- 01/09 -->
      <g transform="translate(472.719973 273.860055)rotate(-45)scale(0.1 -0.1)">
       <defs>
        <path d="M 703 97 
L 703 672 
Q 941 559 1184 500 
Q 1428 441 1663 441 
Q 2288 441 2617 861 
Q 2947 1281 2994 2138 
Q 2813 1869 2534 1725 
Q 2256 1581 1919 1581 
Q 1219 1581 811 2004 
Q 403 2428 403 3163 
Q 403 3881 828 4315 
Q 1253 4750 1959 4750 
Q 2769 4750 3195 4129 
Q 3622 3509 3622 2328 
Q 3622 1225 3098 567 
Q 2575 -91 1691 -91 
Q 1453 -91 1209 -44 
Q 966 3 703 97 
z
M 1959 2075 
Q 2384 2075 2632 2365 
Q 2881 2656 2881 3163 
Q 2881 3666 2632 3958 
Q 2384 4250 1959 4250 
Q 1534 4250 1286 3958 
Q 1038 3666 1038 3163 
Q 1038 2656 1286 2365 
Q 1534 2075 1959 2075 
z
" id="DejaVuSans-39" transform="scale(0.015625)"/>
       </defs>
       <use xlink:href="#DejaVuSans-30"/>
       <use x="63.623047" xlink:href="#DejaVuSans-31"/>
       <use x="127.246094" xlink:href="#DejaVuSans-2f"/>
       <use x="160.9375" xlink:href="#DejaVuSans-30"/>
       <use x="224.560547" xlink:href="#DejaVuSans-39"/>
      </g>
     </g>
    </g>
   </g>
   <g id="matplotlib.axis_2">
    <g id="ytick_1">
     <g id="line2d_7">
      <defs>
       <path d="M 0 0 
L -3.5 0 
" id="md7542b685f" style="stroke:#000000;stroke-width:0.8;"/>
      </defs>
      <g>
       <use style="stroke:#000000;stroke-width:0.8;" x="41.325" xlink:href="#md7542b685f" y="231.225578"/>
      </g>
     </g>
     <g id="text_7">
      <!-- 0 -->
      <g transform="translate(27.9625 235.024797)scale(0.1 -0.1)">
       <use xlink:href="#DejaVuSans-30"/>
      </g>
     </g>
    </g>
    <g id="ytick_2">
     <g id="line2d_8">
      <g>
       <use style="stroke:#000000;stroke-width:0.8;" x="41.325" xlink:href="#md7542b685f" y="190.060307"/>
      </g>
     </g>
     <g id="text_8">
      <!-- 10 -->
      <g transform="translate(21.6 193.859525)scale(0.1 -0.1)">
       <use xlink:href="#DejaVuSans-31"/>
       <use x="63.623047" xlink:href="#DejaVuSans-30"/>
      </g>
     </g>
    </g>
    <g id="ytick_3">
     <g id="line2d_9">
      <g>
       <use style="stroke:#000000;stroke-width:0.8;" x="41.325" xlink:href="#md7542b685f" y="148.895035"/>
      </g>
     </g>
     <g id="text_9">
      <!-- 20 -->
      <g transform="translate(21.6 152.694253)scale(0.1 -0.1)">
       <defs>
        <path d="M 1228 531 
L 3431 531 
L 3431 0 
L 469 0 
L 469 531 
Q 828 903 1448 1529 
Q 2069 2156 2228 2338 
Q 2531 2678 2651 2914 
Q 2772 3150 2772 3378 
Q 2772 3750 2511 3984 
Q 2250 4219 1831 4219 
Q 1534 4219 1204 4116 
Q 875 4013 500 3803 
L 500 4441 
Q 881 4594 1212 4672 
Q 1544 4750 1819 4750 
Q 2544 4750 2975 4387 
Q 3406 4025 3406 3419 
Q 3406 3131 3298 2873 
Q 3191 2616 2906 2266 
Q 2828 2175 2409 1742 
Q 1991 1309 1228 531 
z
" id="DejaVuSans-32" transform="scale(0.015625)"/>
       </defs>
       <use xlink:href="#DejaVuSans-32"/>
       <use x="63.623047" xlink:href="#DejaVuSans-30"/>
      </g>
     </g>
    </g>
    <g id="ytick_4">
     <g id="line2d_10">
      <g>
       <use style="stroke:#000000;stroke-width:0.8;" x="41.325" xlink:href="#md7542b685f" y="107.729763"/>
      </g>
     </g>
     <g id="text_10">
      <!-- 30 -->
      <g transform="translate(21.6 111.528981)scale(0.1 -0.1)">
       <defs>
        <path d="M 2597 2516 
Q 3050 2419 3304 2112 
Q 3559 1806 3559 1356 
Q 3559 666 3084 287 
Q 2609 -91 1734 -91 
Q 1441 -91 1130 -33 
Q 819 25 488 141 
L 488 750 
Q 750 597 1062 519 
Q 1375 441 1716 441 
Q 2309 441 2620 675 
Q 2931 909 2931 1356 
Q 2931 1769 2642 2001 
Q 2353 2234 1838 2234 
L 1294 2234 
L 1294 2753 
L 1863 2753 
Q 2328 2753 2575 2939 
Q 2822 3125 2822 3475 
Q 2822 3834 2567 4026 
Q 2313 4219 1838 4219 
Q 1578 4219 1281 4162 
Q 984 4106 628 3988 
L 628 4550 
Q 988 4650 1302 4700 
Q 1616 4750 1894 4750 
Q 2613 4750 3031 4423 
Q 3450 4097 3450 3541 
Q 3450 3153 3228 2886 
Q 3006 2619 2597 2516 
z
" id="DejaVuSans-33" transform="scale(0.015625)"/>
       </defs>
       <use xlink:href="#DejaVuSans-33"/>
       <use x="63.623047" xlink:href="#DejaVuSans-30"/>
      </g>
     </g>
    </g>
    <g id="ytick_5">
     <g id="line2d_11">
      <g>
       <use style="stroke:#000000;stroke-width:0.8;" x="41.325" xlink:href="#md7542b685f" y="66.564491"/>
      </g>
     </g>
     <g id="text_11">
      <!-- 40 -->
      <g transform="translate(21.6 70.363709)scale(0.1 -0.1)">
       <defs>
        <path d="M 2419 4116 
L 825 1625 
L 2419 1625 
L 2419 4116 
z
M 2253 4666 
L 3047 4666 
L 3047 1625 
L 3713 1625 
L 3713 1100 
L 3047 1100 
L 3047 0 
L 2419 0 
L 2419 1100 
L 313 1100 
L 313 1709 
L 2253 4666 
z
" id="DejaVuSans-34" transform="scale(0.015625)"/>
       </defs>
       <use xlink:href="#DejaVuSans-34"/>
       <use x="63.623047" xlink:href="#DejaVuSans-30"/>
      </g>
     </g>
    </g>
    <g id="ytick_6">
     <g id="line2d_12">
      <g>
       <use style="stroke:#000000;stroke-width:0.8;" x="41.325" xlink:href="#md7542b685f" y="25.399219"/>
      </g>
     </g>
     <g id="text_12">
      <!-- 50 -->
      <g transform="translate(21.6 29.198437)scale(0.1 -0.1)">
       <use xlink:href="#DejaVuSans-35"/>
       <use x="63.623047" xlink:href="#DejaVuSans-30"/>
      </g>
     </g>
    </g>
   </g>
   <g id="line2d_13">
    <path clip-path="url(#p078fd91cdb)" d="M 58.848967 171.894381 
L 63.460537 174.202349 
L 68.072107 182.292815 
L 72.683678 185.656871 
L 77.295248 180.29791 
L 81.906818 195.71695 
L 86.518388 194.637679 
L 91.129959 171.383325 
L 95.741529 184.873163 
L 100.353099 201.70597 
L 104.964669 193.131723 
L 109.57624 198.945289 
L 114.18781 190.302466 
L 118.79938 210.169011 
L 123.41095 199.368701 
L 128.022521 205.481708 
L 132.634091 203.057817 
L 137.245661 202.760226 
L 141.857231 211.316058 
L 146.468802 205.592282 
L 151.080372 221.166956 
L 155.691942 204.228657 
L 160.303512 211.942938 
L 164.915083 212.921209 
L 169.526653 212.760445 
L 174.138223 211.430188 
L 178.749793 211.304969 
L 183.361364 215.96087 
L 187.972934 215.876731 
L 192.584504 214.591209 
L 197.196074 216.872285 
L 201.807645 220.385542 
L 206.419215 216.677051 
L 211.030785 216.611974 
L 215.642355 221.467344 
L 220.253926 215.296716 
L 224.865496 205.355865 
L 229.477066 215.114629 
L 234.088636 213.760535 
L 238.700207 207.365994 
L 243.311777 204.74187 
L 247.923347 212.276394 
L 252.534917 202.025506 
L 257.146488 205.684091 
L 261.758058 202.949506 
L 266.369628 198.865278 
L 270.981198 201.244702 
L 275.592769 194.557915 
L 280.204339 197.113067 
L 284.815909 183.745163 
L 289.427479 184.643536 
L 294.03905 166.973671 
L 298.65062 173.02295 
L 303.26219 158.599097 
L 307.87376 166.268831 
L 312.485331 149.38662 
L 317.096901 154.211603 
L 321.708471 141.885823 
L 326.320041 143.546367 
L 330.931612 98.412501 
L 335.543182 93.385814 
L 340.154752 124.915438 
L 344.766322 119.941278 
L 349.377893 80.471882 
L 353.989463 87.189449 
L 358.601033 64.235432 
L 363.212603 46.658426 
L 367.824174 33.552851 
L 372.435744 67.670277 
L 377.047314 81.896782 
L 381.658884 48.021397 
L 386.270455 70.710759 
L 390.882025 45.646206 
L 395.493595 62.192297 
L 400.105165 73.932253 
L 404.716736 67.088726 
L 409.328306 115.428789 
" style="fill:none;stroke:#e9967a;stroke-linecap:square;stroke-width:3;"/>
   </g>
   <g id="line2d_14">
    <path clip-path="url(#p078fd91cdb)" d="M 58.848967 219.272231 
L 63.460537 210.612165 
L 68.072107 208.060517 
L 72.683678 197.121471 
L 77.295248 220.023649 
L 81.906818 214.638119 
L 86.518388 220.225634 
L 91.129959 215.042179 
L 95.741529 225.898419 
L 100.353099 220.693646 
L 104.964669 223.422883 
L 109.57624 223.491906 
L 114.18781 228.667268 
L 118.79938 226.136401 
L 123.41095 221.116568 
L 128.022521 228.714037 
L 132.634091 221.243425 
L 137.245661 216.335678 
L 141.857231 226.267155 
L 146.468802 228.754992 
L 151.080372 231.225578 
L 155.691942 231.225578 
L 160.303512 228.746645 
L 164.915083 226.265156 
L 169.526653 228.743105 
L 174.138223 228.728904 
L 178.749793 231.225578 
L 183.361364 226.221698 
L 187.972934 228.693664 
L 192.584504 231.225578 
L 197.196074 226.040853 
L 201.807645 228.602461 
L 206.419215 225.888601 
L 211.030785 225.834482 
L 215.642355 231.225578 
L 220.253926 228.469096 
L 224.865496 228.406896 
L 229.477066 231.225578 
L 234.088636 228.304495 
L 238.700207 225.235025 
L 243.311777 228.172018 
L 247.923347 231.225578 
L 252.534917 231.225578 
L 257.146488 224.742848 
L 261.758058 231.225578 
L 266.369628 227.827273 
L 270.981198 227.730607 
L 275.592769 224.085922 
L 280.204339 231.225578 
L 284.815909 209.098966 
L 289.427479 223.70004 
L 294.03905 223.493511 
L 298.65062 215.582135 
L 303.26219 223.267896 
L 307.87376 227.20331 
L 312.485331 211.092752 
L 317.096901 214.758834 
L 321.708471 222.835447 
L 326.320041 218.889175 
L 330.931612 202.132156 
L 335.543182 214.425528 
L 340.154752 218.544227 
L 344.766322 193.177692 
L 349.377893 192.731692 
L 353.989463 175.357873 
L 358.601033 201.214618 
L 363.212603 197.033449 
L 367.824174 188.302231 
L 372.435744 222.61119 
L 377.047314 175.298202 
L 381.658884 196.62925 
L 386.270455 192.312709 
L 390.882025 183.74419 
L 395.493595 192.389171 
L 400.105165 200.914813 
L 404.716736 192.144793 
L 409.328306 213.861773 
" style="fill:none;stroke:#000000;stroke-linecap:square;stroke-width:1.5;"/>
   </g>
   <g id="line2d_15">
    <path clip-path="url(#p078fd91cdb)" d="M 58.848967 198.031667 
L 63.460537 223.085267 
L 68.072107 215.218164 
L 72.683678 207.622581 
L 77.295248 223.513724 
L 81.906818 212.135867 
L 86.518388 219.80035 
L 91.129959 219.865902 
L 95.741529 216.391353 
L 100.353099 223.960331 
L 104.964669 224.126093 
L 109.57624 217.39556 
L 114.18781 221.0072 
L 118.79938 221.044528 
L 123.41095 224.560686 
L 128.022521 227.968841 
L 132.634091 224.85051 
L 137.245661 231.225578 
L 141.857231 228.19559 
L 146.468802 228.24447 
L 151.080372 228.257033 
L 155.691942 225.413744 
L 160.303512 222.713903 
L 164.915083 217.343577 
L 169.526653 231.225578 
L 174.138223 225.936809 
L 178.749793 231.225578 
L 183.361364 228.635917 
L 187.972934 228.69746 
L 192.584504 226.298431 
L 197.196074 226.414241 
L 201.807645 224.183278 
L 206.419215 226.658415 
L 211.030785 224.489207 
L 215.642355 231.225578 
L 220.253926 226.864181 
L 224.865496 229.102177 
L 229.477066 229.153503 
L 234.088636 229.199394 
L 238.700207 229.254334 
L 243.311777 231.225578 
L 247.923347 227.386922 
L 252.534917 223.716186 
L 257.146488 227.562082 
L 261.758058 222.273038 
L 266.369628 225.968531 
L 270.981198 226.090327 
L 275.592769 229.541332 
L 280.204339 222.855575 
L 284.815909 227.936669 
L 289.427479 226.389631 
L 294.03905 224.894018 
L 298.65062 228.115071 
L 303.26219 229.702088 
L 307.87376 222.207145 
L 312.485331 219.253109 
L 317.096901 220.93764 
L 321.708471 225.461307 
L 326.320041 216.910779 
L 330.931612 221.389982 
L 335.543182 216.046619 
L 340.154752 218.948161 
L 344.766322 220.355582 
L 349.377893 212.483309 
L 353.989463 211.465712 
L 358.601033 218.229489 
L 363.212603 222.256129 
L 367.824174 218.605403 
L 372.435744 214.975757 
L 377.047314 220.008349 
L 381.658884 211.503544 
L 386.270455 208.07113 
L 390.882025 215.548496 
L 395.493595 203.772776 
L 400.105165 209.975934 
L 404.716736 223.017042 
L 409.328306 216.01061 
" style="fill:none;stroke:#b22222;stroke-linecap:square;"/>
   </g>
   <g id="patch_3">
    <path d="M 41.325 241.109215 
L 41.325 23.669215 
" style="fill:none;stroke:#000000;stroke-linecap:square;stroke-linejoin:miter;stroke-width:0.8;"/>
   </g>
   <g id="patch_4">
    <path d="M 487.725 241.109215 
L 487.725 23.669215 
" style="fill:none;stroke:#000000;stroke-linecap:square;stroke-linejoin:miter;stroke-width:0.8;"/>
   </g>
   <g id="patch_5">
    <path d="M 41.325 241.109215 
L 487.725 241.109215 
" style="fill:none;stroke:#000000;stroke-linecap:square;stroke-linejoin:miter;stroke-width:0.8;"/>
   </g>
   <g id="patch_6">
    <path d="M 41.325 23.669215 
L 487.725 23.669215 
" style="fill:none;stroke:#000000;stroke-linecap:square;stroke-linejoin:miter;stroke-width:0.8;"/>
   </g>
   <g id="legend_1">
    <g id="patch_7">
     <path d="M 48.325 91.181715 
L 187.803125 91.181715 
Q 189.803125 91.181715 189.803125 89.181715 
L 189.803125 30.669215 
Q 189.803125 28.669215 187.803125 28.669215 
L 48.325 28.669215 
Q 46.325 28.669215 46.325 30.669215 
L 46.325 89.181715 
Q 46.325 91.181715 48.325 91.181715 
z
" style="fill:#ffffff;opacity:0.8;stroke:#cccccc;stroke-linejoin:miter;"/>
    </g>
    <g id="text_13">
     <!-- En réanimation (pour 10M) -->
     <g transform="translate(50.779688 40.667652)scale(0.1 -0.1)">
      <defs>
       <path d="M 628 4666 
L 3578 4666 
L 3578 4134 
L 1259 4134 
L 1259 2753 
L 3481 2753 
L 3481 2222 
L 1259 2222 
L 1259 531 
L 3634 531 
L 3634 0 
L 628 0 
L 628 4666 
z
" id="DejaVuSans-45" transform="scale(0.015625)"/>
       <path d="M 3513 2113 
L 3513 0 
L 2938 0 
L 2938 2094 
Q 2938 2591 2744 2837 
Q 2550 3084 2163 3084 
Q 1697 3084 1428 2787 
Q 1159 2491 1159 1978 
L 1159 0 
L 581 0 
L 581 3500 
L 1159 3500 
L 1159 2956 
Q 1366 3272 1645 3428 
Q 1925 3584 2291 3584 
Q 2894 3584 3203 3211 
Q 3513 2838 3513 2113 
z
" id="DejaVuSans-6e" transform="scale(0.015625)"/>
       <path id="DejaVuSans-20" transform="scale(0.015625)"/>
       <path d="M 2631 2963 
Q 2534 3019 2420 3045 
Q 2306 3072 2169 3072 
Q 1681 3072 1420 2755 
Q 1159 2438 1159 1844 
L 1159 0 
L 581 0 
L 581 3500 
L 1159 3500 
L 1159 2956 
Q 1341 3275 1631 3429 
Q 1922 3584 2338 3584 
Q 2397 3584 2469 3576 
Q 2541 3569 2628 3553 
L 2631 2963 
z
" id="DejaVuSans-72" transform="scale(0.015625)"/>
       <path d="M 3597 1894 
L 3597 1613 
L 953 1613 
Q 991 1019 1311 708 
Q 1631 397 2203 397 
Q 2534 397 2845 478 
Q 3156 559 3463 722 
L 3463 178 
Q 3153 47 2828 -22 
Q 2503 -91 2169 -91 
Q 1331 -91 842 396 
Q 353 884 353 1716 
Q 353 2575 817 3079 
Q 1281 3584 2069 3584 
Q 2775 3584 3186 3129 
Q 3597 2675 3597 1894 
z
M 3022 2063 
Q 3016 2534 2758 2815 
Q 2500 3097 2075 3097 
Q 1594 3097 1305 2825 
Q 1016 2553 972 2059 
L 3022 2063 
z
M 2466 5119 
L 3088 5119 
L 2070 3944 
L 1591 3944 
L 2466 5119 
z
" id="DejaVuSans-e9" transform="scale(0.015625)"/>
       <path d="M 2194 1759 
Q 1497 1759 1228 1600 
Q 959 1441 959 1056 
Q 959 750 1161 570 
Q 1363 391 1709 391 
Q 2188 391 2477 730 
Q 2766 1069 2766 1631 
L 2766 1759 
L 2194 1759 
z
M 3341 1997 
L 3341 0 
L 2766 0 
L 2766 531 
Q 2569 213 2275 61 
Q 1981 -91 1556 -91 
Q 1019 -91 701 211 
Q 384 513 384 1019 
Q 384 1609 779 1909 
Q 1175 2209 1959 2209 
L 2766 2209 
L 2766 2266 
Q 2766 2663 2505 2880 
Q 2244 3097 1772 3097 
Q 1472 3097 1187 3025 
Q 903 2953 641 2809 
L 641 3341 
Q 956 3463 1253 3523 
Q 1550 3584 1831 3584 
Q 2591 3584 2966 3190 
Q 3341 2797 3341 1997 
z
" id="DejaVuSans-61" transform="scale(0.015625)"/>
       <path d="M 603 3500 
L 1178 3500 
L 1178 0 
L 603 0 
L 603 3500 
z
M 603 4863 
L 1178 4863 
L 1178 4134 
L 603 4134 
L 603 4863 
z
" id="DejaVuSans-69" transform="scale(0.015625)"/>
       <path d="M 3328 2828 
Q 3544 3216 3844 3400 
Q 4144 3584 4550 3584 
Q 5097 3584 5394 3201 
Q 5691 2819 5691 2113 
L 5691 0 
L 5113 0 
L 5113 2094 
Q 5113 2597 4934 2840 
Q 4756 3084 4391 3084 
Q 3944 3084 3684 2787 
Q 3425 2491 3425 1978 
L 3425 0 
L 2847 0 
L 2847 2094 
Q 2847 2600 2669 2842 
Q 2491 3084 2119 3084 
Q 1678 3084 1418 2786 
Q 1159 2488 1159 1978 
L 1159 0 
L 581 0 
L 581 3500 
L 1159 3500 
L 1159 2956 
Q 1356 3278 1631 3431 
Q 1906 3584 2284 3584 
Q 2666 3584 2933 3390 
Q 3200 3197 3328 2828 
z
" id="DejaVuSans-6d" transform="scale(0.015625)"/>
       <path d="M 1172 4494 
L 1172 3500 
L 2356 3500 
L 2356 3053 
L 1172 3053 
L 1172 1153 
Q 1172 725 1289 603 
Q 1406 481 1766 481 
L 2356 481 
L 2356 0 
L 1766 0 
Q 1100 0 847 248 
Q 594 497 594 1153 
L 594 3053 
L 172 3053 
L 172 3500 
L 594 3500 
L 594 4494 
L 1172 4494 
z
" id="DejaVuSans-74" transform="scale(0.015625)"/>
       <path d="M 1959 3097 
Q 1497 3097 1228 2736 
Q 959 2375 959 1747 
Q 959 1119 1226 758 
Q 1494 397 1959 397 
Q 2419 397 2687 759 
Q 2956 1122 2956 1747 
Q 2956 2369 2687 2733 
Q 2419 3097 1959 3097 
z
M 1959 3584 
Q 2709 3584 3137 3096 
Q 3566 2609 3566 1747 
Q 3566 888 3137 398 
Q 2709 -91 1959 -91 
Q 1206 -91 779 398 
Q 353 888 353 1747 
Q 353 2609 779 3096 
Q 1206 3584 1959 3584 
z
" id="DejaVuSans-6f" transform="scale(0.015625)"/>
       <path d="M 1984 4856 
Q 1566 4138 1362 3434 
Q 1159 2731 1159 2009 
Q 1159 1288 1364 580 
Q 1569 -128 1984 -844 
L 1484 -844 
Q 1016 -109 783 600 
Q 550 1309 550 2009 
Q 550 2706 781 3412 
Q 1013 4119 1484 4856 
L 1984 4856 
z
" id="DejaVuSans-28" transform="scale(0.015625)"/>
       <path d="M 1159 525 
L 1159 -1331 
L 581 -1331 
L 581 3500 
L 1159 3500 
L 1159 2969 
Q 1341 3281 1617 3432 
Q 1894 3584 2278 3584 
Q 2916 3584 3314 3078 
Q 3713 2572 3713 1747 
Q 3713 922 3314 415 
Q 2916 -91 2278 -91 
Q 1894 -91 1617 61 
Q 1341 213 1159 525 
z
M 3116 1747 
Q 3116 2381 2855 2742 
Q 2594 3103 2138 3103 
Q 1681 3103 1420 2742 
Q 1159 2381 1159 1747 
Q 1159 1113 1420 752 
Q 1681 391 2138 391 
Q 2594 391 2855 752 
Q 3116 1113 3116 1747 
z
" id="DejaVuSans-70" transform="scale(0.015625)"/>
       <path d="M 544 1381 
L 544 3500 
L 1119 3500 
L 1119 1403 
Q 1119 906 1312 657 
Q 1506 409 1894 409 
Q 2359 409 2629 706 
Q 2900 1003 2900 1516 
L 2900 3500 
L 3475 3500 
L 3475 0 
L 2900 0 
L 2900 538 
Q 2691 219 2414 64 
Q 2138 -91 1772 -91 
Q 1169 -91 856 284 
Q 544 659 544 1381 
z
M 1991 3584 
L 1991 3584 
z
" id="DejaVuSans-75" transform="scale(0.015625)"/>
       <path d="M 628 4666 
L 1569 4666 
L 2759 1491 
L 3956 4666 
L 4897 4666 
L 4897 0 
L 4281 0 
L 4281 4097 
L 3078 897 
L 2444 897 
L 1241 4097 
L 1241 0 
L 628 0 
L 628 4666 
z
" id="DejaVuSans-4d" transform="scale(0.015625)"/>
       <path d="M 513 4856 
L 1013 4856 
Q 1481 4119 1714 3412 
Q 1947 2706 1947 2009 
Q 1947 1309 1714 600 
Q 1481 -109 1013 -844 
L 513 -844 
Q 928 -128 1133 580 
Q 1338 1288 1338 2009 
Q 1338 2731 1133 3434 
Q 928 4138 513 4856 
z
" id="DejaVuSans-29" transform="scale(0.015625)"/>
      </defs>
      <use xlink:href="#DejaVuSans-45"/>
      <use x="63.183594" xlink:href="#DejaVuSans-6e"/>
      <use x="126.5625" xlink:href="#DejaVuSans-20"/>
      <use x="158.349609" xlink:href="#DejaVuSans-72"/>
      <use x="197.212891" xlink:href="#DejaVuSans-e9"/>
      <use x="258.736328" xlink:href="#DejaVuSans-61"/>
      <use x="320.015625" xlink:href="#DejaVuSans-6e"/>
      <use x="383.394531" xlink:href="#DejaVuSans-69"/>
      <use x="411.177734" xlink:href="#DejaVuSans-6d"/>
      <use x="508.589844" xlink:href="#DejaVuSans-61"/>
      <use x="569.869141" xlink:href="#DejaVuSans-74"/>
      <use x="609.078125" xlink:href="#DejaVuSans-69"/>
      <use x="636.861328" xlink:href="#DejaVuSans-6f"/>
      <use x="698.042969" xlink:href="#DejaVuSans-6e"/>
      <use x="761.421875" xlink:href="#DejaVuSans-20"/>
      <use x="793.208984" xlink:href="#DejaVuSans-28"/>
      <use x="832.222656" xlink:href="#DejaVuSans-70"/>
      <use x="895.699219" xlink:href="#DejaVuSans-6f"/>
      <use x="956.880859" xlink:href="#DejaVuSans-75"/>
      <use x="1020.259766" xlink:href="#DejaVuSans-72"/>
      <use x="1061.373047" xlink:href="#DejaVuSans-20"/>
      <use x="1093.160156" xlink:href="#DejaVuSans-31"/>
      <use x="1156.783203" xlink:href="#DejaVuSans-30"/>
      <use x="1220.40625" xlink:href="#DejaVuSans-4d"/>
      <use x="1306.685547" xlink:href="#DejaVuSans-29"/>
     </g>
    </g>
    <g id="line2d_16">
     <path d="M 50.325 51.845777 
L 70.325 51.845777 
" style="fill:none;stroke:#e9967a;stroke-linecap:square;stroke-width:3;"/>
    </g>
    <g id="line2d_17"/>
    <g id="text_14">
     <!-- Non-vaccinés -->
     <g transform="translate(78.325 55.345777)scale(0.1 -0.1)">
      <defs>
       <path d="M 628 4666 
L 1478 4666 
L 3547 763 
L 3547 4666 
L 4159 4666 
L 4159 0 
L 3309 0 
L 1241 3903 
L 1241 0 
L 628 0 
L 628 4666 
z
" id="DejaVuSans-4e" transform="scale(0.015625)"/>
       <path d="M 313 2009 
L 1997 2009 
L 1997 1497 
L 313 1497 
L 313 2009 
z
" id="DejaVuSans-2d" transform="scale(0.015625)"/>
       <path d="M 191 3500 
L 800 3500 
L 1894 563 
L 2988 3500 
L 3597 3500 
L 2284 0 
L 1503 0 
L 191 3500 
z
" id="DejaVuSans-76" transform="scale(0.015625)"/>
       <path d="M 3122 3366 
L 3122 2828 
Q 2878 2963 2633 3030 
Q 2388 3097 2138 3097 
Q 1578 3097 1268 2742 
Q 959 2388 959 1747 
Q 959 1106 1268 751 
Q 1578 397 2138 397 
Q 2388 397 2633 464 
Q 2878 531 3122 666 
L 3122 134 
Q 2881 22 2623 -34 
Q 2366 -91 2075 -91 
Q 1284 -91 818 406 
Q 353 903 353 1747 
Q 353 2603 823 3093 
Q 1294 3584 2113 3584 
Q 2378 3584 2631 3529 
Q 2884 3475 3122 3366 
z
" id="DejaVuSans-63" transform="scale(0.015625)"/>
       <path d="M 2834 3397 
L 2834 2853 
Q 2591 2978 2328 3040 
Q 2066 3103 1784 3103 
Q 1356 3103 1142 2972 
Q 928 2841 928 2578 
Q 928 2378 1081 2264 
Q 1234 2150 1697 2047 
L 1894 2003 
Q 2506 1872 2764 1633 
Q 3022 1394 3022 966 
Q 3022 478 2636 193 
Q 2250 -91 1575 -91 
Q 1294 -91 989 -36 
Q 684 19 347 128 
L 347 722 
Q 666 556 975 473 
Q 1284 391 1588 391 
Q 1994 391 2212 530 
Q 2431 669 2431 922 
Q 2431 1156 2273 1281 
Q 2116 1406 1581 1522 
L 1381 1569 
Q 847 1681 609 1914 
Q 372 2147 372 2553 
Q 372 3047 722 3315 
Q 1072 3584 1716 3584 
Q 2034 3584 2315 3537 
Q 2597 3491 2834 3397 
z
" id="DejaVuSans-73" transform="scale(0.015625)"/>
      </defs>
      <use xlink:href="#DejaVuSans-4e"/>
      <use x="74.804688" xlink:href="#DejaVuSans-6f"/>
      <use x="135.986328" xlink:href="#DejaVuSans-6e"/>
      <use x="199.365234" xlink:href="#DejaVuSans-2d"/>
      <use x="232.824219" xlink:href="#DejaVuSans-76"/>
      <use x="292.003906" xlink:href="#DejaVuSans-61"/>
      <use x="353.283203" xlink:href="#DejaVuSans-63"/>
      <use x="408.263672" xlink:href="#DejaVuSans-63"/>
      <use x="463.244141" xlink:href="#DejaVuSans-69"/>
      <use x="491.027344" xlink:href="#DejaVuSans-6e"/>
      <use x="554.40625" xlink:href="#DejaVuSans-e9"/>
      <use x="615.929688" xlink:href="#DejaVuSans-73"/>
     </g>
    </g>
    <g id="line2d_18">
     <path d="M 50.325 66.523902 
L 70.325 66.523902 
" style="fill:none;stroke:#000000;stroke-linecap:square;stroke-width:1.5;"/>
    </g>
    <g id="line2d_19"/>
    <g id="text_15">
     <!-- Primo-dose -->
     <g transform="translate(78.325 70.023902)scale(0.1 -0.1)">
      <defs>
       <path d="M 1259 4147 
L 1259 2394 
L 2053 2394 
Q 2494 2394 2734 2622 
Q 2975 2850 2975 3272 
Q 2975 3691 2734 3919 
Q 2494 4147 2053 4147 
L 1259 4147 
z
M 628 4666 
L 2053 4666 
Q 2838 4666 3239 4311 
Q 3641 3956 3641 3272 
Q 3641 2581 3239 2228 
Q 2838 1875 2053 1875 
L 1259 1875 
L 1259 0 
L 628 0 
L 628 4666 
z
" id="DejaVuSans-50" transform="scale(0.015625)"/>
       <path d="M 2906 2969 
L 2906 4863 
L 3481 4863 
L 3481 0 
L 2906 0 
L 2906 525 
Q 2725 213 2448 61 
Q 2172 -91 1784 -91 
Q 1150 -91 751 415 
Q 353 922 353 1747 
Q 353 2572 751 3078 
Q 1150 3584 1784 3584 
Q 2172 3584 2448 3432 
Q 2725 3281 2906 2969 
z
M 947 1747 
Q 947 1113 1208 752 
Q 1469 391 1925 391 
Q 2381 391 2643 752 
Q 2906 1113 2906 1747 
Q 2906 2381 2643 2742 
Q 2381 3103 1925 3103 
Q 1469 3103 1208 2742 
Q 947 2381 947 1747 
z
" id="DejaVuSans-64" transform="scale(0.015625)"/>
       <path d="M 3597 1894 
L 3597 1613 
L 953 1613 
Q 991 1019 1311 708 
Q 1631 397 2203 397 
Q 2534 397 2845 478 
Q 3156 559 3463 722 
L 3463 178 
Q 3153 47 2828 -22 
Q 2503 -91 2169 -91 
Q 1331 -91 842 396 
Q 353 884 353 1716 
Q 353 2575 817 3079 
Q 1281 3584 2069 3584 
Q 2775 3584 3186 3129 
Q 3597 2675 3597 1894 
z
M 3022 2063 
Q 3016 2534 2758 2815 
Q 2500 3097 2075 3097 
Q 1594 3097 1305 2825 
Q 1016 2553 972 2059 
L 3022 2063 
z
" id="DejaVuSans-65" transform="scale(0.015625)"/>
      </defs>
      <use xlink:href="#DejaVuSans-50"/>
      <use x="58.552734" xlink:href="#DejaVuSans-72"/>
      <use x="99.666016" xlink:href="#DejaVuSans-69"/>
      <use x="127.449219" xlink:href="#DejaVuSans-6d"/>
      <use x="224.861328" xlink:href="#DejaVuSans-6f"/>
      <use x="287.917969" xlink:href="#DejaVuSans-2d"/>
      <use x="324.001953" xlink:href="#DejaVuSans-64"/>
      <use x="387.478516" xlink:href="#DejaVuSans-6f"/>
      <use x="448.660156" xlink:href="#DejaVuSans-73"/>
      <use x="500.759766" xlink:href="#DejaVuSans-65"/>
     </g>
    </g>
    <g id="line2d_20">
     <path d="M 50.325 81.602027 
L 70.325 81.602027 
" style="fill:none;stroke:#b22222;stroke-linecap:square;"/>
    </g>
    <g id="line2d_21"/>
    <g id="text_16">
     <!-- Vaccination complète -->
     <g transform="translate(78.325 85.102027)scale(0.1 -0.1)">
      <defs>
       <path d="M 1831 0 
L 50 4666 
L 709 4666 
L 2188 738 
L 3669 4666 
L 4325 4666 
L 2547 0 
L 1831 0 
z
" id="DejaVuSans-56" transform="scale(0.015625)"/>
       <path d="M 603 4863 
L 1178 4863 
L 1178 0 
L 603 0 
L 603 4863 
z
" id="DejaVuSans-6c" transform="scale(0.015625)"/>
       <path d="M 3597 1894 
L 3597 1613 
L 953 1613 
Q 991 1019 1311 708 
Q 1631 397 2203 397 
Q 2534 397 2845 478 
Q 3156 559 3463 722 
L 3463 178 
Q 3153 47 2828 -22 
Q 2503 -91 2169 -91 
Q 1331 -91 842 396 
Q 353 884 353 1716 
Q 353 2575 817 3079 
Q 1281 3584 2069 3584 
Q 2775 3584 3186 3129 
Q 3597 2675 3597 1894 
z
M 3022 2063 
Q 3016 2534 2758 2815 
Q 2500 3097 2075 3097 
Q 1594 3097 1305 2825 
Q 1016 2553 972 2059 
L 3022 2063 
z
M 1579 5119 
L 2460 3950 
L 1982 3950 
L 963 5119 
L 1579 5119 
z
" id="DejaVuSans-e8" transform="scale(0.015625)"/>
      </defs>
      <use xlink:href="#DejaVuSans-56"/>
      <use x="60.658203" xlink:href="#DejaVuSans-61"/>
      <use x="121.9375" xlink:href="#DejaVuSans-63"/>
      <use x="176.917969" xlink:href="#DejaVuSans-63"/>
      <use x="231.898438" xlink:href="#DejaVuSans-69"/>
      <use x="259.681641" xlink:href="#DejaVuSans-6e"/>
      <use x="323.060547" xlink:href="#DejaVuSans-61"/>
      <use x="384.339844" xlink:href="#DejaVuSans-74"/>
      <use x="423.548828" xlink:href="#DejaVuSans-69"/>
      <use x="451.332031" xlink:href="#DejaVuSans-6f"/>
      <use x="512.513672" xlink:href="#DejaVuSans-6e"/>
      <use x="575.892578" xlink:href="#DejaVuSans-20"/>
      <use x="607.679688" xlink:href="#DejaVuSans-63"/>
      <use x="662.660156" xlink:href="#DejaVuSans-6f"/>
      <use x="723.841797" xlink:href="#DejaVuSans-6d"/>
      <use x="821.253906" xlink:href="#DejaVuSans-70"/>
      <use x="884.730469" xlink:href="#DejaVuSans-6c"/>
      <use x="912.513672" xlink:href="#DejaVuSans-e8"/>
      <use x="974.037109" xlink:href="#DejaVuSans-74"/>
      <use x="1013.246094" xlink:href="#DejaVuSans-65"/>
     </g>
    </g>
   </g>
  </g>
 </g>
 <defs>
  <clipPath id="p078fd91cdb">
   <rect height="217.44" width="446.4" x="41.325" y="23.669215"/>
  </clipPath>
 </defs>
</svg>
